solid flap
  facet normal 0.000000000000e+00 0.000000000000e+00 -1.000000000000e+00
    outer loop
      vertex 2.227939302833e-01 2.648398092304e-02 -2.000000000000e-02
      vertex 2.272859730256e-01 2.717651493702e-02 -2.000000000000e-02
      vertex 2.325613793919e-01 2.791664551388e-02 -2.000000000000e-02
    endloop
  endfacet
  facet normal 0.000000000000e+00 0.000000000000e+00 -1.000000000000e+00
    outer loop
      vertex 2.190529809923e-01 2.575578534340e-02 -2.000000000000e-02
      vertex 2.227939302833e-01 2.648398092304e-02 -2.000000000000e-02
      vertex 2.325613793919e-01 2.791664551388e-02 -2.000000000000e-02
    endloop
  endfacet
  facet normal 0.000000000000e+00 0.000000000000e+00 -1.000000000000e+00
    outer loop
      vertex 2.190529809923e-01 2.575578534340e-02 -2.000000000000e-02
      vertex 2.325613793919e-01 2.791664551388e-02 -2.000000000000e-02
      vertex 2.385622878564e-01 2.883527736649e-02 -2.000000000000e-02
    endloop
  endfacet
  facet normal 0.000000000000e+00 0.000000000000e+00 -1.000000000000e+00
    outer loop
      vertex 2.160359625051e-01 2.497182569629e-02 -2.000000000000e-02
      vertex 2.190529809923e-01 2.575578534340e-02 -2.000000000000e-02
      vertex 2.385622878564e-01 2.883527736649e-02 -2.000000000000e-02
    endloop
  endfacet
  facet normal 0.000000000000e+00 0.000000000000e+00 -1.000000000000e+00
    outer loop
      vertex 2.137174492298e-01 2.413178691628e-02 -2.000000000000e-02
      vertex 2.160359625051e-01 2.497182569629e-02 -2.000000000000e-02
      vertex 2.385622878564e-01 2.883527736649e-02 -2.000000000000e-02
    endloop
  endfacet
  facet normal 0.000000000000e+00 0.000000000000e+00 -1.000000000000e+00
    outer loop
      vertex 2.137174492298e-01 2.413178691628e-02 -2.000000000000e-02
      vertex 2.385622878564e-01 2.883527736649e-02 -2.000000000000e-02
      vertex 2.401348099333e-01 2.911804611631e-02 -2.000000000000e-02
    endloop
  endfacet
  facet normal 0.000000000000e+00 0.000000000000e+00 -1.000000000000e+00
    outer loop
      vertex 2.137174492298e-01 2.413178691628e-02 -2.000000000000e-02
      vertex 2.401348099333e-01 2.911804611631e-02 -2.000000000000e-02
      vertex 2.451640040145e-01 3.002238885583e-02 -2.000000000000e-02
    endloop
  endfacet
  facet normal 0.000000000000e+00 0.000000000000e+00 -1.000000000000e+00
    outer loop
      vertex 2.120854393651e-01 2.325811798491e-02 -2.000000000000e-02
      vertex 2.137174492298e-01 2.413178691628e-02 -2.000000000000e-02
      vertex 2.451640040145e-01 3.002238885583e-02 -2.000000000000e-02
    endloop
  endfacet
  facet normal 0.000000000000e+00 0.000000000000e+00 -1.000000000000e+00
    outer loop
      vertex 2.117836777729e-01 2.303463156141e-02 -2.000000000000e-02
      vertex 2.120854393651e-01 2.325811798491e-02 -2.000000000000e-02
      vertex 2.451640040145e-01 3.002238885583e-02 -2.000000000000e-02
    endloop
  endfacet
  facet normal 0.000000000000e+00 0.000000000000e+00 -1.000000000000e+00
    outer loop
      vertex 2.114788524940e-01 2.277044263401e-02 -2.000000000000e-02
      vertex 2.117836777729e-01 2.303463156141e-02 -2.000000000000e-02
      vertex 2.451640040145e-01 3.002238885583e-02 -2.000000000000e-02
    endloop
  endfacet
  facet normal 0.000000000000e+00 0.000000000000e+00 -1.000000000000e+00
    outer loop
      vertex 2.113119962151e-01 2.259733474230e-02 -2.000000000000e-02
      vertex 2.114788524940e-01 2.277044263401e-02 -2.000000000000e-02
      vertex 2.451640040145e-01 3.002238885583e-02 -2.000000000000e-02
    endloop
  endfacet
  facet normal 0.000000000000e+00 0.000000000000e+00 -1.000000000000e+00
    outer loop
      vertex 2.113119962151e-01 2.259733474230e-02 -2.000000000000e-02
      vertex 2.451640040145e-01 3.002238885583e-02 -2.000000000000e-02
      vertex 2.522299477257e-01 3.154447708895e-02 -2.000000000000e-02
    endloop
  endfacet
  facet normal 0.000000000000e+00 0.000000000000e+00 -1.000000000000e+00
    outer loop
      vertex 2.111750760528e-01 2.242618361270e-02 -2.000000000000e-02
      vertex 2.113119962151e-01 2.259733474230e-02 -2.000000000000e-02
      vertex 2.522299477257e-01 3.154447708895e-02 -2.000000000000e-02
    endloop
  endfacet
  facet normal 0.000000000000e+00 0.000000000000e+00 -1.000000000000e+00
    outer loop
      vertex 2.111204563989e-01 2.234117600478e-02 -2.000000000000e-02
      vertex 2.111750760528e-01 2.242618361270e-02 -2.000000000000e-02
      vertex 2.522299477257e-01 3.154447708895e-02 -2.000000000000e-02
    endloop
  endfacet
  facet normal 0.000000000000e+00 0.000000000000e+00 -1.000000000000e+00
    outer loop
      vertex 2.110741405871e-01 2.225791373493e-02 -2.000000000000e-02
      vertex 2.111204563989e-01 2.234117600478e-02 -2.000000000000e-02
      vertex 2.522299477257e-01 3.154447708895e-02 -2.000000000000e-02
    endloop
  endfacet
  facet normal 0.000000000000e+00 0.000000000000e+00 -1.000000000000e+00
    outer loop
      vertex 2.110387943040e-01 2.217609002033e-02 -2.000000000000e-02
      vertex 2.110741405871e-01 2.225791373493e-02 -2.000000000000e-02
      vertex 2.522299477257e-01 3.154447708895e-02 -2.000000000000e-02
    endloop
  endfacet
  facet normal 0.000000000000e+00 0.000000000000e+00 -1.000000000000e+00
    outer loop
      vertex 2.110153420393e-01 2.208965628109e-02 -2.000000000000e-02
      vertex 2.110387943040e-01 2.217609002033e-02 -2.000000000000e-02
      vertex 2.522299477257e-01 3.154447708895e-02 -2.000000000000e-02
    endloop
  endfacet
  facet normal 0.000000000000e+00 0.000000000000e+00 -1.000000000000e+00
    outer loop
      vertex 2.110007076823e-01 2.200004693116e-02 -2.000000000000e-02
      vertex 2.110153420393e-01 2.208965628109e-02 -2.000000000000e-02
      vertex 2.522299477257e-01 3.154447708895e-02 -2.000000000000e-02
    endloop
  endfacet
  facet normal 0.000000000000e+00 0.000000000000e+00 -1.000000000000e+00
    outer loop
      vertex 2.109941740260e-01 2.190572391522e-02 -2.000000000000e-02
      vertex 2.110007076823e-01 2.200004693116e-02 -2.000000000000e-02
      vertex 2.522299477257e-01 3.154447708895e-02 -2.000000000000e-02
    endloop
  endfacet
  facet normal 0.000000000000e+00 0.000000000000e+00 -1.000000000000e+00
    outer loop
      vertex 2.109973081150e-01 2.170765055132e-02 -2.000000000000e-02
      vertex 2.109941740260e-01 2.190572391522e-02 -2.000000000000e-02
      vertex 2.522299477257e-01 3.154447708895e-02 -2.000000000000e-02
    endloop
  endfacet
  facet normal 0.000000000000e+00 0.000000000000e+00 -1.000000000000e+00
    outer loop
      vertex 2.110242302407e-01 2.150035713815e-02 -2.000000000000e-02
      vertex 2.109973081150e-01 2.170765055132e-02 -2.000000000000e-02
      vertex 2.522299477257e-01 3.154447708895e-02 -2.000000000000e-02
    endloop
  endfacet
  facet normal 0.000000000000e+00 0.000000000000e+00 -1.000000000000e+00
    outer loop
      vertex 2.110658198540e-01 2.127030796064e-02 -2.000000000000e-02
      vertex 2.110242302407e-01 2.150035713815e-02 -2.000000000000e-02
      vertex 2.522299477257e-01 3.154447708895e-02 -2.000000000000e-02
    endloop
  endfacet
  facet normal 0.000000000000e+00 0.000000000000e+00 -1.000000000000e+00
    outer loop
      vertex 2.111041924434e-01 2.117189726823e-02 -2.000000000000e-02
      vertex 2.110658198540e-01 2.127030796064e-02 -2.000000000000e-02
      vertex 2.522299477257e-01 3.154447708895e-02 -2.000000000000e-02
    endloop
  endfacet
  facet normal 0.000000000000e+00 0.000000000000e+00 -1.000000000000e+00
    outer loop
      vertex 2.115066445125e-01 2.030826030045e-02 -2.000000000000e-02
      vertex 2.111041924434e-01 2.117189726823e-02 -2.000000000000e-02
      vertex 2.522299477257e-01 3.154447708895e-02 -2.000000000000e-02
    endloop
  endfacet
  facet normal 0.000000000000e+00 0.000000000000e+00 -1.000000000000e+00
    outer loop
      vertex 2.115066445125e-01 2.030826030045e-02 -2.000000000000e-02
      vertex 2.522299477257e-01 3.154447708895e-02 -2.000000000000e-02
      vertex 2.595628499094e-01 3.345233527170e-02 -2.000000000000e-02
    endloop
  endfacet
  facet normal 0.000000000000e+00 0.000000000000e+00 -1.000000000000e+00
    outer loop
      vertex 2.124672282267e-01 1.910759000101e-02 -2.000000000000e-02
      vertex 2.115066445125e-01 2.030826030045e-02 -2.000000000000e-02
      vertex 2.595628499094e-01 3.345233527170e-02 -2.000000000000e-02
    endloop
  endfacet
  facet normal 0.000000000000e+00 0.000000000000e+00 -1.000000000000e+00
    outer loop
      vertex 2.138921306029e-01 1.793289238114e-02 -2.000000000000e-02
      vertex 2.124672282267e-01 1.910759000101e-02 -2.000000000000e-02
      vertex 2.595628499094e-01 3.345233527170e-02 -2.000000000000e-02
    endloop
  endfacet
  facet normal 0.000000000000e+00 0.000000000000e+00 -1.000000000000e+00
    outer loop
      vertex 2.138921306029e-01 1.793289238114e-02 -2.000000000000e-02
      vertex 2.595628499094e-01 3.345233527170e-02 -2.000000000000e-02
      vertex 2.669407620886e-01 3.569966012482e-02 -2.000000000000e-02
    endloop
  endfacet
  facet normal 0.000000000000e+00 0.000000000000e+00 -1.000000000000e+00
    outer loop
      vertex 2.157707759715e-01 1.683778381157e-02 -2.000000000000e-02
      vertex 2.138921306029e-01 1.793289238114e-02 -2.000000000000e-02
      vertex 2.669407620886e-01 3.569966012482e-02 -2.000000000000e-02
    endloop
  endfacet
  facet normal 0.000000000000e+00 0.000000000000e+00 -1.000000000000e+00
    outer loop
      vertex 2.157707759715e-01 1.683778381157e-02 -2.000000000000e-02
      vertex 2.669407620886e-01 3.569966012482e-02 -2.000000000000e-02
      vertex 2.742216193044e-01 3.817855564552e-02 -2.000000000000e-02
    endloop
  endfacet
  facet normal 0.000000000000e+00 0.000000000000e+00 -1.000000000000e+00
    outer loop
      vertex 2.180811092098e-01 1.586531741724e-02 -2.000000000000e-02
      vertex 2.157707759715e-01 1.683778381157e-02 -2.000000000000e-02
      vertex 2.742216193044e-01 3.817855564552e-02 -2.000000000000e-02
    endloop
  endfacet
  facet normal 0.000000000000e+00 0.000000000000e+00 -1.000000000000e+00
    outer loop
      vertex 2.180811092098e-01 1.586531741724e-02 -2.000000000000e-02
      vertex 2.742216193044e-01 3.817855564552e-02 -2.000000000000e-02
      vertex 2.813117369544e-01 4.081661302727e-02 -2.000000000000e-02
    endloop
  endfacet
  facet normal 0.000000000000e+00 0.000000000000e+00 -1.000000000000e+00
    outer loop
      vertex 2.208028205332e-01 1.505024248090e-02 -2.000000000000e-02
      vertex 2.180811092098e-01 1.586531741724e-02 -2.000000000000e-02
      vertex 2.813117369544e-01 4.081661302727e-02 -2.000000000000e-02
    endloop
  endfacet
  facet normal 0.000000000000e+00 0.000000000000e+00 -1.000000000000e+00
    outer loop
      vertex 2.208028205332e-01 1.505024248090e-02 -2.000000000000e-02
      vertex 2.813117369544e-01 4.081661302727e-02 -2.000000000000e-02
      vertex 2.881148601084e-01 4.356602820732e-02 -2.000000000000e-02
    endloop
  endfacet
  facet normal 0.000000000000e+00 0.000000000000e+00 -1.000000000000e+00
    outer loop
      vertex 2.239096552188e-01 1.442259047798e-02 -2.000000000000e-02
      vertex 2.208028205332e-01 1.505024248090e-02 -2.000000000000e-02
      vertex 2.881148601084e-01 4.356602820732e-02 -2.000000000000e-02
    endloop
  endfacet
  facet normal 0.000000000000e+00 0.000000000000e+00 -1.000000000000e+00
    outer loop
      vertex 2.239096552188e-01 1.442259047798e-02 -2.000000000000e-02
      vertex 2.881148601084e-01 4.356602820732e-02 -2.000000000000e-02
      vertex 2.945158708894e-01 4.637468559846e-02 -2.000000000000e-02
    endloop
  endfacet
  facet normal 0.000000000000e+00 0.000000000000e+00 -1.000000000000e+00
    outer loop
      vertex 2.273740277707e-01 1.400552345567e-02 -2.000000000000e-02
      vertex 2.239096552188e-01 1.442259047798e-02 -2.000000000000e-02
      vertex 2.945158708894e-01 4.637468559846e-02 -2.000000000000e-02
    endloop
  endfacet
  facet normal 0.000000000000e+00 0.000000000000e+00 -1.000000000000e+00
    outer loop
      vertex 2.273740277707e-01 1.400552345567e-02 -2.000000000000e-02
      vertex 2.945158708894e-01 4.637468559846e-02 -2.000000000000e-02
      vertex 3.004096052423e-01 4.915961314837e-02 -2.000000000000e-02
    endloop
  endfacet
  facet normal 0.000000000000e+00 0.000000000000e+00 -1.000000000000e+00
    outer loop
      vertex 2.311593316444e-01 1.381892006778e-02 -2.000000000000e-02
      vertex 2.273740277707e-01 1.400552345567e-02 -2.000000000000e-02
      vertex 3.004096052423e-01 4.915961314837e-02 -2.000000000000e-02
    endloop
  endfacet
  facet normal 0.000000000000e+00 0.000000000000e+00 -1.000000000000e+00
    outer loop
      vertex 2.311593316444e-01 1.381892006778e-02 -2.000000000000e-02
      vertex 3.004096052423e-01 4.915961314837e-02 -2.000000000000e-02
      vertex 3.057260671011e-01 5.182892967960e-02 -2.000000000000e-02
    endloop
  endfacet
  facet normal -0.000000000000e+00 0.000000000000e+00 -1.000000000000e+00
    outer loop
      vertex 2.352306019915e-01 1.387814844354e-02 -2.000000000000e-02
      vertex 2.311593316444e-01 1.381892006778e-02 -2.000000000000e-02
      vertex 3.057260671011e-01 5.182892967960e-02 -2.000000000000e-02
    endloop
  endfacet
  facet normal 0.000000000000e+00 0.000000000000e+00 -1.000000000000e+00
    outer loop
      vertex 2.352306019915e-01 1.387814844354e-02 -2.000000000000e-02
      vertex 3.057260671011e-01 5.182892967960e-02 -2.000000000000e-02
      vertex 3.104197573611e-01 5.431116329927e-02 -2.000000000000e-02
    endloop
  endfacet
  facet normal -0.000000000000e+00 0.000000000000e+00 -1.000000000000e+00
    outer loop
      vertex 2.395461081772e-01 1.419611416716e-02 -2.000000000000e-02
      vertex 2.352306019915e-01 1.387814844354e-02 -2.000000000000e-02
      vertex 3.104197573611e-01 5.431116329927e-02 -2.000000000000e-02
    endloop
  endfacet
  facet normal 0.000000000000e+00 0.000000000000e+00 -1.000000000000e+00
    outer loop
      vertex 2.395461081772e-01 1.419611416716e-02 -2.000000000000e-02
      vertex 3.104197573611e-01 5.431116329927e-02 -2.000000000000e-02
      vertex 3.144506077907e-01 5.654448087060e-02 -2.000000000000e-02
    endloop
  endfacet
  facet normal -0.000000000000e+00 0.000000000000e+00 -1.000000000000e+00
    outer loop
      vertex 2.440593022590e-01 1.478141543969e-02 -2.000000000000e-02
      vertex 2.395461081772e-01 1.419611416716e-02 -2.000000000000e-02
      vertex 3.144506077907e-01 5.654448087060e-02 -2.000000000000e-02
    endloop
  endfacet
  facet normal 0.000000000000e+00 0.000000000000e+00 -1.000000000000e+00
    outer loop
      vertex 2.440593022590e-01 1.478141543969e-02 -2.000000000000e-02
      vertex 3.144506077907e-01 5.654448087060e-02 -2.000000000000e-02
      vertex 3.177927989388e-01 5.847351240217e-02 -2.000000000000e-02
    endloop
  endfacet
  facet normal -0.000000000000e+00 0.000000000000e+00 -1.000000000000e+00
    outer loop
      vertex 2.452712414224e-01 1.500581658351e-02 -2.000000000000e-02
      vertex 2.440593022590e-01 1.478141543969e-02 -2.000000000000e-02
      vertex 3.177927989388e-01 5.847351240217e-02 -2.000000000000e-02
    endloop
  endfacet
  facet normal -0.000000000000e+00 0.000000000000e+00 -1.000000000000e+00
    outer loop
      vertex 2.487228154463e-01 1.564490572446e-02 -2.000000000000e-02
      vertex 2.452712414224e-01 1.500581658351e-02 -2.000000000000e-02
      vertex 3.177927989388e-01 5.847351240217e-02 -2.000000000000e-02
    endloop
  endfacet
  facet normal 0.000000000000e+00 0.000000000000e+00 -1.000000000000e+00
    outer loop
      vertex 2.487228154463e-01 1.564490572446e-02 -2.000000000000e-02
      vertex 3.177927989388e-01 5.847351240217e-02 -2.000000000000e-02
      vertex 3.204246073134e-01 6.005970286969e-02 -2.000000000000e-02
    endloop
  endfacet
  facet normal -0.000000000000e+00 0.000000000000e+00 -1.000000000000e+00
    outer loop
      vertex 2.534887648828e-01 1.680235943357e-02 -2.000000000000e-02
      vertex 2.487228154463e-01 1.564490572446e-02 -2.000000000000e-02
      vertex 3.204246073134e-01 6.005970286969e-02 -2.000000000000e-02
    endloop
  endfacet
  facet normal 0.000000000000e+00 0.000000000000e+00 -1.000000000000e+00
    outer loop
      vertex 2.534887648828e-01 1.680235943357e-02 -2.000000000000e-02
      vertex 3.204246073134e-01 6.005970286969e-02 -2.000000000000e-02
      vertex 3.223189780497e-01 6.126511081448e-02 -2.000000000000e-02
    endloop
  endfacet
  facet normal -0.000000000000e+00 0.000000000000e+00 -1.000000000000e+00
    outer loop
      vertex 2.583231102101e-01 1.826309611636e-02 -2.000000000000e-02
      vertex 2.534887648828e-01 1.680235943357e-02 -2.000000000000e-02
      vertex 3.223189780497e-01 6.126511081448e-02 -2.000000000000e-02
    endloop
  endfacet
  facet normal -0.000000000000e+00 0.000000000000e+00 -1.000000000000e+00
    outer loop
      vertex 2.631904802972e-01 2.002956589392e-02 -2.000000000000e-02
      vertex 2.583231102101e-01 1.826309611636e-02 -2.000000000000e-02
      vertex 3.223189780497e-01 6.126511081448e-02 -2.000000000000e-02
    endloop
  endfacet
  facet normal 0.000000000000e+00 0.000000000000e+00 -1.000000000000e+00
    outer loop
      vertex 2.631904802972e-01 2.002956589392e-02 -2.000000000000e-02
      vertex 3.223189780497e-01 6.126511081448e-02 -2.000000000000e-02
      vertex 3.234540881557e-01 6.204092889055e-02 -2.000000000000e-02
    endloop
  endfacet
  facet normal -0.000000000000e+00 0.000000000000e+00 -1.000000000000e+00
    outer loop
      vertex 2.680623734414e-01 2.210288811477e-02 -2.000000000000e-02
      vertex 2.631904802972e-01 2.002956589392e-02 -2.000000000000e-02
      vertex 3.234540881557e-01 6.204092889055e-02 -2.000000000000e-02
    endloop
  endfacet
  facet normal -0.000000000000e+00 0.000000000000e+00 -1.000000000000e+00
    outer loop
      vertex 2.729150057473e-01 2.447823718891e-02 -2.000000000000e-02
      vertex 2.680623734414e-01 2.210288811477e-02 -2.000000000000e-02
      vertex 3.234540881557e-01 6.204092889055e-02 -2.000000000000e-02
    endloop
  endfacet
  facet normal 0.000000000000e+00 0.000000000000e+00 -1.000000000000e+00
    outer loop
      vertex 2.729150057473e-01 2.447823718891e-02 -2.000000000000e-02
      vertex 3.234540881557e-01 6.204092889055e-02 -2.000000000000e-02
      vertex 3.238289343483e-01 6.231272515972e-02 -2.000000000000e-02
    endloop
  endfacet
  facet normal -0.000000000000e+00 0.000000000000e+00 -1.000000000000e+00
    outer loop
      vertex 2.777514574668e-01 2.714013306311e-02 -2.000000000000e-02
      vertex 2.729150057473e-01 2.447823718891e-02 -2.000000000000e-02
      vertex 3.238289343483e-01 6.231272515972e-02 -2.000000000000e-02
    endloop
  endfacet
  facet normal -0.000000000000e+00 0.000000000000e+00 -1.000000000000e+00
    outer loop
      vertex 2.825726696549e-01 3.002634460035e-02 -2.000000000000e-02
      vertex 2.777514574668e-01 2.714013306311e-02 -2.000000000000e-02
      vertex 3.238289343483e-01 6.231272515972e-02 -2.000000000000e-02
    endloop
  endfacet
  facet normal -0.000000000000e+00 0.000000000000e+00 -1.000000000000e+00
    outer loop
      vertex 2.873430887457e-01 3.306263472123e-02 -2.000000000000e-02
      vertex 2.825726696549e-01 3.002634460035e-02 -2.000000000000e-02
      vertex 3.238289343483e-01 6.231272515972e-02 -2.000000000000e-02
    endloop
  endfacet
  facet normal -0.000000000000e+00 0.000000000000e+00 -1.000000000000e+00
    outer loop
      vertex 2.920184427657e-01 3.618819427874e-02 -2.000000000000e-02
      vertex 2.873430887457e-01 3.306263472123e-02 -2.000000000000e-02
      vertex 3.238289343483e-01 6.231272515972e-02 -2.000000000000e-02
    endloop
  endfacet
  facet normal -0.000000000000e+00 0.000000000000e+00 -1.000000000000e+00
    outer loop
      vertex 2.965492320098e-01 3.933903437387e-02 -2.000000000000e-02
      vertex 2.920184427657e-01 3.618819427874e-02 -2.000000000000e-02
      vertex 3.238289343483e-01 6.231272515972e-02 -2.000000000000e-02
    endloop
  endfacet
  facet normal -0.000000000000e+00 0.000000000000e+00 -1.000000000000e+00
    outer loop
      vertex 3.008843150764e-01 4.245567663216e-02 -2.000000000000e-02
      vertex 2.965492320098e-01 3.933903437387e-02 -2.000000000000e-02
      vertex 3.238289343483e-01 6.231272515972e-02 -2.000000000000e-02
    endloop
  endfacet
  facet normal -0.000000000000e+00 0.000000000000e+00 -1.000000000000e+00
    outer loop
      vertex 3.049704984427e-01 4.548428083491e-02 -2.000000000000e-02
      vertex 3.008843150764e-01 4.245567663216e-02 -2.000000000000e-02
      vertex 3.238289343483e-01 6.231272515972e-02 -2.000000000000e-02
    endloop
  endfacet
  facet normal -0.000000000000e+00 0.000000000000e+00 -1.000000000000e+00
    outer loop
      vertex 3.087530505308e-01 4.837172397036e-02 -2.000000000000e-02
      vertex 3.049704984427e-01 4.548428083491e-02 -2.000000000000e-02
      vertex 3.238289343483e-01 6.231272515972e-02 -2.000000000000e-02
    endloop
  endfacet
  facet normal -0.000000000000e+00 0.000000000000e+00 -1.000000000000e+00
    outer loop
      vertex 3.121759048490e-01 5.107205923782e-02 -2.000000000000e-02
      vertex 3.087530505308e-01 4.837172397036e-02 -2.000000000000e-02
      vertex 3.238289343483e-01 6.231272515972e-02 -2.000000000000e-02
    endloop
  endfacet
  facet normal 0.000000000000e+00 0.000000000000e+00 -1.000000000000e+00
    outer loop
      vertex 3.177248002882e-01 5.577980506403e-02 -2.000000000000e-02
      vertex 3.151861705160e-01 5.354815774431e-02 -2.000000000000e-02
      vertex 3.121759048490e-01 5.107205923782e-02 -2.000000000000e-02
    endloop
  endfacet
  facet normal 0.000000000000e+00 0.000000000000e+00 -1.000000000000e+00
    outer loop
      vertex 3.197656430839e-01 5.779323935482e-02 -2.000000000000e-02
      vertex 3.177248002882e-01 5.577980506403e-02 -2.000000000000e-02
      vertex 3.121759048490e-01 5.107205923782e-02 -2.000000000000e-02
    endloop
  endfacet
  facet normal 0.000000000000e+00 0.000000000000e+00 -1.000000000000e+00
    outer loop
      vertex 3.213773890442e-01 5.958919853019e-02 -2.000000000000e-02
      vertex 3.197656430839e-01 5.779323935482e-02 -2.000000000000e-02
      vertex 3.121759048490e-01 5.107205923782e-02 -2.000000000000e-02
    endloop
  endfacet
  facet normal 0.000000000000e+00 0.000000000000e+00 -1.000000000000e+00
    outer loop
      vertex 3.226365553585e-01 6.104867603695e-02 -2.000000000000e-02
      vertex 3.213773890442e-01 5.958919853019e-02 -2.000000000000e-02
      vertex 3.121759048490e-01 5.107205923782e-02 -2.000000000000e-02
    endloop
  endfacet
  facet normal 0.000000000000e+00 0.000000000000e+00 -1.000000000000e+00
    outer loop
      vertex 3.235051590466e-01 6.199183546834e-02 -2.000000000000e-02
      vertex 3.226365553585e-01 6.104867603695e-02 -2.000000000000e-02
      vertex 3.121759048490e-01 5.107205923782e-02 -2.000000000000e-02
    endloop
  endfacet
  facet normal 0.000000000000e+00 0.000000000000e+00 -1.000000000000e+00
    outer loop
      vertex 3.238289343483e-01 6.231272515972e-02 -2.000000000000e-02
      vertex 3.235051590466e-01 6.199183546834e-02 -2.000000000000e-02
      vertex 3.121759048490e-01 5.107205923782e-02 -2.000000000000e-02
    endloop
  endfacet
  facet normal 0.000000000000e+00 0.000000000000e+00 1.000000000000e+00
    outer loop
      vertex 2.325613793919e-01 2.791664551388e-02 2.200000000000e-01
      vertex 2.272859730256e-01 2.717651493702e-02 2.200000000000e-01
      vertex 2.227939302833e-01 2.648398092304e-02 2.200000000000e-01
    endloop
  endfacet
  facet normal 0.000000000000e+00 0.000000000000e+00 1.000000000000e+00
    outer loop
      vertex 2.325613793919e-01 2.791664551388e-02 2.200000000000e-01
      vertex 2.227939302833e-01 2.648398092304e-02 2.200000000000e-01
      vertex 2.190529809923e-01 2.575578534340e-02 2.200000000000e-01
    endloop
  endfacet
  facet normal 0.000000000000e+00 0.000000000000e+00 1.000000000000e+00
    outer loop
      vertex 2.385622878564e-01 2.883527736649e-02 2.200000000000e-01
      vertex 2.325613793919e-01 2.791664551388e-02 2.200000000000e-01
      vertex 2.190529809923e-01 2.575578534340e-02 2.200000000000e-01
    endloop
  endfacet
  facet normal 0.000000000000e+00 0.000000000000e+00 1.000000000000e+00
    outer loop
      vertex 2.385622878564e-01 2.883527736649e-02 2.200000000000e-01
      vertex 2.190529809923e-01 2.575578534340e-02 2.200000000000e-01
      vertex 2.160359625051e-01 2.497182569629e-02 2.200000000000e-01
    endloop
  endfacet
  facet normal 0.000000000000e+00 0.000000000000e+00 1.000000000000e+00
    outer loop
      vertex 2.385622878564e-01 2.883527736649e-02 2.200000000000e-01
      vertex 2.160359625051e-01 2.497182569629e-02 2.200000000000e-01
      vertex 2.137174492298e-01 2.413178691628e-02 2.200000000000e-01
    endloop
  endfacet
  facet normal 0.000000000000e+00 0.000000000000e+00 1.000000000000e+00
    outer loop
      vertex 2.401348099333e-01 2.911804611631e-02 2.200000000000e-01
      vertex 2.385622878564e-01 2.883527736649e-02 2.200000000000e-01
      vertex 2.137174492298e-01 2.413178691628e-02 2.200000000000e-01
    endloop
  endfacet
  facet normal 0.000000000000e+00 0.000000000000e+00 1.000000000000e+00
    outer loop
      vertex 2.451640040145e-01 3.002238885583e-02 2.200000000000e-01
      vertex 2.401348099333e-01 2.911804611631e-02 2.200000000000e-01
      vertex 2.137174492298e-01 2.413178691628e-02 2.200000000000e-01
    endloop
  endfacet
  facet normal 0.000000000000e+00 0.000000000000e+00 1.000000000000e+00
    outer loop
      vertex 2.451640040145e-01 3.002238885583e-02 2.200000000000e-01
      vertex 2.137174492298e-01 2.413178691628e-02 2.200000000000e-01
      vertex 2.120854393651e-01 2.325811798491e-02 2.200000000000e-01
    endloop
  endfacet
  facet normal 0.000000000000e+00 0.000000000000e+00 1.000000000000e+00
    outer loop
      vertex 2.451640040145e-01 3.002238885583e-02 2.200000000000e-01
      vertex 2.120854393651e-01 2.325811798491e-02 2.200000000000e-01
      vertex 2.117836777729e-01 2.303463156141e-02 2.200000000000e-01
    endloop
  endfacet
  facet normal 0.000000000000e+00 0.000000000000e+00 1.000000000000e+00
    outer loop
      vertex 2.451640040145e-01 3.002238885583e-02 2.200000000000e-01
      vertex 2.117836777729e-01 2.303463156141e-02 2.200000000000e-01
      vertex 2.114788524940e-01 2.277044263401e-02 2.200000000000e-01
    endloop
  endfacet
  facet normal 0.000000000000e+00 0.000000000000e+00 1.000000000000e+00
    outer loop
      vertex 2.451640040145e-01 3.002238885583e-02 2.200000000000e-01
      vertex 2.114788524940e-01 2.277044263401e-02 2.200000000000e-01
      vertex 2.113119962151e-01 2.259733474230e-02 2.200000000000e-01
    endloop
  endfacet
  facet normal 0.000000000000e+00 0.000000000000e+00 1.000000000000e+00
    outer loop
      vertex 2.522299477257e-01 3.154447708895e-02 2.200000000000e-01
      vertex 2.451640040145e-01 3.002238885583e-02 2.200000000000e-01
      vertex 2.113119962151e-01 2.259733474230e-02 2.200000000000e-01
    endloop
  endfacet
  facet normal 0.000000000000e+00 0.000000000000e+00 1.000000000000e+00
    outer loop
      vertex 2.522299477257e-01 3.154447708895e-02 2.200000000000e-01
      vertex 2.113119962151e-01 2.259733474230e-02 2.200000000000e-01
      vertex 2.111750760528e-01 2.242618361270e-02 2.200000000000e-01
    endloop
  endfacet
  facet normal 0.000000000000e+00 0.000000000000e+00 1.000000000000e+00
    outer loop
      vertex 2.522299477257e-01 3.154447708895e-02 2.200000000000e-01
      vertex 2.111750760528e-01 2.242618361270e-02 2.200000000000e-01
      vertex 2.111204563989e-01 2.234117600478e-02 2.200000000000e-01
    endloop
  endfacet
  facet normal 0.000000000000e+00 0.000000000000e+00 1.000000000000e+00
    outer loop
      vertex 2.522299477257e-01 3.154447708895e-02 2.200000000000e-01
      vertex 2.111204563989e-01 2.234117600478e-02 2.200000000000e-01
      vertex 2.110741405871e-01 2.225791373493e-02 2.200000000000e-01
    endloop
  endfacet
  facet normal 0.000000000000e+00 0.000000000000e+00 1.000000000000e+00
    outer loop
      vertex 2.522299477257e-01 3.154447708895e-02 2.200000000000e-01
      vertex 2.110741405871e-01 2.225791373493e-02 2.200000000000e-01
      vertex 2.110387943040e-01 2.217609002033e-02 2.200000000000e-01
    endloop
  endfacet
  facet normal 0.000000000000e+00 0.000000000000e+00 1.000000000000e+00
    outer loop
      vertex 2.522299477257e-01 3.154447708895e-02 2.200000000000e-01
      vertex 2.110387943040e-01 2.217609002033e-02 2.200000000000e-01
      vertex 2.110153420393e-01 2.208965628109e-02 2.200000000000e-01
    endloop
  endfacet
  facet normal 0.000000000000e+00 0.000000000000e+00 1.000000000000e+00
    outer loop
      vertex 2.522299477257e-01 3.154447708895e-02 2.200000000000e-01
      vertex 2.110153420393e-01 2.208965628109e-02 2.200000000000e-01
      vertex 2.110007076823e-01 2.200004693116e-02 2.200000000000e-01
    endloop
  endfacet
  facet normal 0.000000000000e+00 0.000000000000e+00 1.000000000000e+00
    outer loop
      vertex 2.522299477257e-01 3.154447708895e-02 2.200000000000e-01
      vertex 2.110007076823e-01 2.200004693116e-02 2.200000000000e-01
      vertex 2.109941740260e-01 2.190572391522e-02 2.200000000000e-01
    endloop
  endfacet
  facet normal 0.000000000000e+00 0.000000000000e+00 1.000000000000e+00
    outer loop
      vertex 2.522299477257e-01 3.154447708895e-02 2.200000000000e-01
      vertex 2.109941740260e-01 2.190572391522e-02 2.200000000000e-01
      vertex 2.109973081150e-01 2.170765055132e-02 2.200000000000e-01
    endloop
  endfacet
  facet normal 0.000000000000e+00 0.000000000000e+00 1.000000000000e+00
    outer loop
      vertex 2.522299477257e-01 3.154447708895e-02 2.200000000000e-01
      vertex 2.109973081150e-01 2.170765055132e-02 2.200000000000e-01
      vertex 2.110242302407e-01 2.150035713815e-02 2.200000000000e-01
    endloop
  endfacet
  facet normal 0.000000000000e+00 0.000000000000e+00 1.000000000000e+00
    outer loop
      vertex 2.522299477257e-01 3.154447708895e-02 2.200000000000e-01
      vertex 2.110242302407e-01 2.150035713815e-02 2.200000000000e-01
      vertex 2.110658198540e-01 2.127030796064e-02 2.200000000000e-01
    endloop
  endfacet
  facet normal 0.000000000000e+00 0.000000000000e+00 1.000000000000e+00
    outer loop
      vertex 2.522299477257e-01 3.154447708895e-02 2.200000000000e-01
      vertex 2.110658198540e-01 2.127030796064e-02 2.200000000000e-01
      vertex 2.111041924434e-01 2.117189726823e-02 2.200000000000e-01
    endloop
  endfacet
  facet normal 0.000000000000e+00 0.000000000000e+00 1.000000000000e+00
    outer loop
      vertex 2.522299477257e-01 3.154447708895e-02 2.200000000000e-01
      vertex 2.111041924434e-01 2.117189726823e-02 2.200000000000e-01
      vertex 2.115066445125e-01 2.030826030045e-02 2.200000000000e-01
    endloop
  endfacet
  facet normal 0.000000000000e+00 0.000000000000e+00 1.000000000000e+00
    outer loop
      vertex 2.595628499094e-01 3.345233527170e-02 2.200000000000e-01
      vertex 2.522299477257e-01 3.154447708895e-02 2.200000000000e-01
      vertex 2.115066445125e-01 2.030826030045e-02 2.200000000000e-01
    endloop
  endfacet
  facet normal 0.000000000000e+00 0.000000000000e+00 1.000000000000e+00
    outer loop
      vertex 2.595628499094e-01 3.345233527170e-02 2.200000000000e-01
      vertex 2.115066445125e-01 2.030826030045e-02 2.200000000000e-01
      vertex 2.124672282267e-01 1.910759000101e-02 2.200000000000e-01
    endloop
  endfacet
  facet normal 0.000000000000e+00 0.000000000000e+00 1.000000000000e+00
    outer loop
      vertex 2.595628499094e-01 3.345233527170e-02 2.200000000000e-01
      vertex 2.124672282267e-01 1.910759000101e-02 2.200000000000e-01
      vertex 2.138921306029e-01 1.793289238114e-02 2.200000000000e-01
    endloop
  endfacet
  facet normal 0.000000000000e+00 0.000000000000e+00 1.000000000000e+00
    outer loop
      vertex 2.669407620886e-01 3.569966012482e-02 2.200000000000e-01
      vertex 2.595628499094e-01 3.345233527170e-02 2.200000000000e-01
      vertex 2.138921306029e-01 1.793289238114e-02 2.200000000000e-01
    endloop
  endfacet
  facet normal 0.000000000000e+00 0.000000000000e+00 1.000000000000e+00
    outer loop
      vertex 2.669407620886e-01 3.569966012482e-02 2.200000000000e-01
      vertex 2.138921306029e-01 1.793289238114e-02 2.200000000000e-01
      vertex 2.157707759715e-01 1.683778381157e-02 2.200000000000e-01
    endloop
  endfacet
  facet normal 0.000000000000e+00 0.000000000000e+00 1.000000000000e+00
    outer loop
      vertex 2.742216193044e-01 3.817855564552e-02 2.200000000000e-01
      vertex 2.669407620886e-01 3.569966012482e-02 2.200000000000e-01
      vertex 2.157707759715e-01 1.683778381157e-02 2.200000000000e-01
    endloop
  endfacet
  facet normal 0.000000000000e+00 0.000000000000e+00 1.000000000000e+00
    outer loop
      vertex 2.742216193044e-01 3.817855564552e-02 2.200000000000e-01
      vertex 2.157707759715e-01 1.683778381157e-02 2.200000000000e-01
      vertex 2.180811092098e-01 1.586531741724e-02 2.200000000000e-01
    endloop
  endfacet
  facet normal 0.000000000000e+00 0.000000000000e+00 1.000000000000e+00
    outer loop
      vertex 2.813117369544e-01 4.081661302727e-02 2.200000000000e-01
      vertex 2.742216193044e-01 3.817855564552e-02 2.200000000000e-01
      vertex 2.180811092098e-01 1.586531741724e-02 2.200000000000e-01
    endloop
  endfacet
  facet normal 0.000000000000e+00 0.000000000000e+00 1.000000000000e+00
    outer loop
      vertex 2.813117369544e-01 4.081661302727e-02 2.200000000000e-01
      vertex 2.180811092098e-01 1.586531741724e-02 2.200000000000e-01
      vertex 2.208028205332e-01 1.505024248090e-02 2.200000000000e-01
    endloop
  endfacet
  facet normal 0.000000000000e+00 0.000000000000e+00 1.000000000000e+00
    outer loop
      vertex 2.881148601084e-01 4.356602820732e-02 2.200000000000e-01
      vertex 2.813117369544e-01 4.081661302727e-02 2.200000000000e-01
      vertex 2.208028205332e-01 1.505024248090e-02 2.200000000000e-01
    endloop
  endfacet
  facet normal 0.000000000000e+00 0.000000000000e+00 1.000000000000e+00
    outer loop
      vertex 2.881148601084e-01 4.356602820732e-02 2.200000000000e-01
      vertex 2.208028205332e-01 1.505024248090e-02 2.200000000000e-01
      vertex 2.239096552188e-01 1.442259047798e-02 2.200000000000e-01
    endloop
  endfacet
  facet normal 0.000000000000e+00 0.000000000000e+00 1.000000000000e+00
    outer loop
      vertex 2.945158708894e-01 4.637468559846e-02 2.200000000000e-01
      vertex 2.881148601084e-01 4.356602820732e-02 2.200000000000e-01
      vertex 2.239096552188e-01 1.442259047798e-02 2.200000000000e-01
    endloop
  endfacet
  facet normal 0.000000000000e+00 0.000000000000e+00 1.000000000000e+00
    outer loop
      vertex 2.945158708894e-01 4.637468559846e-02 2.200000000000e-01
      vertex 2.239096552188e-01 1.442259047798e-02 2.200000000000e-01
      vertex 2.273740277707e-01 1.400552345567e-02 2.200000000000e-01
    endloop
  endfacet
  facet normal 0.000000000000e+00 0.000000000000e+00 1.000000000000e+00
    outer loop
      vertex 3.004096052423e-01 4.915961314837e-02 2.200000000000e-01
      vertex 2.945158708894e-01 4.637468559846e-02 2.200000000000e-01
      vertex 2.273740277707e-01 1.400552345567e-02 2.200000000000e-01
    endloop
  endfacet
  facet normal 0.000000000000e+00 0.000000000000e+00 1.000000000000e+00
    outer loop
      vertex 3.004096052423e-01 4.915961314837e-02 2.200000000000e-01
      vertex 2.273740277707e-01 1.400552345567e-02 2.200000000000e-01
      vertex 2.311593316444e-01 1.381892006778e-02 2.200000000000e-01
    endloop
  endfacet
  facet normal 0.000000000000e+00 0.000000000000e+00 1.000000000000e+00
    outer loop
      vertex 3.057260671011e-01 5.182892967960e-02 2.200000000000e-01
      vertex 3.004096052423e-01 4.915961314837e-02 2.200000000000e-01
      vertex 2.311593316444e-01 1.381892006778e-02 2.200000000000e-01
    endloop
  endfacet
  facet normal 0.000000000000e+00 0.000000000000e+00 1.000000000000e+00
    outer loop
      vertex 3.057260671011e-01 5.182892967960e-02 2.200000000000e-01
      vertex 2.311593316444e-01 1.381892006778e-02 2.200000000000e-01
      vertex 2.352306019915e-01 1.387814844354e-02 2.200000000000e-01
    endloop
  endfacet
  facet normal 0.000000000000e+00 0.000000000000e+00 1.000000000000e+00
    outer loop
      vertex 3.104197573611e-01 5.431116329927e-02 2.200000000000e-01
      vertex 3.057260671011e-01 5.182892967960e-02 2.200000000000e-01
      vertex 2.352306019915e-01 1.387814844354e-02 2.200000000000e-01
    endloop
  endfacet
  facet normal 0.000000000000e+00 0.000000000000e+00 1.000000000000e+00
    outer loop
      vertex 3.104197573611e-01 5.431116329927e-02 2.200000000000e-01
      vertex 2.352306019915e-01 1.387814844354e-02 2.200000000000e-01
      vertex 2.395461081772e-01 1.419611416716e-02 2.200000000000e-01
    endloop
  endfacet
  facet normal 0.000000000000e+00 0.000000000000e+00 1.000000000000e+00
    outer loop
      vertex 3.144506077907e-01 5.654448087060e-02 2.200000000000e-01
      vertex 3.104197573611e-01 5.431116329927e-02 2.200000000000e-01
      vertex 2.395461081772e-01 1.419611416716e-02 2.200000000000e-01
    endloop
  endfacet
  facet normal 0.000000000000e+00 0.000000000000e+00 1.000000000000e+00
    outer loop
      vertex 3.144506077907e-01 5.654448087060e-02 2.200000000000e-01
      vertex 2.395461081772e-01 1.419611416716e-02 2.200000000000e-01
      vertex 2.440593022590e-01 1.478141543969e-02 2.200000000000e-01
    endloop
  endfacet
  facet normal 0.000000000000e+00 0.000000000000e+00 1.000000000000e+00
    outer loop
      vertex 3.177927989388e-01 5.847351240217e-02 2.200000000000e-01
      vertex 3.144506077907e-01 5.654448087060e-02 2.200000000000e-01
      vertex 2.440593022590e-01 1.478141543969e-02 2.200000000000e-01
    endloop
  endfacet
  facet normal 0.000000000000e+00 0.000000000000e+00 1.000000000000e+00
    outer loop
      vertex 3.177927989388e-01 5.847351240217e-02 2.200000000000e-01
      vertex 2.440593022590e-01 1.478141543969e-02 2.200000000000e-01
      vertex 2.452712414224e-01 1.500581658351e-02 2.200000000000e-01
    endloop
  endfacet
  facet normal 0.000000000000e+00 0.000000000000e+00 1.000000000000e+00
    outer loop
      vertex 3.177927989388e-01 5.847351240217e-02 2.200000000000e-01
      vertex 2.452712414224e-01 1.500581658351e-02 2.200000000000e-01
      vertex 2.487228154463e-01 1.564490572446e-02 2.200000000000e-01
    endloop
  endfacet
  facet normal 0.000000000000e+00 0.000000000000e+00 1.000000000000e+00
    outer loop
      vertex 3.204246073134e-01 6.005970286969e-02 2.200000000000e-01
      vertex 3.177927989388e-01 5.847351240217e-02 2.200000000000e-01
      vertex 2.487228154463e-01 1.564490572446e-02 2.200000000000e-01
    endloop
  endfacet
  facet normal 0.000000000000e+00 0.000000000000e+00 1.000000000000e+00
    outer loop
      vertex 3.204246073134e-01 6.005970286969e-02 2.200000000000e-01
      vertex 2.487228154463e-01 1.564490572446e-02 2.200000000000e-01
      vertex 2.534887648828e-01 1.680235943357e-02 2.200000000000e-01
    endloop
  endfacet
  facet normal 0.000000000000e+00 0.000000000000e+00 1.000000000000e+00
    outer loop
      vertex 3.223189780497e-01 6.126511081448e-02 2.200000000000e-01
      vertex 3.204246073134e-01 6.005970286969e-02 2.200000000000e-01
      vertex 2.534887648828e-01 1.680235943357e-02 2.200000000000e-01
    endloop
  endfacet
  facet normal 0.000000000000e+00 0.000000000000e+00 1.000000000000e+00
    outer loop
      vertex 3.223189780497e-01 6.126511081448e-02 2.200000000000e-01
      vertex 2.534887648828e-01 1.680235943357e-02 2.200000000000e-01
      vertex 2.583231102101e-01 1.826309611636e-02 2.200000000000e-01
    endloop
  endfacet
  facet normal 0.000000000000e+00 0.000000000000e+00 1.000000000000e+00
    outer loop
      vertex 3.223189780497e-01 6.126511081448e-02 2.200000000000e-01
      vertex 2.583231102101e-01 1.826309611636e-02 2.200000000000e-01
      vertex 2.631904802972e-01 2.002956589392e-02 2.200000000000e-01
    endloop
  endfacet
  facet normal 0.000000000000e+00 0.000000000000e+00 1.000000000000e+00
    outer loop
      vertex 3.234540881557e-01 6.204092889055e-02 2.200000000000e-01
      vertex 3.223189780497e-01 6.126511081448e-02 2.200000000000e-01
      vertex 2.631904802972e-01 2.002956589392e-02 2.200000000000e-01
    endloop
  endfacet
  facet normal 0.000000000000e+00 0.000000000000e+00 1.000000000000e+00
    outer loop
      vertex 3.234540881557e-01 6.204092889055e-02 2.200000000000e-01
      vertex 2.631904802972e-01 2.002956589392e-02 2.200000000000e-01
      vertex 2.680623734414e-01 2.210288811477e-02 2.200000000000e-01
    endloop
  endfacet
  facet normal 0.000000000000e+00 0.000000000000e+00 1.000000000000e+00
    outer loop
      vertex 3.234540881557e-01 6.204092889055e-02 2.200000000000e-01
      vertex 2.680623734414e-01 2.210288811477e-02 2.200000000000e-01
      vertex 2.729150057473e-01 2.447823718891e-02 2.200000000000e-01
    endloop
  endfacet
  facet normal 0.000000000000e+00 0.000000000000e+00 1.000000000000e+00
    outer loop
      vertex 3.238289343483e-01 6.231272515972e-02 2.200000000000e-01
      vertex 3.234540881557e-01 6.204092889055e-02 2.200000000000e-01
      vertex 2.729150057473e-01 2.447823718891e-02 2.200000000000e-01
    endloop
  endfacet
  facet normal 0.000000000000e+00 0.000000000000e+00 1.000000000000e+00
    outer loop
      vertex 3.238289343483e-01 6.231272515972e-02 2.200000000000e-01
      vertex 2.729150057473e-01 2.447823718891e-02 2.200000000000e-01
      vertex 2.777514574668e-01 2.714013306311e-02 2.200000000000e-01
    endloop
  endfacet
  facet normal 0.000000000000e+00 0.000000000000e+00 1.000000000000e+00
    outer loop
      vertex 3.238289343483e-01 6.231272515972e-02 2.200000000000e-01
      vertex 2.777514574668e-01 2.714013306311e-02 2.200000000000e-01
      vertex 2.825726696549e-01 3.002634460035e-02 2.200000000000e-01
    endloop
  endfacet
  facet normal 0.000000000000e+00 0.000000000000e+00 1.000000000000e+00
    outer loop
      vertex 3.238289343483e-01 6.231272515972e-02 2.200000000000e-01
      vertex 2.825726696549e-01 3.002634460035e-02 2.200000000000e-01
      vertex 2.873430887457e-01 3.306263472123e-02 2.200000000000e-01
    endloop
  endfacet
  facet normal 0.000000000000e+00 0.000000000000e+00 1.000000000000e+00
    outer loop
      vertex 3.238289343483e-01 6.231272515972e-02 2.200000000000e-01
      vertex 2.873430887457e-01 3.306263472123e-02 2.200000000000e-01
      vertex 2.920184427657e-01 3.618819427874e-02 2.200000000000e-01
    endloop
  endfacet
  facet normal 0.000000000000e+00 0.000000000000e+00 1.000000000000e+00
    outer loop
      vertex 3.238289343483e-01 6.231272515972e-02 2.200000000000e-01
      vertex 2.920184427657e-01 3.618819427874e-02 2.200000000000e-01
      vertex 2.965492320098e-01 3.933903437387e-02 2.200000000000e-01
    endloop
  endfacet
  facet normal 0.000000000000e+00 0.000000000000e+00 1.000000000000e+00
    outer loop
      vertex 3.238289343483e-01 6.231272515972e-02 2.200000000000e-01
      vertex 2.965492320098e-01 3.933903437387e-02 2.200000000000e-01
      vertex 3.008843150764e-01 4.245567663216e-02 2.200000000000e-01
    endloop
  endfacet
  facet normal 0.000000000000e+00 0.000000000000e+00 1.000000000000e+00
    outer loop
      vertex 3.238289343483e-01 6.231272515972e-02 2.200000000000e-01
      vertex 3.008843150764e-01 4.245567663216e-02 2.200000000000e-01
      vertex 3.049704984427e-01 4.548428083491e-02 2.200000000000e-01
    endloop
  endfacet
  facet normal 0.000000000000e+00 0.000000000000e+00 1.000000000000e+00
    outer loop
      vertex 3.238289343483e-01 6.231272515972e-02 2.200000000000e-01
      vertex 3.049704984427e-01 4.548428083491e-02 2.200000000000e-01
      vertex 3.087530505308e-01 4.837172397036e-02 2.200000000000e-01
    endloop
  endfacet
  facet normal 0.000000000000e+00 0.000000000000e+00 1.000000000000e+00
    outer loop
      vertex 3.238289343483e-01 6.231272515972e-02 2.200000000000e-01
      vertex 3.087530505308e-01 4.837172397036e-02 2.200000000000e-01
      vertex 3.121759048490e-01 5.107205923782e-02 2.200000000000e-01
    endloop
  endfacet
  facet normal 0.000000000000e+00 0.000000000000e+00 1.000000000000e+00
    outer loop
      vertex 3.121759048490e-01 5.107205923782e-02 2.200000000000e-01
      vertex 3.151861705160e-01 5.354815774431e-02 2.200000000000e-01
      vertex 3.177248002882e-01 5.577980506403e-02 2.200000000000e-01
    endloop
  endfacet
  facet normal 0.000000000000e+00 0.000000000000e+00 1.000000000000e+00
    outer loop
      vertex 3.121759048490e-01 5.107205923782e-02 2.200000000000e-01
      vertex 3.177248002882e-01 5.577980506403e-02 2.200000000000e-01
      vertex 3.197656430839e-01 5.779323935482e-02 2.200000000000e-01
    endloop
  endfacet
  facet normal 0.000000000000e+00 0.000000000000e+00 1.000000000000e+00
    outer loop
      vertex 3.121759048490e-01 5.107205923782e-02 2.200000000000e-01
      vertex 3.197656430839e-01 5.779323935482e-02 2.200000000000e-01
      vertex 3.213773890442e-01 5.958919853019e-02 2.200000000000e-01
    endloop
  endfacet
  facet normal 0.000000000000e+00 0.000000000000e+00 1.000000000000e+00
    outer loop
      vertex 3.121759048490e-01 5.107205923782e-02 2.200000000000e-01
      vertex 3.213773890442e-01 5.958919853019e-02 2.200000000000e-01
      vertex 3.226365553585e-01 6.104867603695e-02 2.200000000000e-01
    endloop
  endfacet
  facet normal 0.000000000000e+00 0.000000000000e+00 1.000000000000e+00
    outer loop
      vertex 3.121759048490e-01 5.107205923782e-02 2.200000000000e-01
      vertex 3.226365553585e-01 6.104867603695e-02 2.200000000000e-01
      vertex 3.235051590466e-01 6.199183546834e-02 2.200000000000e-01
    endloop
  endfacet
  facet normal 0.000000000000e+00 0.000000000000e+00 1.000000000000e+00
    outer loop
      vertex 3.121759048490e-01 5.107205923782e-02 2.200000000000e-01
      vertex 3.235051590466e-01 6.199183546834e-02 2.200000000000e-01
      vertex 3.238289343483e-01 6.231272515972e-02 2.200000000000e-01
    endloop
  endfacet
  facet normal -5.642695855226e-01 8.255905976052e-01 0.000000000000e+00
    outer loop
      vertex 3.234540881557e-01 6.204092889055e-02 -2.000000000000e-02
      vertex 3.223189780497e-01 6.126511081448e-02 -2.000000000000e-02
      vertex 3.223189780497e-01 6.126511081448e-02 2.200000000000e-01
    endloop
  endfacet
  facet normal -5.642695855226e-01 8.255905976052e-01 0.000000000000e+00
    outer loop
      vertex 3.234540881557e-01 6.204092889055e-02 -2.000000000000e-02
      vertex 3.223189780497e-01 6.126511081448e-02 2.200000000000e-01
      vertex 3.234540881557e-01 6.204092889055e-02 2.200000000000e-01
    endloop
  endfacet
  facet normal -5.368435688014e-01 8.436818017693e-01 0.000000000000e+00
    outer loop
      vertex 3.223189780497e-01 6.126511081448e-02 -2.000000000000e-02
      vertex 3.204246073134e-01 6.005970286969e-02 -2.000000000000e-02
      vertex 3.204246073134e-01 6.005970286969e-02 2.200000000000e-01
    endloop
  endfacet
  facet normal -5.368435688014e-01 8.436818017693e-01 0.000000000000e+00
    outer loop
      vertex 3.223189780497e-01 6.126511081448e-02 -2.000000000000e-02
      vertex 3.204246073134e-01 6.005970286969e-02 2.200000000000e-01
      vertex 3.223189780497e-01 6.126511081448e-02 2.200000000000e-01
    endloop
  endfacet
  facet normal -5.161949858258e-01 8.564710950220e-01 0.000000000000e+00
    outer loop
      vertex 3.204246073134e-01 6.005970286969e-02 -2.000000000000e-02
      vertex 3.177927989388e-01 5.847351240217e-02 -2.000000000000e-02
      vertex 3.177927989388e-01 5.847351240217e-02 2.200000000000e-01
    endloop
  endfacet
  facet normal -5.161949858258e-01 8.564710950220e-01 0.000000000000e+00
    outer loop
      vertex 3.204246073134e-01 6.005970286969e-02 -2.000000000000e-02
      vertex 3.177927989388e-01 5.847351240217e-02 2.200000000000e-01
      vertex 3.204246073134e-01 6.005970286969e-02 2.200000000000e-01
    endloop
  endfacet
  facet normal -4.998866042689e-01 8.660908629425e-01 0.000000000000e+00
    outer loop
      vertex 3.177927989388e-01 5.847351240217e-02 -2.000000000000e-02
      vertex 3.144506077907e-01 5.654448087060e-02 -2.000000000000e-02
      vertex 3.144506077907e-01 5.654448087060e-02 2.200000000000e-01
    endloop
  endfacet
  facet normal -4.998866042689e-01 8.660908629425e-01 0.000000000000e+00
    outer loop
      vertex 3.177927989388e-01 5.847351240217e-02 -2.000000000000e-02
      vertex 3.144506077907e-01 5.654448087060e-02 2.200000000000e-01
      vertex 3.177927989388e-01 5.847351240217e-02 2.200000000000e-01
    endloop
  endfacet
  facet normal -4.846404064074e-01 8.747134825057e-01 0.000000000000e+00
    outer loop
      vertex 3.144506077907e-01 5.654448087060e-02 -2.000000000000e-02
      vertex 3.104197573611e-01 5.431116329927e-02 -2.000000000000e-02
      vertex 3.104197573611e-01 5.431116329927e-02 2.200000000000e-01
    endloop
  endfacet
  facet normal -4.846404064074e-01 8.747134825057e-01 0.000000000000e+00
    outer loop
      vertex 3.144506077907e-01 5.654448087060e-02 -2.000000000000e-02
      vertex 3.104197573611e-01 5.431116329927e-02 2.200000000000e-01
      vertex 3.144506077907e-01 5.654448087060e-02 2.200000000000e-01
    endloop
  endfacet
  facet normal -4.674961914726e-01 8.839950853701e-01 0.000000000000e+00
    outer loop
      vertex 3.104197573611e-01 5.431116329927e-02 -2.000000000000e-02
      vertex 3.057260671011e-01 5.182892967960e-02 -2.000000000000e-02
      vertex 3.057260671011e-01 5.182892967960e-02 2.200000000000e-01
    endloop
  endfacet
  facet normal -4.674961914726e-01 8.839950853701e-01 0.000000000000e+00
    outer loop
      vertex 3.104197573611e-01 5.431116329927e-02 -2.000000000000e-02
      vertex 3.057260671011e-01 5.182892967960e-02 2.200000000000e-01
      vertex 3.104197573611e-01 5.431116329927e-02 2.200000000000e-01
    endloop
  endfacet
  facet normal -4.487037382489e-01 8.936805666912e-01 0.000000000000e+00
    outer loop
      vertex 3.057260671011e-01 5.182892967960e-02 -2.000000000000e-02
      vertex 3.004096052423e-01 4.915961314837e-02 -2.000000000000e-02
      vertex 3.004096052423e-01 4.915961314837e-02 2.200000000000e-01
    endloop
  endfacet
  facet normal -4.487037382489e-01 8.936805666912e-01 0.000000000000e+00
    outer loop
      vertex 3.057260671011e-01 5.182892967960e-02 -2.000000000000e-02
      vertex 3.004096052423e-01 4.915961314837e-02 2.200000000000e-01
      vertex 3.057260671011e-01 5.182892967960e-02 2.200000000000e-01
    endloop
  endfacet
  facet normal -4.272289687035e-01 9.041434666581e-01 0.000000000000e+00
    outer loop
      vertex 3.004096052423e-01 4.915961314837e-02 -2.000000000000e-02
      vertex 2.945158708894e-01 4.637468559846e-02 -2.000000000000e-02
      vertex 2.945158708894e-01 4.637468559846e-02 2.200000000000e-01
    endloop
  endfacet
  facet normal -4.272289687035e-01 9.041434666581e-01 0.000000000000e+00
    outer loop
      vertex 3.004096052423e-01 4.915961314837e-02 -2.000000000000e-02
      vertex 2.945158708894e-01 4.637468559846e-02 2.200000000000e-01
      vertex 3.004096052423e-01 4.915961314837e-02 2.200000000000e-01
    endloop
  endfacet
  facet normal -4.018050481824e-01 9.157252334926e-01 0.000000000000e+00
    outer loop
      vertex 2.945158708894e-01 4.637468559846e-02 -2.000000000000e-02
      vertex 2.881148601084e-01 4.356602820732e-02 -2.000000000000e-02
      vertex 2.881148601084e-01 4.356602820732e-02 2.200000000000e-01
    endloop
  endfacet
  facet normal -4.018050481824e-01 9.157252334926e-01 0.000000000000e+00
    outer loop
      vertex 2.945158708894e-01 4.637468559846e-02 -2.000000000000e-02
      vertex 2.881148601084e-01 4.356602820732e-02 2.200000000000e-01
      vertex 2.945158708894e-01 4.637468559846e-02 2.200000000000e-01
    endloop
  endfacet
  facet normal -3.746973900629e-01 9.271471651685e-01 0.000000000000e+00
    outer loop
      vertex 2.881148601084e-01 4.356602820732e-02 -2.000000000000e-02
      vertex 2.813117369544e-01 4.081661302727e-02 -2.000000000000e-02
      vertex 2.813117369544e-01 4.081661302727e-02 2.200000000000e-01
    endloop
  endfacet
  facet normal -3.746973900629e-01 9.271471651685e-01 0.000000000000e+00
    outer loop
      vertex 2.881148601084e-01 4.356602820732e-02 -2.000000000000e-02
      vertex 2.813117369544e-01 4.081661302727e-02 2.200000000000e-01
      vertex 2.881148601084e-01 4.356602820732e-02 2.200000000000e-01
    endloop
  endfacet
  facet normal -3.487190900373e-01 9.372272916660e-01 0.000000000000e+00
    outer loop
      vertex 2.813117369544e-01 4.081661302727e-02 -2.000000000000e-02
      vertex 2.742216193044e-01 3.817855564552e-02 -2.000000000000e-02
      vertex 2.742216193044e-01 3.817855564552e-02 2.200000000000e-01
    endloop
  endfacet
  facet normal -3.487190900373e-01 9.372272916660e-01 0.000000000000e+00
    outer loop
      vertex 2.813117369544e-01 4.081661302727e-02 -2.000000000000e-02
      vertex 2.742216193044e-01 3.817855564552e-02 2.200000000000e-01
      vertex 2.813117369544e-01 4.081661302727e-02 2.200000000000e-01
    endloop
  endfacet
  facet normal -3.222994312392e-01 9.466377747707e-01 0.000000000000e+00
    outer loop
      vertex 2.742216193044e-01 3.817855564552e-02 -2.000000000000e-02
      vertex 2.669407620886e-01 3.569966012482e-02 -2.000000000000e-02
      vertex 2.669407620886e-01 3.569966012482e-02 2.200000000000e-01
    endloop
  endfacet
  facet normal -3.222994312392e-01 9.466377747707e-01 0.000000000000e+00
    outer loop
      vertex 2.742216193044e-01 3.817855564552e-02 -2.000000000000e-02
      vertex 2.669407620886e-01 3.569966012482e-02 2.200000000000e-01
      vertex 2.742216193044e-01 3.817855564552e-02 2.200000000000e-01
    endloop
  endfacet
  facet normal -2.913839079843e-01 9.566061980605e-01 0.000000000000e+00
    outer loop
      vertex 2.669407620886e-01 3.569966012482e-02 -2.000000000000e-02
      vertex 2.595628499094e-01 3.345233527170e-02 -2.000000000000e-02
      vertex 2.595628499094e-01 3.345233527170e-02 2.200000000000e-01
    endloop
  endfacet
  facet normal -2.913839079843e-01 9.566061980605e-01 0.000000000000e+00
    outer loop
      vertex 2.669407620886e-01 3.569966012482e-02 -2.000000000000e-02
      vertex 2.595628499094e-01 3.345233527170e-02 2.200000000000e-01
      vertex 2.669407620886e-01 3.569966012482e-02 2.200000000000e-01
    endloop
  endfacet
  facet normal -2.517950025414e-01 9.677805932623e-01 0.000000000000e+00
    outer loop
      vertex 2.595628499094e-01 3.345233527170e-02 -2.000000000000e-02
      vertex 2.522299477257e-01 3.154447708895e-02 -2.000000000000e-02
      vertex 2.522299477257e-01 3.154447708895e-02 2.200000000000e-01
    endloop
  endfacet
  facet normal -2.517950025414e-01 9.677805932623e-01 0.000000000000e+00
    outer loop
      vertex 2.595628499094e-01 3.345233527170e-02 -2.000000000000e-02
      vertex 2.522299477257e-01 3.154447708895e-02 2.200000000000e-01
      vertex 2.595628499094e-01 3.345233527170e-02 2.200000000000e-01
    endloop
  endfacet
  facet normal -2.105815493663e-01 9.775762942433e-01 0.000000000000e+00
    outer loop
      vertex 2.522299477257e-01 3.154447708895e-02 -2.000000000000e-02
      vertex 2.451640040145e-01 3.002238885583e-02 -2.000000000000e-02
      vertex 2.451640040145e-01 3.002238885583e-02 2.200000000000e-01
    endloop
  endfacet
  facet normal -2.105815493663e-01 9.775762942433e-01 0.000000000000e+00
    outer loop
      vertex 2.522299477257e-01 3.154447708895e-02 -2.000000000000e-02
      vertex 2.451640040145e-01 3.002238885583e-02 2.200000000000e-01
      vertex 2.522299477257e-01 3.154447708895e-02 2.200000000000e-01
    endloop
  endfacet
  facet normal -1.769800812169e-01 9.842144333693e-01 0.000000000000e+00
    outer loop
      vertex 2.451640040145e-01 3.002238885583e-02 -2.000000000000e-02
      vertex 2.401348099333e-01 2.911804611631e-02 -2.000000000000e-02
      vertex 2.401348099333e-01 2.911804611631e-02 2.200000000000e-01
    endloop
  endfacet
  facet normal -1.769800812169e-01 9.842144333693e-01 0.000000000000e+00
    outer loop
      vertex 2.451640040145e-01 3.002238885583e-02 -2.000000000000e-02
      vertex 2.401348099333e-01 2.911804611631e-02 2.200000000000e-01
      vertex 2.451640040145e-01 3.002238885583e-02 2.200000000000e-01
    endloop
  endfacet
  facet normal -1.769800812157e-01 9.842144333695e-01 0.000000000000e+00
    outer loop
      vertex 2.401348099333e-01 2.911804611631e-02 -2.000000000000e-02
      vertex 2.385622878564e-01 2.883527736649e-02 -2.000000000000e-02
      vertex 2.385622878564e-01 2.883527736649e-02 2.200000000000e-01
    endloop
  endfacet
  facet normal -1.769800812157e-01 9.842144333695e-01 0.000000000000e+00
    outer loop
      vertex 2.401348099333e-01 2.911804611631e-02 -2.000000000000e-02
      vertex 2.385622878564e-01 2.883527736649e-02 2.200000000000e-01
      vertex 2.401348099333e-01 2.911804611631e-02 2.200000000000e-01
    endloop
  endfacet
  facet normal -1.513193781836e-01 9.884849244101e-01 0.000000000000e+00
    outer loop
      vertex 2.385622878564e-01 2.883527736649e-02 -2.000000000000e-02
      vertex 2.325613793919e-01 2.791664551388e-02 -2.000000000000e-02
      vertex 2.325613793919e-01 2.791664551388e-02 2.200000000000e-01
    endloop
  endfacet
  facet normal -1.513193781836e-01 9.884849244101e-01 0.000000000000e+00
    outer loop
      vertex 2.385622878564e-01 2.883527736649e-02 -2.000000000000e-02
      vertex 2.325613793919e-01 2.791664551388e-02 2.200000000000e-01
      vertex 2.385622878564e-01 2.883527736649e-02 2.200000000000e-01
    endloop
  endfacet
  facet normal -1.389375726255e-01 9.903011415286e-01 0.000000000000e+00
    outer loop
      vertex 2.325613793919e-01 2.791664551388e-02 -2.000000000000e-02
      vertex 2.272859730256e-01 2.717651493702e-02 -2.000000000000e-02
      vertex 2.272859730256e-01 2.717651493702e-02 2.200000000000e-01
    endloop
  endfacet
  facet normal -1.389375726255e-01 9.903011415286e-01 0.000000000000e+00
    outer loop
      vertex 2.325613793919e-01 2.791664551388e-02 -2.000000000000e-02
      vertex 2.272859730256e-01 2.717651493702e-02 2.200000000000e-01
      vertex 2.325613793919e-01 2.791664551388e-02 2.200000000000e-01
    endloop
  endfacet
  facet normal -1.523689351110e-01 9.883236856482e-01 0.000000000000e+00
    outer loop
      vertex 2.272859730256e-01 2.717651493702e-02 -2.000000000000e-02
      vertex 2.227939302833e-01 2.648398092304e-02 -2.000000000000e-02
      vertex 2.227939302833e-01 2.648398092304e-02 2.200000000000e-01
    endloop
  endfacet
  facet normal -1.523689351110e-01 9.883236856482e-01 0.000000000000e+00
    outer loop
      vertex 2.272859730256e-01 2.717651493702e-02 -2.000000000000e-02
      vertex 2.227939302833e-01 2.648398092304e-02 2.200000000000e-01
      vertex 2.272859730256e-01 2.717651493702e-02 2.200000000000e-01
    endloop
  endfacet
  facet normal -1.910690790421e-01 9.815765925459e-01 0.000000000000e+00
    outer loop
      vertex 2.227939302833e-01 2.648398092304e-02 -2.000000000000e-02
      vertex 2.190529809923e-01 2.575578534340e-02 -2.000000000000e-02
      vertex 2.190529809923e-01 2.575578534340e-02 2.200000000000e-01
    endloop
  endfacet
  facet normal -1.910690790421e-01 9.815765925459e-01 0.000000000000e+00
    outer loop
      vertex 2.227939302833e-01 2.648398092304e-02 -2.000000000000e-02
      vertex 2.190529809923e-01 2.575578534340e-02 2.200000000000e-01
      vertex 2.227939302833e-01 2.648398092304e-02 2.200000000000e-01
    endloop
  endfacet
  facet normal -2.514940748110e-01 9.678588380208e-01 0.000000000000e+00
    outer loop
      vertex 2.190529809923e-01 2.575578534340e-02 -2.000000000000e-02
      vertex 2.160359625051e-01 2.497182569629e-02 -2.000000000000e-02
      vertex 2.160359625051e-01 2.497182569629e-02 2.200000000000e-01
    endloop
  endfacet
  facet normal -2.514940748110e-01 9.678588380208e-01 0.000000000000e+00
    outer loop
      vertex 2.190529809923e-01 2.575578534340e-02 -2.000000000000e-02
      vertex 2.160359625051e-01 2.497182569629e-02 2.200000000000e-01
      vertex 2.190529809923e-01 2.575578534340e-02 2.200000000000e-01
    endloop
  endfacet
  facet normal -3.406479662909e-01 9.401909184107e-01 0.000000000000e+00
    outer loop
      vertex 2.160359625051e-01 2.497182569629e-02 -2.000000000000e-02
      vertex 2.137174492298e-01 2.413178691628e-02 -2.000000000000e-02
      vertex 2.137174492298e-01 2.413178691628e-02 2.200000000000e-01
    endloop
  endfacet
  facet normal -3.406479662909e-01 9.401909184107e-01 0.000000000000e+00
    outer loop
      vertex 2.160359625051e-01 2.497182569629e-02 -2.000000000000e-02
      vertex 2.137174492298e-01 2.413178691628e-02 2.200000000000e-01
      vertex 2.160359625051e-01 2.497182569629e-02 2.200000000000e-01
    endloop
  endfacet
  facet normal -4.719602832997e-01 8.816198109092e-01 0.000000000000e+00
    outer loop
      vertex 2.137174492298e-01 2.413178691628e-02 -2.000000000000e-02
      vertex 2.120854393651e-01 2.325811798491e-02 -2.000000000000e-02
      vertex 2.120854393651e-01 2.325811798491e-02 2.200000000000e-01
    endloop
  endfacet
  facet normal -4.719602832997e-01 8.816198109092e-01 0.000000000000e+00
    outer loop
      vertex 2.137174492298e-01 2.413178691628e-02 -2.000000000000e-02
      vertex 2.120854393651e-01 2.325811798491e-02 2.200000000000e-01
      vertex 2.137174492298e-01 2.413178691628e-02 2.200000000000e-01
    endloop
  endfacet
  facet normal -5.951575940123e-01 8.036090083427e-01 0.000000000000e+00
    outer loop
      vertex 2.120854393651e-01 2.325811798491e-02 -2.000000000000e-02
      vertex 2.117836777729e-01 2.303463156141e-02 -2.000000000000e-02
      vertex 2.117836777729e-01 2.303463156141e-02 2.200000000000e-01
    endloop
  endfacet
  facet normal -5.951575940123e-01 8.036090083427e-01 0.000000000000e+00
    outer loop
      vertex 2.120854393651e-01 2.325811798491e-02 -2.000000000000e-02
      vertex 2.117836777729e-01 2.303463156141e-02 2.200000000000e-01
      vertex 2.120854393651e-01 2.325811798491e-02 2.200000000000e-01
    endloop
  endfacet
  facet normal -6.549404752705e-01 7.556804707365e-01 0.000000000000e+00
    outer loop
      vertex 2.117836777729e-01 2.303463156141e-02 -2.000000000000e-02
      vertex 2.114788524940e-01 2.277044263401e-02 -2.000000000000e-02
      vertex 2.114788524940e-01 2.277044263401e-02 2.200000000000e-01
    endloop
  endfacet
  facet normal -6.549404752705e-01 7.556804707365e-01 0.000000000000e+00
    outer loop
      vertex 2.117836777729e-01 2.303463156141e-02 -2.000000000000e-02
      vertex 2.114788524940e-01 2.277044263401e-02 2.200000000000e-01
      vertex 2.117836777729e-01 2.303463156141e-02 2.200000000000e-01
    endloop
  endfacet
  facet normal -7.199880679026e-01 6.939864422868e-01 0.000000000000e+00
    outer loop
      vertex 2.114788524940e-01 2.277044263401e-02 -2.000000000000e-02
      vertex 2.113119962151e-01 2.259733474230e-02 -2.000000000000e-02
      vertex 2.113119962151e-01 2.259733474230e-02 2.200000000000e-01
    endloop
  endfacet
  facet normal -7.199880679026e-01 6.939864422868e-01 0.000000000000e+00
    outer loop
      vertex 2.114788524940e-01 2.277044263401e-02 -2.000000000000e-02
      vertex 2.113119962151e-01 2.259733474230e-02 2.200000000000e-01
      vertex 2.114788524940e-01 2.277044263401e-02 2.200000000000e-01
    endloop
  endfacet
  facet normal -7.808704595115e-01 6.246929849632e-01 0.000000000000e+00
    outer loop
      vertex 2.113119962151e-01 2.259733474230e-02 -2.000000000000e-02
      vertex 2.111750760528e-01 2.242618361270e-02 -2.000000000000e-02
      vertex 2.111750760528e-01 2.242618361270e-02 2.200000000000e-01
    endloop
  endfacet
  facet normal -7.808704595115e-01 6.246929849632e-01 0.000000000000e+00
    outer loop
      vertex 2.113119962151e-01 2.259733474230e-02 -2.000000000000e-02
      vertex 2.111750760528e-01 2.242618361270e-02 2.200000000000e-01
      vertex 2.113119962151e-01 2.259733474230e-02 2.200000000000e-01
    endloop
  endfacet
  facet normal -8.413049260290e-01 5.405608397206e-01 0.000000000000e+00
    outer loop
      vertex 2.111750760528e-01 2.242618361270e-02 -2.000000000000e-02
      vertex 2.111204563989e-01 2.234117600478e-02 -2.000000000000e-02
      vertex 2.111204563989e-01 2.234117600478e-02 2.200000000000e-01
    endloop
  endfacet
  facet normal -8.413049260290e-01 5.405608397206e-01 0.000000000000e+00
    outer loop
      vertex 2.111750760528e-01 2.242618361270e-02 -2.000000000000e-02
      vertex 2.111204563989e-01 2.234117600478e-02 2.200000000000e-01
      vertex 2.111750760528e-01 2.242618361270e-02 2.200000000000e-01
    endloop
  endfacet
  facet normal -8.738942824840e-01 4.861160180881e-01 0.000000000000e+00
    outer loop
      vertex 2.111204563989e-01 2.234117600478e-02 -2.000000000000e-02
      vertex 2.110741405871e-01 2.225791373493e-02 -2.000000000000e-02
      vertex 2.110741405871e-01 2.225791373493e-02 2.200000000000e-01
    endloop
  endfacet
  facet normal -8.738942824840e-01 4.861160180881e-01 0.000000000000e+00
    outer loop
      vertex 2.111204563989e-01 2.234117600478e-02 -2.000000000000e-02
      vertex 2.110741405871e-01 2.225791373493e-02 2.200000000000e-01
      vertex 2.111204563989e-01 2.234117600478e-02 2.200000000000e-01
    endloop
  endfacet
  facet normal -9.180079738204e-01 3.965619245491e-01 0.000000000000e+00
    outer loop
      vertex 2.110741405871e-01 2.225791373493e-02 -2.000000000000e-02
      vertex 2.110387943040e-01 2.217609002033e-02 -2.000000000000e-02
      vertex 2.110387943040e-01 2.217609002033e-02 2.200000000000e-01
    endloop
  endfacet
  facet normal -9.180079738204e-01 3.965619245491e-01 0.000000000000e+00
    outer loop
      vertex 2.110741405871e-01 2.225791373493e-02 -2.000000000000e-02
      vertex 2.110387943040e-01 2.217609002033e-02 2.200000000000e-01
      vertex 2.110741405871e-01 2.225791373493e-02 2.200000000000e-01
    endloop
  endfacet
  facet normal -9.651047606848e-01 2.618640886099e-01 0.000000000000e+00
    outer loop
      vertex 2.110387943040e-01 2.217609002033e-02 -2.000000000000e-02
      vertex 2.110153420393e-01 2.208965628109e-02 -2.000000000000e-02
      vertex 2.110153420393e-01 2.208965628109e-02 2.200000000000e-01
    endloop
  endfacet
  facet normal -9.651047606848e-01 2.618640886099e-01 0.000000000000e+00
    outer loop
      vertex 2.110387943040e-01 2.217609002033e-02 -2.000000000000e-02
      vertex 2.110153420393e-01 2.208965628109e-02 2.200000000000e-01
      vertex 2.110387943040e-01 2.217609002033e-02 2.200000000000e-01
    endloop
  endfacet
  facet normal -9.869254201395e-01 1.611775886482e-01 0.000000000000e+00
    outer loop
      vertex 2.110153420393e-01 2.208965628109e-02 -2.000000000000e-02
      vertex 2.110007076823e-01 2.200004693116e-02 -2.000000000000e-02
      vertex 2.110007076823e-01 2.200004693116e-02 2.200000000000e-01
    endloop
  endfacet
  facet normal -9.869254201395e-01 1.611775886482e-01 0.000000000000e+00
    outer loop
      vertex 2.110153420393e-01 2.208965628109e-02 -2.000000000000e-02
      vertex 2.110007076823e-01 2.200004693116e-02 2.200000000000e-01
      vertex 2.110153420393e-01 2.208965628109e-02 2.200000000000e-01
    endloop
  endfacet
  facet normal -9.976095053971e-01 6.910336273588e-02 0.000000000000e+00
    outer loop
      vertex 2.110007076823e-01 2.200004693116e-02 -2.000000000000e-02
      vertex 2.109941740260e-01 2.190572391522e-02 -2.000000000000e-02
      vertex 2.109941740260e-01 2.190572391522e-02 2.200000000000e-01
    endloop
  endfacet
  facet normal -9.976095053971e-01 6.910336273588e-02 0.000000000000e+00
    outer loop
      vertex 2.110007076823e-01 2.200004693116e-02 -2.000000000000e-02
      vertex 2.109941740260e-01 2.190572391522e-02 2.200000000000e-01
      vertex 2.110007076823e-01 2.200004693116e-02 2.200000000000e-01
    endloop
  endfacet
  facet normal -9.998748418999e-01 -1.582088921647e-02 0.000000000000e+00
    outer loop
      vertex 2.109941740260e-01 2.190572391522e-02 -2.000000000000e-02
      vertex 2.109973081150e-01 2.170765055132e-02 -2.000000000000e-02
      vertex 2.109973081150e-01 2.170765055132e-02 2.200000000000e-01
    endloop
  endfacet
  facet normal -9.998748418999e-01 -1.582088921647e-02 0.000000000000e+00
    outer loop
      vertex 2.109941740260e-01 2.190572391522e-02 -2.000000000000e-02
      vertex 2.109973081150e-01 2.170765055132e-02 2.200000000000e-01
      vertex 2.109941740260e-01 2.190572391522e-02 2.200000000000e-01
    endloop
  endfacet
  facet normal -9.916715216534e-01 -1.287928303190e-01 0.000000000000e+00
    outer loop
      vertex 2.109973081150e-01 2.170765055132e-02 -2.000000000000e-02
      vertex 2.110242302407e-01 2.150035713815e-02 -2.000000000000e-02
      vertex 2.110242302407e-01 2.150035713815e-02 2.200000000000e-01
    endloop
  endfacet
  facet normal -9.916715216534e-01 -1.287928303190e-01 0.000000000000e+00
    outer loop
      vertex 2.109973081150e-01 2.170765055132e-02 -2.000000000000e-02
      vertex 2.110242302407e-01 2.150035713815e-02 2.200000000000e-01
      vertex 2.109973081150e-01 2.170765055132e-02 2.200000000000e-01
    endloop
  endfacet
  facet normal -9.840482279081e-01 -1.779018975476e-01 0.000000000000e+00
    outer loop
      vertex 2.110242302407e-01 2.150035713815e-02 -2.000000000000e-02
      vertex 2.110658198540e-01 2.127030796064e-02 -2.000000000000e-02
      vertex 2.110658198540e-01 2.127030796064e-02 2.200000000000e-01
    endloop
  endfacet
  facet normal -9.840482279081e-01 -1.779018975476e-01 0.000000000000e+00
    outer loop
      vertex 2.110242302407e-01 2.150035713815e-02 -2.000000000000e-02
      vertex 2.110658198540e-01 2.127030796064e-02 2.200000000000e-01
      vertex 2.110242302407e-01 2.150035713815e-02 2.200000000000e-01
    endloop
  endfacet
  facet normal -9.316788472371e-01 -3.632829828261e-01 0.000000000000e+00
    outer loop
      vertex 2.110658198540e-01 2.127030796064e-02 -2.000000000000e-02
      vertex 2.111041924434e-01 2.117189726823e-02 -2.000000000000e-02
      vertex 2.111041924434e-01 2.117189726823e-02 2.200000000000e-01
    endloop
  endfacet
  facet normal -9.316788472371e-01 -3.632829828261e-01 0.000000000000e+00
    outer loop
      vertex 2.110658198540e-01 2.127030796064e-02 -2.000000000000e-02
      vertex 2.111041924434e-01 2.117189726823e-02 2.200000000000e-01
      vertex 2.110658198540e-01 2.127030796064e-02 2.200000000000e-01
    endloop
  endfacet
  facet normal -9.064156781057e-01 -4.223868114467e-01 0.000000000000e+00
    outer loop
      vertex 2.111041924434e-01 2.117189726823e-02 -2.000000000000e-02
      vertex 2.115066445125e-01 2.030826030045e-02 -2.000000000000e-02
      vertex 2.115066445125e-01 2.030826030045e-02 2.200000000000e-01
    endloop
  endfacet
  facet normal -9.064156781057e-01 -4.223868114467e-01 0.000000000000e+00
    outer loop
      vertex 2.111041924434e-01 2.117189726823e-02 -2.000000000000e-02
      vertex 2.115066445125e-01 2.030826030045e-02 2.200000000000e-01
      vertex 2.111041924434e-01 2.117189726823e-02 2.200000000000e-01
    endloop
  endfacet
  facet normal -7.808537482093e-01 -6.247138736314e-01 0.000000000000e+00
    outer loop
      vertex 2.115066445125e-01 2.030826030045e-02 -2.000000000000e-02
      vertex 2.124672282267e-01 1.910759000101e-02 -2.000000000000e-02
      vertex 2.124672282267e-01 1.910759000101e-02 2.200000000000e-01
    endloop
  endfacet
  facet normal -7.808537482093e-01 -6.247138736314e-01 0.000000000000e+00
    outer loop
      vertex 2.115066445125e-01 2.030826030045e-02 -2.000000000000e-02
      vertex 2.124672282267e-01 1.910759000101e-02 2.200000000000e-01
      vertex 2.115066445125e-01 2.030826030045e-02 2.200000000000e-01
    endloop
  endfacet
  facet normal -6.361100567902e-01 -7.715983382890e-01 0.000000000000e+00
    outer loop
      vertex 2.124672282267e-01 1.910759000101e-02 -2.000000000000e-02
      vertex 2.138921306029e-01 1.793289238114e-02 -2.000000000000e-02
      vertex 2.138921306029e-01 1.793289238114e-02 2.200000000000e-01
    endloop
  endfacet
  facet normal -6.361100567902e-01 -7.715983382890e-01 0.000000000000e+00
    outer loop
      vertex 2.124672282267e-01 1.910759000101e-02 -2.000000000000e-02
      vertex 2.138921306029e-01 1.793289238114e-02 2.200000000000e-01
      vertex 2.124672282267e-01 1.910759000101e-02 2.200000000000e-01
    endloop
  endfacet
  facet normal -5.036075253316e-01 -8.639325554865e-01 0.000000000000e+00
    outer loop
      vertex 2.138921306029e-01 1.793289238114e-02 -2.000000000000e-02
      vertex 2.157707759715e-01 1.683778381157e-02 -2.000000000000e-02
      vertex 2.157707759715e-01 1.683778381157e-02 2.200000000000e-01
    endloop
  endfacet
  facet normal -5.036075253316e-01 -8.639325554865e-01 0.000000000000e+00
    outer loop
      vertex 2.138921306029e-01 1.793289238114e-02 -2.000000000000e-02
      vertex 2.157707759715e-01 1.683778381157e-02 2.200000000000e-01
      vertex 2.138921306029e-01 1.793289238114e-02 2.200000000000e-01
    endloop
  endfacet
  facet normal -3.879534766965e-01 -9.216789570773e-01 0.000000000000e+00
    outer loop
      vertex 2.157707759715e-01 1.683778381157e-02 -2.000000000000e-02
      vertex 2.180811092098e-01 1.586531741724e-02 -2.000000000000e-02
      vertex 2.180811092098e-01 1.586531741724e-02 2.200000000000e-01
    endloop
  endfacet
  facet normal -3.879534766965e-01 -9.216789570773e-01 0.000000000000e+00
    outer loop
      vertex 2.157707759715e-01 1.683778381157e-02 -2.000000000000e-02
      vertex 2.180811092098e-01 1.586531741724e-02 2.200000000000e-01
      vertex 2.157707759715e-01 1.683778381157e-02 2.200000000000e-01
    endloop
  endfacet
  facet normal -2.868833586225e-01 -9.579655205410e-01 0.000000000000e+00
    outer loop
      vertex 2.180811092098e-01 1.586531741724e-02 -2.000000000000e-02
      vertex 2.208028205332e-01 1.505024248090e-02 -2.000000000000e-02
      vertex 2.208028205332e-01 1.505024248090e-02 2.200000000000e-01
    endloop
  endfacet
  facet normal -2.868833586225e-01 -9.579655205410e-01 0.000000000000e+00
    outer loop
      vertex 2.180811092098e-01 1.586531741724e-02 -2.000000000000e-02
      vertex 2.208028205332e-01 1.505024248090e-02 2.200000000000e-01
      vertex 2.180811092098e-01 1.586531741724e-02 2.200000000000e-01
    endloop
  endfacet
  facet normal -1.980224185942e-01 -9.801974911895e-01 0.000000000000e+00
    outer loop
      vertex 2.208028205332e-01 1.505024248090e-02 -2.000000000000e-02
      vertex 2.239096552188e-01 1.442259047798e-02 -2.000000000000e-02
      vertex 2.239096552188e-01 1.442259047798e-02 2.200000000000e-01
    endloop
  endfacet
  facet normal -1.980224185942e-01 -9.801974911895e-01 0.000000000000e+00
    outer loop
      vertex 2.208028205332e-01 1.505024248090e-02 -2.000000000000e-02
      vertex 2.239096552188e-01 1.442259047798e-02 2.200000000000e-01
      vertex 2.208028205332e-01 1.505024248090e-02 2.200000000000e-01
    endloop
  endfacet
  facet normal -1.195244364419e-01 -9.928312591237e-01 0.000000000000e+00
    outer loop
      vertex 2.239096552188e-01 1.442259047798e-02 -2.000000000000e-02
      vertex 2.273740277707e-01 1.400552345567e-02 -2.000000000000e-02
      vertex 2.273740277707e-01 1.400552345567e-02 2.200000000000e-01
    endloop
  endfacet
  facet normal -1.195244364419e-01 -9.928312591237e-01 0.000000000000e+00
    outer loop
      vertex 2.239096552188e-01 1.442259047798e-02 -2.000000000000e-02
      vertex 2.273740277707e-01 1.400552345567e-02 2.200000000000e-01
      vertex 2.239096552188e-01 1.442259047798e-02 2.200000000000e-01
    endloop
  endfacet
  facet normal -4.923701427814e-02 -9.987871226768e-01 0.000000000000e+00
    outer loop
      vertex 2.273740277707e-01 1.400552345567e-02 -2.000000000000e-02
      vertex 2.311593316444e-01 1.381892006778e-02 -2.000000000000e-02
      vertex 2.311593316444e-01 1.381892006778e-02 2.200000000000e-01
    endloop
  endfacet
  facet normal -4.923701427814e-02 -9.987871226768e-01 0.000000000000e+00
    outer loop
      vertex 2.273740277707e-01 1.400552345567e-02 -2.000000000000e-02
      vertex 2.311593316444e-01 1.381892006778e-02 2.200000000000e-01
      vertex 2.273740277707e-01 1.400552345567e-02 2.200000000000e-01
    endloop
  endfacet
  facet normal 1.454634650447e-02 -9.998941963045e-01 0.000000000000e+00
    outer loop
      vertex 2.311593316444e-01 1.381892006778e-02 -2.000000000000e-02
      vertex 2.352306019915e-01 1.387814844354e-02 -2.000000000000e-02
      vertex 2.352306019915e-01 1.387814844354e-02 2.200000000000e-01
    endloop
  endfacet
  facet normal 1.454634650447e-02 -9.998941963045e-01 0.000000000000e+00
    outer loop
      vertex 2.311593316444e-01 1.381892006778e-02 -2.000000000000e-02
      vertex 2.352306019915e-01 1.387814844354e-02 2.200000000000e-01
      vertex 2.311593316444e-01 1.381892006778e-02 2.200000000000e-01
    endloop
  endfacet
  facet normal 7.348063827860e-02 -9.972966438318e-01 0.000000000000e+00
    outer loop
      vertex 2.352306019915e-01 1.387814844354e-02 -2.000000000000e-02
      vertex 2.395461081772e-01 1.419611416716e-02 -2.000000000000e-02
      vertex 2.395461081772e-01 1.419611416716e-02 2.200000000000e-01
    endloop
  endfacet
  facet normal 7.348063827860e-02 -9.972966438318e-01 0.000000000000e+00
    outer loop
      vertex 2.352306019915e-01 1.387814844354e-02 -2.000000000000e-02
      vertex 2.395461081772e-01 1.419611416716e-02 2.200000000000e-01
      vertex 2.352306019915e-01 1.387814844354e-02 2.200000000000e-01
    endloop
  endfacet
  facet normal 1.286096950664e-01 -9.916952890555e-01 0.000000000000e+00
    outer loop
      vertex 2.395461081772e-01 1.419611416716e-02 -2.000000000000e-02
      vertex 2.440593022590e-01 1.478141543969e-02 -2.000000000000e-02
      vertex 2.440593022590e-01 1.478141543969e-02 2.200000000000e-01
    endloop
  endfacet
  facet normal 1.286096950664e-01 -9.916952890555e-01 0.000000000000e+00
    outer loop
      vertex 2.395461081772e-01 1.419611416716e-02 -2.000000000000e-02
      vertex 2.440593022590e-01 1.478141543969e-02 2.200000000000e-01
      vertex 2.395461081772e-01 1.419611416716e-02 2.200000000000e-01
    endloop
  endfacet
  facet normal 1.820641311667e-01 -9.832866581738e-01 0.000000000000e+00
    outer loop
      vertex 2.440593022590e-01 1.478141543969e-02 -2.000000000000e-02
      vertex 2.452712414224e-01 1.500581658351e-02 -2.000000000000e-02
      vertex 2.452712414224e-01 1.500581658351e-02 2.200000000000e-01
    endloop
  endfacet
  facet normal 1.820641311667e-01 -9.832866581738e-01 0.000000000000e+00
    outer loop
      vertex 2.440593022590e-01 1.478141543969e-02 -2.000000000000e-02
      vertex 2.452712414224e-01 1.500581658351e-02 2.200000000000e-01
      vertex 2.440593022590e-01 1.478141543969e-02 2.200000000000e-01
    endloop
  endfacet
  facet normal 1.820641311245e-01 -9.832866581816e-01 0.000000000000e+00
    outer loop
      vertex 2.452712414224e-01 1.500581658351e-02 -2.000000000000e-02
      vertex 2.487228154463e-01 1.564490572446e-02 -2.000000000000e-02
      vertex 2.487228154463e-01 1.564490572446e-02 2.200000000000e-01
    endloop
  endfacet
  facet normal 1.820641311245e-01 -9.832866581816e-01 0.000000000000e+00
    outer loop
      vertex 2.452712414224e-01 1.500581658351e-02 -2.000000000000e-02
      vertex 2.487228154463e-01 1.564490572446e-02 2.200000000000e-01
      vertex 2.452712414224e-01 1.500581658351e-02 2.200000000000e-01
    endloop
  endfacet
  facet normal 2.359990312943e-01 -9.717532903099e-01 0.000000000000e+00
    outer loop
      vertex 2.487228154463e-01 1.564490572446e-02 -2.000000000000e-02
      vertex 2.534887648828e-01 1.680235943357e-02 -2.000000000000e-02
      vertex 2.534887648828e-01 1.680235943357e-02 2.200000000000e-01
    endloop
  endfacet
  facet normal 2.359990312943e-01 -9.717532903099e-01 0.000000000000e+00
    outer loop
      vertex 2.487228154463e-01 1.564490572446e-02 -2.000000000000e-02
      vertex 2.534887648828e-01 1.680235943357e-02 2.200000000000e-01
      vertex 2.487228154463e-01 1.564490572446e-02 2.200000000000e-01
    endloop
  endfacet
  facet normal 2.892426169763e-01 -9.572558218808e-01 0.000000000000e+00
    outer loop
      vertex 2.534887648828e-01 1.680235943357e-02 -2.000000000000e-02
      vertex 2.583231102101e-01 1.826309611636e-02 -2.000000000000e-02
      vertex 2.583231102101e-01 1.826309611636e-02 2.200000000000e-01
    endloop
  endfacet
  facet normal 2.892426169763e-01 -9.572558218808e-01 0.000000000000e+00
    outer loop
      vertex 2.534887648828e-01 1.680235943357e-02 -2.000000000000e-02
      vertex 2.583231102101e-01 1.826309611636e-02 2.200000000000e-01
      vertex 2.534887648828e-01 1.680235943357e-02 2.200000000000e-01
    endloop
  endfacet
  facet normal 3.411489027759e-01 -9.400092691749e-01 0.000000000000e+00
    outer loop
      vertex 2.583231102101e-01 1.826309611636e-02 -2.000000000000e-02
      vertex 2.631904802972e-01 2.002956589392e-02 -2.000000000000e-02
      vertex 2.631904802972e-01 2.002956589392e-02 2.200000000000e-01
    endloop
  endfacet
  facet normal 3.411489027759e-01 -9.400092691749e-01 0.000000000000e+00
    outer loop
      vertex 2.583231102101e-01 1.826309611636e-02 -2.000000000000e-02
      vertex 2.631904802972e-01 2.002956589392e-02 2.200000000000e-01
      vertex 2.583231102101e-01 1.826309611636e-02 2.200000000000e-01
    endloop
  endfacet
  facet normal 3.915833406043e-01 -9.201426451161e-01 0.000000000000e+00
    outer loop
      vertex 2.631904802972e-01 2.002956589392e-02 -2.000000000000e-02
      vertex 2.680623734414e-01 2.210288811477e-02 -2.000000000000e-02
      vertex 2.680623734414e-01 2.210288811477e-02 2.200000000000e-01
    endloop
  endfacet
  facet normal 3.915833406043e-01 -9.201426451161e-01 0.000000000000e+00
    outer loop
      vertex 2.631904802972e-01 2.002956589392e-02 -2.000000000000e-02
      vertex 2.680623734414e-01 2.210288811477e-02 2.200000000000e-01
      vertex 2.631904802972e-01 2.002956589392e-02 2.200000000000e-01
    endloop
  endfacet
  facet normal 4.396509208052e-01 -8.981687301589e-01 0.000000000000e+00
    outer loop
      vertex 2.680623734414e-01 2.210288811477e-02 -2.000000000000e-02
      vertex 2.729150057473e-01 2.447823718891e-02 -2.000000000000e-02
      vertex 2.729150057473e-01 2.447823718891e-02 2.200000000000e-01
    endloop
  endfacet
  facet normal 4.396509208052e-01 -8.981687301589e-01 0.000000000000e+00
    outer loop
      vertex 2.680623734414e-01 2.210288811477e-02 -2.000000000000e-02
      vertex 2.729150057473e-01 2.447823718891e-02 2.200000000000e-01
      vertex 2.680623734414e-01 2.210288811477e-02 2.200000000000e-01
    endloop
  endfacet
  facet normal 4.821756527250e-01 -8.760745629906e-01 0.000000000000e+00
    outer loop
      vertex 2.729150057473e-01 2.447823718891e-02 -2.000000000000e-02
      vertex 2.777514574668e-01 2.714013306311e-02 -2.000000000000e-02
      vertex 2.777514574668e-01 2.714013306311e-02 2.200000000000e-01
    endloop
  endfacet
  facet normal 4.821756527250e-01 -8.760745629906e-01 0.000000000000e+00
    outer loop
      vertex 2.729150057473e-01 2.447823718891e-02 -2.000000000000e-02
      vertex 2.777514574668e-01 2.714013306311e-02 2.200000000000e-01
      vertex 2.729150057473e-01 2.447823718891e-02 2.200000000000e-01
    endloop
  endfacet
  facet normal 5.136428716615e-01 -8.580040794725e-01 0.000000000000e+00
    outer loop
      vertex 2.777514574668e-01 2.714013306311e-02 -2.000000000000e-02
      vertex 2.825726696549e-01 3.002634460035e-02 -2.000000000000e-02
      vertex 2.825726696549e-01 3.002634460035e-02 2.200000000000e-01
    endloop
  endfacet
  facet normal 5.136428716615e-01 -8.580040794725e-01 0.000000000000e+00
    outer loop
      vertex 2.777514574668e-01 2.714013306311e-02 -2.000000000000e-02
      vertex 2.825726696549e-01 3.002634460035e-02 2.200000000000e-01
      vertex 2.777514574668e-01 2.714013306311e-02 2.200000000000e-01
    endloop
  endfacet
  facet normal 5.369470957502e-01 -8.436159175628e-01 0.000000000000e+00
    outer loop
      vertex 2.825726696549e-01 3.002634460035e-02 -2.000000000000e-02
      vertex 2.873430887457e-01 3.306263472123e-02 -2.000000000000e-02
      vertex 2.873430887457e-01 3.306263472123e-02 2.200000000000e-01
    endloop
  endfacet
  facet normal 5.369470957502e-01 -8.436159175628e-01 0.000000000000e+00
    outer loop
      vertex 2.825726696549e-01 3.002634460035e-02 -2.000000000000e-02
      vertex 2.873430887457e-01 3.306263472123e-02 2.200000000000e-01
      vertex 2.825726696549e-01 3.002634460035e-02 2.200000000000e-01
    endloop
  endfacet
  facet normal 5.557654147642e-01 -8.313391628884e-01 0.000000000000e+00
    outer loop
      vertex 2.873430887457e-01 3.306263472123e-02 -2.000000000000e-02
      vertex 2.920184427657e-01 3.618819427874e-02 -2.000000000000e-02
      vertex 2.920184427657e-01 3.618819427874e-02 2.200000000000e-01
    endloop
  endfacet
  facet normal 5.557654147642e-01 -8.313391628884e-01 0.000000000000e+00
    outer loop
      vertex 2.873430887457e-01 3.306263472123e-02 -2.000000000000e-02
      vertex 2.920184427657e-01 3.618819427874e-02 2.200000000000e-01
      vertex 2.873430887457e-01 3.306263472123e-02 2.200000000000e-01
    endloop
  endfacet
  facet normal 5.709407487651e-01 -8.209912675538e-01 0.000000000000e+00
    outer loop
      vertex 2.920184427657e-01 3.618819427874e-02 -2.000000000000e-02
      vertex 2.965492320098e-01 3.933903437387e-02 -2.000000000000e-02
      vertex 2.965492320098e-01 3.933903437387e-02 2.200000000000e-01
    endloop
  endfacet
  facet normal 5.709407487651e-01 -8.209912675538e-01 0.000000000000e+00
    outer loop
      vertex 2.920184427657e-01 3.618819427874e-02 -2.000000000000e-02
      vertex 2.965492320098e-01 3.933903437387e-02 2.200000000000e-01
      vertex 2.920184427657e-01 3.618819427874e-02 2.200000000000e-01
    endloop
  endfacet
  facet normal 5.837350026844e-01 -8.119442386279e-01 0.000000000000e+00
    outer loop
      vertex 2.965492320098e-01 3.933903437387e-02 -2.000000000000e-02
      vertex 3.008843150764e-01 4.245567663216e-02 -2.000000000000e-02
      vertex 3.008843150764e-01 4.245567663216e-02 2.200000000000e-01
    endloop
  endfacet
  facet normal 5.837350026844e-01 -8.119442386279e-01 0.000000000000e+00
    outer loop
      vertex 2.965492320098e-01 3.933903437387e-02 -2.000000000000e-02
      vertex 3.008843150764e-01 4.245567663216e-02 2.200000000000e-01
      vertex 2.965492320098e-01 3.933903437387e-02 2.200000000000e-01
    endloop
  endfacet
  facet normal 5.954562578237e-01 -8.033877301892e-01 0.000000000000e+00
    outer loop
      vertex 3.008843150764e-01 4.245567663216e-02 -2.000000000000e-02
      vertex 3.049704984427e-01 4.548428083491e-02 -2.000000000000e-02
      vertex 3.049704984427e-01 4.548428083491e-02 2.200000000000e-01
    endloop
  endfacet
  facet normal 5.954562578237e-01 -8.033877301892e-01 0.000000000000e+00
    outer loop
      vertex 3.008843150764e-01 4.245567663216e-02 -2.000000000000e-02
      vertex 3.049704984427e-01 4.548428083491e-02 2.200000000000e-01
      vertex 3.008843150764e-01 4.245567663216e-02 2.200000000000e-01
    endloop
  endfacet
  facet normal 6.067740620010e-01 -7.948743533936e-01 0.000000000000e+00
    outer loop
      vertex 3.049704984427e-01 4.548428083491e-02 -2.000000000000e-02
      vertex 3.087530505308e-01 4.837172397036e-02 -2.000000000000e-02
      vertex 3.087530505308e-01 4.837172397036e-02 2.200000000000e-01
    endloop
  endfacet
  facet normal 6.067740620010e-01 -7.948743533936e-01 0.000000000000e+00
    outer loop
      vertex 3.049704984427e-01 4.548428083491e-02 -2.000000000000e-02
      vertex 3.087530505308e-01 4.837172397036e-02 2.200000000000e-01
      vertex 3.049704984427e-01 4.548428083491e-02 2.200000000000e-01
    endloop
  endfacet
  facet normal 6.193732168783e-01 -7.850966935441e-01 0.000000000000e+00
    outer loop
      vertex 3.087530505308e-01 4.837172397036e-02 -2.000000000000e-02
      vertex 3.121759048490e-01 5.107205923782e-02 -2.000000000000e-02
      vertex 3.121759048490e-01 5.107205923782e-02 2.200000000000e-01
    endloop
  endfacet
  facet normal 6.193732168783e-01 -7.850966935441e-01 0.000000000000e+00
    outer loop
      vertex 3.087530505308e-01 4.837172397036e-02 -2.000000000000e-02
      vertex 3.121759048490e-01 5.107205923782e-02 2.200000000000e-01
      vertex 3.087530505308e-01 4.837172397036e-02 2.200000000000e-01
    endloop
  endfacet
  facet normal 6.352571089531e-01 -7.723007222090e-01 0.000000000000e+00
    outer loop
      vertex 3.121759048490e-01 5.107205923782e-02 -2.000000000000e-02
      vertex 3.151861705160e-01 5.354815774431e-02 -2.000000000000e-02
      vertex 3.151861705160e-01 5.354815774431e-02 2.200000000000e-01
    endloop
  endfacet
  facet normal 6.352571089531e-01 -7.723007222090e-01 0.000000000000e+00
    outer loop
      vertex 3.121759048490e-01 5.107205923782e-02 -2.000000000000e-02
      vertex 3.151861705160e-01 5.354815774431e-02 2.200000000000e-01
      vertex 3.121759048490e-01 5.107205923782e-02 2.200000000000e-01
    endloop
  endfacet
  facet normal 6.602365020453e-01 -7.510577616715e-01 0.000000000000e+00
    outer loop
      vertex 3.151861705160e-01 5.354815774431e-02 -2.000000000000e-02
      vertex 3.177248002882e-01 5.577980506403e-02 -2.000000000000e-02
      vertex 3.177248002882e-01 5.577980506403e-02 2.200000000000e-01
    endloop
  endfacet
  facet normal 6.602365020453e-01 -7.510577616715e-01 0.000000000000e+00
    outer loop
      vertex 3.151861705160e-01 5.354815774431e-02 -2.000000000000e-02
      vertex 3.177248002882e-01 5.577980506403e-02 2.200000000000e-01
      vertex 3.151861705160e-01 5.354815774431e-02 2.200000000000e-01
    endloop
  endfacet
  facet normal 7.023104130891e-01 -7.118708335552e-01 0.000000000000e+00
    outer loop
      vertex 3.177248002882e-01 5.577980506403e-02 -2.000000000000e-02
      vertex 3.197656430839e-01 5.779323935482e-02 -2.000000000000e-02
      vertex 3.197656430839e-01 5.779323935482e-02 2.200000000000e-01
    endloop
  endfacet
  facet normal 7.023104130891e-01 -7.118708335552e-01 0.000000000000e+00
    outer loop
      vertex 3.177248002882e-01 5.577980506403e-02 -2.000000000000e-02
      vertex 3.197656430839e-01 5.779323935482e-02 2.200000000000e-01
      vertex 3.177248002882e-01 5.577980506403e-02 2.200000000000e-01
    endloop
  endfacet
  facet normal 7.442448120530e-01 -6.679069244529e-01 0.000000000000e+00
    outer loop
      vertex 3.197656430839e-01 5.779323935482e-02 -2.000000000000e-02
      vertex 3.213773890442e-01 5.958919853019e-02 -2.000000000000e-02
      vertex 3.213773890442e-01 5.958919853019e-02 2.200000000000e-01
    endloop
  endfacet
  facet normal 7.442448120530e-01 -6.679069244529e-01 0.000000000000e+00
    outer loop
      vertex 3.197656430839e-01 5.779323935482e-02 -2.000000000000e-02
      vertex 3.213773890442e-01 5.958919853019e-02 2.200000000000e-01
      vertex 3.197656430839e-01 5.779323935482e-02 2.200000000000e-01
    endloop
  endfacet
  facet normal 7.571543557841e-01 -6.532360075173e-01 0.000000000000e+00
    outer loop
      vertex 3.213773890442e-01 5.958919853019e-02 -2.000000000000e-02
      vertex 3.226365553585e-01 6.104867603695e-02 -2.000000000000e-02
      vertex 3.226365553585e-01 6.104867603695e-02 2.200000000000e-01
    endloop
  endfacet
  facet normal 7.571543557841e-01 -6.532360075173e-01 0.000000000000e+00
    outer loop
      vertex 3.213773890442e-01 5.958919853019e-02 -2.000000000000e-02
      vertex 3.226365553585e-01 6.104867603695e-02 2.200000000000e-01
      vertex 3.213773890442e-01 5.958919853019e-02 2.200000000000e-01
    endloop
  endfacet
  facet normal 7.355823313141e-01 -6.774353355550e-01 0.000000000000e+00
    outer loop
      vertex 3.226365553585e-01 6.104867603695e-02 -2.000000000000e-02
      vertex 3.235051590466e-01 6.199183546834e-02 -2.000000000000e-02
      vertex 3.235051590466e-01 6.199183546834e-02 2.200000000000e-01
    endloop
  endfacet
  facet normal 7.355823313141e-01 -6.774353355550e-01 0.000000000000e+00
    outer loop
      vertex 3.226365553585e-01 6.104867603695e-02 -2.000000000000e-02
      vertex 3.235051590466e-01 6.199183546834e-02 2.200000000000e-01
      vertex 3.226365553585e-01 6.104867603695e-02 2.200000000000e-01
    endloop
  endfacet
  facet normal 7.039346208526e-01 -7.102647742673e-01 0.000000000000e+00
    outer loop
      vertex 3.235051590466e-01 6.199183546834e-02 -2.000000000000e-02
      vertex 3.238289343483e-01 6.231272515972e-02 -2.000000000000e-02
      vertex 3.238289343483e-01 6.231272515972e-02 2.200000000000e-01
    endloop
  endfacet
  facet normal 7.039346208526e-01 -7.102647742673e-01 0.000000000000e+00
    outer loop
      vertex 3.235051590466e-01 6.199183546834e-02 -2.000000000000e-02
      vertex 3.238289343483e-01 6.231272515972e-02 2.200000000000e-01
      vertex 3.235051590466e-01 6.199183546834e-02 2.200000000000e-01
    endloop
  endfacet
  facet normal -5.870139750423e-01 8.095767987690e-01 0.000000000000e+00
    outer loop
      vertex 3.238289343483e-01 6.231272515972e-02 -2.000000000000e-02
      vertex 3.234540881557e-01 6.204092889055e-02 -2.000000000000e-02
      vertex 3.234540881557e-01 6.204092889055e-02 2.200000000000e-01
    endloop
  endfacet
  facet normal -5.870139750423e-01 8.095767987690e-01 0.000000000000e+00
    outer loop
      vertex 3.238289343483e-01 6.231272515972e-02 -2.000000000000e-02
      vertex 3.234540881557e-01 6.204092889055e-02 2.200000000000e-01
      vertex 3.238289343483e-01 6.231272515972e-02 2.200000000000e-01
    endloop
  endfacet
endsolid flap
