solid mainWing
  facet normal 0.000000000000e+00 0.000000000000e+00 -1.000000000000e+00
    outer loop
      vertex 2.134000000000e-02 1.480000000000e-03 -2.000000000000e-02
      vertex 2.877000000000e-02 4.000000000000e-06 -2.000000000000e-02
      vertex 3.745400000000e-02 -1.844000000000e-03 -2.000000000000e-02
    endloop
  endfacet
  facet normal 0.000000000000e+00 0.000000000000e+00 -1.000000000000e+00
    outer loop
      vertex 1.506600000000e-02 2.472000000000e-03 -2.000000000000e-02
      vertex 2.134000000000e-02 1.480000000000e-03 -2.000000000000e-02
      vertex 3.745400000000e-02 -1.844000000000e-03 -2.000000000000e-02
    endloop
  endfacet
  facet normal 0.000000000000e+00 0.000000000000e+00 -1.000000000000e+00
    outer loop
      vertex 1.506600000000e-02 2.472000000000e-03 -2.000000000000e-02
      vertex 3.745400000000e-02 -1.844000000000e-03 -2.000000000000e-02
      vertex 4.737600000000e-02 -3.826000000000e-03 -2.000000000000e-02
    endloop
  endfacet
  facet normal 0.000000000000e+00 0.000000000000e+00 -1.000000000000e+00
    outer loop
      vertex 9.894000000000e-03 2.964000000000e-03 -2.000000000000e-02
      vertex 1.506600000000e-02 2.472000000000e-03 -2.000000000000e-02
      vertex 4.737600000000e-02 -3.826000000000e-03 -2.000000000000e-02
    endloop
  endfacet
  facet normal 0.000000000000e+00 0.000000000000e+00 -1.000000000000e+00
    outer loop
      vertex 5.784000000000e-03 2.970000000000e-03 -2.000000000000e-02
      vertex 9.894000000000e-03 2.964000000000e-03 -2.000000000000e-02
      vertex 4.737600000000e-02 -3.826000000000e-03 -2.000000000000e-02
    endloop
  endfacet
  facet normal 0.000000000000e+00 0.000000000000e+00 -1.000000000000e+00
    outer loop
      vertex 5.784000000000e-03 2.970000000000e-03 -2.000000000000e-02
      vertex 4.737600000000e-02 -3.826000000000e-03 -2.000000000000e-02
      vertex 5.000000000000e-02 -4.279530864200e-03 -2.000000000000e-02
    endloop
  endfacet
  facet normal 0.000000000000e+00 0.000000000000e+00 -1.000000000000e+00
    outer loop
      vertex 5.784000000000e-03 2.970000000000e-03 -2.000000000000e-02
      vertex 5.000000000000e-02 -4.279530864200e-03 -2.000000000000e-02
      vertex 5.839200000000e-02 -5.730000000000e-03 -2.000000000000e-02
    endloop
  endfacet
  facet normal 0.000000000000e+00 0.000000000000e+00 -1.000000000000e+00
    outer loop
      vertex 2.730000000000e-03 2.532000000000e-03 -2.000000000000e-02
      vertex 5.784000000000e-03 2.970000000000e-03 -2.000000000000e-02
      vertex 5.839200000000e-02 -5.730000000000e-03 -2.000000000000e-02
    endloop
  endfacet
  facet normal 0.000000000000e+00 0.000000000000e+00 -1.000000000000e+00
    outer loop
      vertex 2.130000000000e-03 2.354000000000e-03 -2.000000000000e-02
      vertex 2.730000000000e-03 2.532000000000e-03 -2.000000000000e-02
      vertex 5.839200000000e-02 -5.730000000000e-03 -2.000000000000e-02
    endloop
  endfacet
  facet normal 0.000000000000e+00 0.000000000000e+00 -1.000000000000e+00
    outer loop
      vertex 1.502000000000e-03 2.114000000000e-03 -2.000000000000e-02
      vertex 2.130000000000e-03 2.354000000000e-03 -2.000000000000e-02
      vertex 5.839200000000e-02 -5.730000000000e-03 -2.000000000000e-02
    endloop
  endfacet
  facet normal 0.000000000000e+00 0.000000000000e+00 -1.000000000000e+00
    outer loop
      vertex 1.142000000000e-03 1.938000000000e-03 -2.000000000000e-02
      vertex 1.502000000000e-03 2.114000000000e-03 -2.000000000000e-02
      vertex 5.839200000000e-02 -5.730000000000e-03 -2.000000000000e-02
    endloop
  endfacet
  facet normal 0.000000000000e+00 0.000000000000e+00 -1.000000000000e+00
    outer loop
      vertex 1.142000000000e-03 1.938000000000e-03 -2.000000000000e-02
      vertex 5.839200000000e-02 -5.730000000000e-03 -2.000000000000e-02
      vertex 7.032600000000e-02 -7.374000000000e-03 -2.000000000000e-02
    endloop
  endfacet
  facet normal 0.000000000000e+00 0.000000000000e+00 -1.000000000000e+00
    outer loop
      vertex 8.300000000000e-04 1.748000000000e-03 -2.000000000000e-02
      vertex 1.142000000000e-03 1.938000000000e-03 -2.000000000000e-02
      vertex 7.032600000000e-02 -7.374000000000e-03 -2.000000000000e-02
    endloop
  endfacet
  facet normal 0.000000000000e+00 0.000000000000e+00 -1.000000000000e+00
    outer loop
      vertex 6.960000000000e-04 1.646000000000e-03 -2.000000000000e-02
      vertex 8.300000000000e-04 1.748000000000e-03 -2.000000000000e-02
      vertex 7.032600000000e-02 -7.374000000000e-03 -2.000000000000e-02
    endloop
  endfacet
  facet normal 0.000000000000e+00 0.000000000000e+00 -1.000000000000e+00
    outer loop
      vertex 5.760000000000e-04 1.542000000000e-03 -2.000000000000e-02
      vertex 6.960000000000e-04 1.646000000000e-03 -2.000000000000e-02
      vertex 7.032600000000e-02 -7.374000000000e-03 -2.000000000000e-02
    endloop
  endfacet
  facet normal 0.000000000000e+00 0.000000000000e+00 -1.000000000000e+00
    outer loop
      vertex 4.740000000000e-04 1.434000000000e-03 -2.000000000000e-02
      vertex 5.760000000000e-04 1.542000000000e-03 -2.000000000000e-02
      vertex 7.032600000000e-02 -7.374000000000e-03 -2.000000000000e-02
    endloop
  endfacet
  facet normal 0.000000000000e+00 0.000000000000e+00 -1.000000000000e+00
    outer loop
      vertex 3.880000000000e-04 1.312000000000e-03 -2.000000000000e-02
      vertex 4.740000000000e-04 1.434000000000e-03 -2.000000000000e-02
      vertex 7.032600000000e-02 -7.374000000000e-03 -2.000000000000e-02
    endloop
  endfacet
  facet normal 0.000000000000e+00 0.000000000000e+00 -1.000000000000e+00
    outer loop
      vertex 3.140000000000e-04 1.180000000000e-03 -2.000000000000e-02
      vertex 3.880000000000e-04 1.312000000000e-03 -2.000000000000e-02
      vertex 7.032600000000e-02 -7.374000000000e-03 -2.000000000000e-02
    endloop
  endfacet
  facet normal 0.000000000000e+00 0.000000000000e+00 -1.000000000000e+00
    outer loop
      vertex 2.500000000000e-04 1.036000000000e-03 -2.000000000000e-02
      vertex 3.140000000000e-04 1.180000000000e-03 -2.000000000000e-02
      vertex 7.032600000000e-02 -7.374000000000e-03 -2.000000000000e-02
    endloop
  endfacet
  facet normal 0.000000000000e+00 0.000000000000e+00 -1.000000000000e+00
    outer loop
      vertex 1.420000000000e-04 7.240000000000e-04 -2.000000000000e-02
      vertex 2.500000000000e-04 1.036000000000e-03 -2.000000000000e-02
      vertex 7.032600000000e-02 -7.374000000000e-03 -2.000000000000e-02
    endloop
  endfacet
  facet normal 0.000000000000e+00 0.000000000000e+00 -1.000000000000e+00
    outer loop
      vertex 6.600000000000e-05 3.840000000000e-04 -2.000000000000e-02
      vertex 1.420000000000e-04 7.240000000000e-04 -2.000000000000e-02
      vertex 7.032600000000e-02 -7.374000000000e-03 -2.000000000000e-02
    endloop
  endfacet
  facet normal 0.000000000000e+00 0.000000000000e+00 -1.000000000000e+00
    outer loop
      vertex 0.000000000000e+00 0.000000000000e+00 -2.000000000000e-02
      vertex 6.600000000000e-05 3.840000000000e-04 -2.000000000000e-02
      vertex 7.032600000000e-02 -7.374000000000e-03 -2.000000000000e-02
    endloop
  endfacet
  facet normal 0.000000000000e+00 0.000000000000e+00 -1.000000000000e+00
    outer loop
      vertex 4.000000000000e-06 -1.760000000000e-04 -2.000000000000e-02
      vertex 0.000000000000e+00 0.000000000000e+00 -2.000000000000e-02
      vertex 7.032600000000e-02 -7.374000000000e-03 -2.000000000000e-02
    endloop
  endfacet
  facet normal 0.000000000000e+00 0.000000000000e+00 -1.000000000000e+00
    outer loop
      vertex 1.420000000000e-04 -1.758000000000e-03 -2.000000000000e-02
      vertex 4.000000000000e-06 -1.760000000000e-04 -2.000000000000e-02
      vertex 7.032600000000e-02 -7.374000000000e-03 -2.000000000000e-02
    endloop
  endfacet
  facet normal 0.000000000000e+00 0.000000000000e+00 -1.000000000000e+00
    outer loop
      vertex 1.420000000000e-04 -1.758000000000e-03 -2.000000000000e-02
      vertex 7.032600000000e-02 -7.374000000000e-03 -2.000000000000e-02
      vertex 8.289800000000e-02 -8.566000000000e-03 -2.000000000000e-02
    endloop
  endfacet
  facet normal 0.000000000000e+00 0.000000000000e+00 -1.000000000000e+00
    outer loop
      vertex 9.620000000000e-04 -4.186000000000e-03 -2.000000000000e-02
      vertex 1.420000000000e-04 -1.758000000000e-03 -2.000000000000e-02
      vertex 8.289800000000e-02 -8.566000000000e-03 -2.000000000000e-02
    endloop
  endfacet
  facet normal 0.000000000000e+00 0.000000000000e+00 -1.000000000000e+00
    outer loop
      vertex 2.524000000000e-03 -6.838000000000e-03 -2.000000000000e-02
      vertex 9.620000000000e-04 -4.186000000000e-03 -2.000000000000e-02
      vertex 8.289800000000e-02 -8.566000000000e-03 -2.000000000000e-02
    endloop
  endfacet
  facet normal 0.000000000000e+00 0.000000000000e+00 -1.000000000000e+00
    outer loop
      vertex 2.524000000000e-03 -6.838000000000e-03 -2.000000000000e-02
      vertex 8.289800000000e-02 -8.566000000000e-03 -2.000000000000e-02
      vertex 9.573400000000e-02 -9.252000000000e-03 -2.000000000000e-02
    endloop
  endfacet
  facet normal 0.000000000000e+00 0.000000000000e+00 -1.000000000000e+00
    outer loop
      vertex 4.842000000000e-03 -9.624000000000e-03 -2.000000000000e-02
      vertex 2.524000000000e-03 -6.838000000000e-03 -2.000000000000e-02
      vertex 9.573400000000e-02 -9.252000000000e-03 -2.000000000000e-02
    endloop
  endfacet
  facet normal 0.000000000000e+00 0.000000000000e+00 -1.000000000000e+00
    outer loop
      vertex 4.842000000000e-03 -9.624000000000e-03 -2.000000000000e-02
      vertex 9.573400000000e-02 -9.252000000000e-03 -2.000000000000e-02
      vertex 1.085500000000e-01 -9.520000000000e-03 -2.000000000000e-02
    endloop
  endfacet
  facet normal 0.000000000000e+00 0.000000000000e+00 -1.000000000000e+00
    outer loop
      vertex 7.906000000000e-03 -1.246400000000e-02 -2.000000000000e-02
      vertex 4.842000000000e-03 -9.624000000000e-03 -2.000000000000e-02
      vertex 1.085500000000e-01 -9.520000000000e-03 -2.000000000000e-02
    endloop
  endfacet
  facet normal 0.000000000000e+00 0.000000000000e+00 -1.000000000000e+00
    outer loop
      vertex 7.906000000000e-03 -1.246400000000e-02 -2.000000000000e-02
      vertex 1.085500000000e-01 -9.520000000000e-03 -2.000000000000e-02
      vertex 1.211580000000e-01 -9.430000000000e-03 -2.000000000000e-02
    endloop
  endfacet
  facet normal 0.000000000000e+00 0.000000000000e+00 -1.000000000000e+00
    outer loop
      vertex 1.170400000000e-02 -1.529200000000e-02 -2.000000000000e-02
      vertex 7.906000000000e-03 -1.246400000000e-02 -2.000000000000e-02
      vertex 1.211580000000e-01 -9.430000000000e-03 -2.000000000000e-02
    endloop
  endfacet
  facet normal 0.000000000000e+00 0.000000000000e+00 -1.000000000000e+00
    outer loop
      vertex 1.170400000000e-02 -1.529200000000e-02 -2.000000000000e-02
      vertex 1.211580000000e-01 -9.430000000000e-03 -2.000000000000e-02
      vertex 1.333800000000e-01 -9.002000000000e-03 -2.000000000000e-02
    endloop
  endfacet
  facet normal 0.000000000000e+00 0.000000000000e+00 -1.000000000000e+00
    outer loop
      vertex 1.621200000000e-02 -1.804600000000e-02 -2.000000000000e-02
      vertex 1.170400000000e-02 -1.529200000000e-02 -2.000000000000e-02
      vertex 1.333800000000e-01 -9.002000000000e-03 -2.000000000000e-02
    endloop
  endfacet
  facet normal 0.000000000000e+00 0.000000000000e+00 -1.000000000000e+00
    outer loop
      vertex 1.621200000000e-02 -1.804600000000e-02 -2.000000000000e-02
      vertex 1.333800000000e-01 -9.002000000000e-03 -2.000000000000e-02
      vertex 1.450060000000e-01 -8.252000000000e-03 -2.000000000000e-02
    endloop
  endfacet
  facet normal 0.000000000000e+00 0.000000000000e+00 -1.000000000000e+00
    outer loop
      vertex 2.140000000000e-02 -2.067400000000e-02 -2.000000000000e-02
      vertex 1.621200000000e-02 -1.804600000000e-02 -2.000000000000e-02
      vertex 1.450060000000e-01 -8.252000000000e-03 -2.000000000000e-02
    endloop
  endfacet
  facet normal 0.000000000000e+00 0.000000000000e+00 -1.000000000000e+00
    outer loop
      vertex 2.140000000000e-02 -2.067400000000e-02 -2.000000000000e-02
      vertex 1.450060000000e-01 -8.252000000000e-03 -2.000000000000e-02
      vertex 1.558240000000e-01 -7.250000000000e-03 -2.000000000000e-02
    endloop
  endfacet
  facet normal 0.000000000000e+00 0.000000000000e+00 -1.000000000000e+00
    outer loop
      vertex 2.722200000000e-02 -2.312400000000e-02 -2.000000000000e-02
      vertex 2.140000000000e-02 -2.067400000000e-02 -2.000000000000e-02
      vertex 1.558240000000e-01 -7.250000000000e-03 -2.000000000000e-02
    endloop
  endfacet
  facet normal 0.000000000000e+00 0.000000000000e+00 -1.000000000000e+00
    outer loop
      vertex 2.722200000000e-02 -2.312400000000e-02 -2.000000000000e-02
      vertex 1.558240000000e-01 -7.250000000000e-03 -2.000000000000e-02
      vertex 1.656720000000e-01 -6.100000000000e-03 -2.000000000000e-02
    endloop
  endfacet
  facet normal 0.000000000000e+00 0.000000000000e+00 -1.000000000000e+00
    outer loop
      vertex 3.363200000000e-02 -2.535200000000e-02 -2.000000000000e-02
      vertex 2.722200000000e-02 -2.312400000000e-02 -2.000000000000e-02
      vertex 1.656720000000e-01 -6.100000000000e-03 -2.000000000000e-02
    endloop
  endfacet
  facet normal 0.000000000000e+00 0.000000000000e+00 -1.000000000000e+00
    outer loop
      vertex 3.363200000000e-02 -2.535200000000e-02 -2.000000000000e-02
      vertex 1.656720000000e-01 -6.100000000000e-03 -2.000000000000e-02
      vertex 1.744380000000e-01 -4.888000000000e-03 -2.000000000000e-02
    endloop
  endfacet
  facet normal 0.000000000000e+00 0.000000000000e+00 -1.000000000000e+00
    outer loop
      vertex 4.057200000000e-02 -2.731400000000e-02 -2.000000000000e-02
      vertex 3.363200000000e-02 -2.535200000000e-02 -2.000000000000e-02
      vertex 1.744380000000e-01 -4.888000000000e-03 -2.000000000000e-02
    endloop
  endfacet
  facet normal 0.000000000000e+00 0.000000000000e+00 -1.000000000000e+00
    outer loop
      vertex 4.057200000000e-02 -2.731400000000e-02 -2.000000000000e-02
      vertex 1.744380000000e-01 -4.888000000000e-03 -2.000000000000e-02
      vertex 1.820240000000e-01 -3.688000000000e-03 -2.000000000000e-02
    endloop
  endfacet
  facet normal 0.000000000000e+00 0.000000000000e+00 -1.000000000000e+00
    outer loop
      vertex 4.797400000000e-02 -2.897000000000e-02 -2.000000000000e-02
      vertex 4.057200000000e-02 -2.731400000000e-02 -2.000000000000e-02
      vertex 1.820240000000e-01 -3.688000000000e-03 -2.000000000000e-02
    endloop
  endfacet
  facet normal 0.000000000000e+00 0.000000000000e+00 -1.000000000000e+00
    outer loop
      vertex 4.797400000000e-02 -2.897000000000e-02 -2.000000000000e-02
      vertex 1.820240000000e-01 -3.688000000000e-03 -2.000000000000e-02
      vertex 1.883580000000e-01 -2.572000000000e-03 -2.000000000000e-02
    endloop
  endfacet
  facet normal 0.000000000000e+00 0.000000000000e+00 -1.000000000000e+00
    outer loop
      vertex 5.000000000000e-02 -2.930939917900e-02 -2.000000000000e-02
      vertex 4.797400000000e-02 -2.897000000000e-02 -2.000000000000e-02
      vertex 1.883580000000e-01 -2.572000000000e-03 -2.000000000000e-02
    endloop
  endfacet
  facet normal 0.000000000000e+00 0.000000000000e+00 -1.000000000000e+00
    outer loop
      vertex 5.577000000000e-02 -3.027600000000e-02 -2.000000000000e-02
      vertex 5.000000000000e-02 -2.930939917900e-02 -2.000000000000e-02
      vertex 1.883580000000e-01 -2.572000000000e-03 -2.000000000000e-02
    endloop
  endfacet
  facet normal 0.000000000000e+00 0.000000000000e+00 -1.000000000000e+00
    outer loop
      vertex 5.577000000000e-02 -3.027600000000e-02 -2.000000000000e-02
      vertex 1.883580000000e-01 -2.572000000000e-03 -2.000000000000e-02
      vertex 1.933840000000e-01 -1.588000000000e-03 -2.000000000000e-02
    endloop
  endfacet
  facet normal 0.000000000000e+00 0.000000000000e+00 -1.000000000000e+00
    outer loop
      vertex 6.389400000000e-02 -3.118000000000e-02 -2.000000000000e-02
      vertex 5.577000000000e-02 -3.027600000000e-02 -2.000000000000e-02
      vertex 1.933840000000e-01 -1.588000000000e-03 -2.000000000000e-02
    endloop
  endfacet
  facet normal 0.000000000000e+00 0.000000000000e+00 -1.000000000000e+00
    outer loop
      vertex 6.389400000000e-02 -3.118000000000e-02 -2.000000000000e-02
      vertex 1.933840000000e-01 -1.588000000000e-03 -2.000000000000e-02
      vertex 1.970380000000e-01 -7.800000000000e-04 -2.000000000000e-02
    endloop
  endfacet
  facet normal 0.000000000000e+00 0.000000000000e+00 -1.000000000000e+00
    outer loop
      vertex 7.229800000000e-02 -3.164800000000e-02 -2.000000000000e-02
      vertex 6.389400000000e-02 -3.118000000000e-02 -2.000000000000e-02
      vertex 1.970380000000e-01 -7.800000000000e-04 -2.000000000000e-02
    endloop
  endfacet
  facet normal 0.000000000000e+00 0.000000000000e+00 -1.000000000000e+00
    outer loop
      vertex 8.092800000000e-02 -3.165600000000e-02 -2.000000000000e-02
      vertex 7.229800000000e-02 -3.164800000000e-02 -2.000000000000e-02
      vertex 1.970380000000e-01 -7.800000000000e-04 -2.000000000000e-02
    endloop
  endfacet
  facet normal 0.000000000000e+00 0.000000000000e+00 -1.000000000000e+00
    outer loop
      vertex 8.092800000000e-02 -3.165600000000e-02 -2.000000000000e-02
      vertex 1.970380000000e-01 -7.800000000000e-04 -2.000000000000e-02
      vertex 1.992580000000e-01 -2.120000000000e-04 -2.000000000000e-02
    endloop
  endfacet
  facet normal -0.000000000000e+00 0.000000000000e+00 -1.000000000000e+00
    outer loop
      vertex 8.974000000000e-02 -3.118600000000e-02 -2.000000000000e-02
      vertex 8.092800000000e-02 -3.165600000000e-02 -2.000000000000e-02
      vertex 1.992580000000e-01 -2.120000000000e-04 -2.000000000000e-02
    endloop
  endfacet
  facet normal -0.000000000000e+00 0.000000000000e+00 -1.000000000000e+00
    outer loop
      vertex 9.869400000000e-02 -3.023200000000e-02 -2.000000000000e-02
      vertex 8.974000000000e-02 -3.118600000000e-02 -2.000000000000e-02
      vertex 1.992580000000e-01 -2.120000000000e-04 -2.000000000000e-02
    endloop
  endfacet
  facet normal 0.000000000000e+00 0.000000000000e+00 -1.000000000000e+00
    outer loop
      vertex 9.869400000000e-02 -3.023200000000e-02 -2.000000000000e-02
      vertex 1.992580000000e-01 -2.120000000000e-04 -2.000000000000e-02
      vertex 2.000000000000e-01 0.000000000000e+00 -2.000000000000e-02
    endloop
  endfacet
  facet normal -0.000000000000e+00 0.000000000000e+00 -1.000000000000e+00
    outer loop
      vertex 1.077860000000e-01 -2.882000000000e-02 -2.000000000000e-02
      vertex 9.869400000000e-02 -3.023200000000e-02 -2.000000000000e-02
      vertex 2.000000000000e-01 0.000000000000e+00 -2.000000000000e-02
    endloop
  endfacet
  facet normal -0.000000000000e+00 0.000000000000e+00 -1.000000000000e+00
    outer loop
      vertex 1.169820000000e-01 -2.704800000000e-02 -2.000000000000e-02
      vertex 1.077860000000e-01 -2.882000000000e-02 -2.000000000000e-02
      vertex 2.000000000000e-01 0.000000000000e+00 -2.000000000000e-02
    endloop
  endfacet
  facet normal -0.000000000000e+00 0.000000000000e+00 -1.000000000000e+00
    outer loop
      vertex 1.261840000000e-01 -2.501200000000e-02 -2.000000000000e-02
      vertex 1.169820000000e-01 -2.704800000000e-02 -2.000000000000e-02
      vertex 2.000000000000e-01 0.000000000000e+00 -2.000000000000e-02
    endloop
  endfacet
  facet normal -0.000000000000e+00 0.000000000000e+00 -1.000000000000e+00
    outer loop
      vertex 1.352880000000e-01 -2.278200000000e-02 -2.000000000000e-02
      vertex 1.261840000000e-01 -2.501200000000e-02 -2.000000000000e-02
      vertex 2.000000000000e-01 0.000000000000e+00 -2.000000000000e-02
    endloop
  endfacet
  facet normal -0.000000000000e+00 0.000000000000e+00 -1.000000000000e+00
    outer loop
      vertex 1.441800000000e-01 -2.043000000000e-02 -2.000000000000e-02
      vertex 1.352880000000e-01 -2.278200000000e-02 -2.000000000000e-02
      vertex 2.000000000000e-01 0.000000000000e+00 -2.000000000000e-02
    endloop
  endfacet
  facet normal -0.000000000000e+00 0.000000000000e+00 -1.000000000000e+00
    outer loop
      vertex 1.527460000000e-01 -1.802000000000e-02 -2.000000000000e-02
      vertex 1.441800000000e-01 -2.043000000000e-02 -2.000000000000e-02
      vertex 2.000000000000e-01 0.000000000000e+00 -2.000000000000e-02
    endloop
  endfacet
  facet normal -0.000000000000e+00 0.000000000000e+00 -1.000000000000e+00
    outer loop
      vertex 1.608720000000e-01 -1.560600000000e-02 -2.000000000000e-02
      vertex 1.527460000000e-01 -1.802000000000e-02 -2.000000000000e-02
      vertex 2.000000000000e-01 0.000000000000e+00 -2.000000000000e-02
    endloop
  endfacet
  facet normal -0.000000000000e+00 0.000000000000e+00 -1.000000000000e+00
    outer loop
      vertex 1.684420000000e-01 -1.324000000000e-02 -2.000000000000e-02
      vertex 1.608720000000e-01 -1.560600000000e-02 -2.000000000000e-02
      vertex 2.000000000000e-01 0.000000000000e+00 -2.000000000000e-02
    endloop
  endfacet
  facet normal -0.000000000000e+00 0.000000000000e+00 -1.000000000000e+00
    outer loop
      vertex 1.753420000000e-01 -1.096200000000e-02 -2.000000000000e-02
      vertex 1.684420000000e-01 -1.324000000000e-02 -2.000000000000e-02
      vertex 2.000000000000e-01 0.000000000000e+00 -2.000000000000e-02
    endloop
  endfacet
  facet normal 0.000000000000e+00 0.000000000000e+00 -1.000000000000e+00
    outer loop
      vertex 1.867160000000e-01 -6.752000000000e-03 -2.000000000000e-02
      vertex 1.814680000000e-01 -8.800000000000e-03 -2.000000000000e-02
      vertex 1.753420000000e-01 -1.096200000000e-02 -2.000000000000e-02
    endloop
  endfacet
  facet normal 0.000000000000e+00 0.000000000000e+00 -1.000000000000e+00
    outer loop
      vertex 1.910600000000e-01 -4.762000000000e-03 -2.000000000000e-02
      vertex 1.867160000000e-01 -6.752000000000e-03 -2.000000000000e-02
      vertex 1.753420000000e-01 -1.096200000000e-02 -2.000000000000e-02
    endloop
  endfacet
  facet normal 0.000000000000e+00 0.000000000000e+00 -1.000000000000e+00
    outer loop
      vertex 1.946080000000e-01 -2.868000000000e-03 -2.000000000000e-02
      vertex 1.910600000000e-01 -4.762000000000e-03 -2.000000000000e-02
      vertex 1.753420000000e-01 -1.096200000000e-02 -2.000000000000e-02
    endloop
  endfacet
  facet normal 0.000000000000e+00 0.000000000000e+00 -1.000000000000e+00
    outer loop
      vertex 1.974120000000e-01 -1.300000000000e-03 -2.000000000000e-02
      vertex 1.946080000000e-01 -2.868000000000e-03 -2.000000000000e-02
      vertex 1.753420000000e-01 -1.096200000000e-02 -2.000000000000e-02
    endloop
  endfacet
  facet normal 0.000000000000e+00 0.000000000000e+00 -1.000000000000e+00
    outer loop
      vertex 1.993100000000e-01 -3.180000000000e-04 -2.000000000000e-02
      vertex 1.974120000000e-01 -1.300000000000e-03 -2.000000000000e-02
      vertex 1.753420000000e-01 -1.096200000000e-02 -2.000000000000e-02
    endloop
  endfacet
  facet normal 0.000000000000e+00 0.000000000000e+00 -1.000000000000e+00
    outer loop
      vertex 2.000000000000e-01 0.000000000000e+00 -2.000000000000e-02
      vertex 1.993100000000e-01 -3.180000000000e-04 -2.000000000000e-02
      vertex 1.753420000000e-01 -1.096200000000e-02 -2.000000000000e-02
    endloop
  endfacet
  facet normal 0.000000000000e+00 0.000000000000e+00 1.000000000000e+00
    outer loop
      vertex 3.745400000000e-02 -1.844000000000e-03 2.200000000000e-01
      vertex 2.877000000000e-02 4.000000000000e-06 2.200000000000e-01
      vertex 2.134000000000e-02 1.480000000000e-03 2.200000000000e-01
    endloop
  endfacet
  facet normal 0.000000000000e+00 0.000000000000e+00 1.000000000000e+00
    outer loop
      vertex 3.745400000000e-02 -1.844000000000e-03 2.200000000000e-01
      vertex 2.134000000000e-02 1.480000000000e-03 2.200000000000e-01
      vertex 1.506600000000e-02 2.472000000000e-03 2.200000000000e-01
    endloop
  endfacet
  facet normal 0.000000000000e+00 0.000000000000e+00 1.000000000000e+00
    outer loop
      vertex 4.737600000000e-02 -3.826000000000e-03 2.200000000000e-01
      vertex 3.745400000000e-02 -1.844000000000e-03 2.200000000000e-01
      vertex 1.506600000000e-02 2.472000000000e-03 2.200000000000e-01
    endloop
  endfacet
  facet normal 0.000000000000e+00 0.000000000000e+00 1.000000000000e+00
    outer loop
      vertex 4.737600000000e-02 -3.826000000000e-03 2.200000000000e-01
      vertex 1.506600000000e-02 2.472000000000e-03 2.200000000000e-01
      vertex 9.894000000000e-03 2.964000000000e-03 2.200000000000e-01
    endloop
  endfacet
  facet normal 0.000000000000e+00 0.000000000000e+00 1.000000000000e+00
    outer loop
      vertex 4.737600000000e-02 -3.826000000000e-03 2.200000000000e-01
      vertex 9.894000000000e-03 2.964000000000e-03 2.200000000000e-01
      vertex 5.784000000000e-03 2.970000000000e-03 2.200000000000e-01
    endloop
  endfacet
  facet normal 0.000000000000e+00 0.000000000000e+00 1.000000000000e+00
    outer loop
      vertex 5.000000000000e-02 -4.279530864200e-03 2.200000000000e-01
      vertex 4.737600000000e-02 -3.826000000000e-03 2.200000000000e-01
      vertex 5.784000000000e-03 2.970000000000e-03 2.200000000000e-01
    endloop
  endfacet
  facet normal 0.000000000000e+00 0.000000000000e+00 1.000000000000e+00
    outer loop
      vertex 5.839200000000e-02 -5.730000000000e-03 2.200000000000e-01
      vertex 5.000000000000e-02 -4.279530864200e-03 2.200000000000e-01
      vertex 5.784000000000e-03 2.970000000000e-03 2.200000000000e-01
    endloop
  endfacet
  facet normal 0.000000000000e+00 0.000000000000e+00 1.000000000000e+00
    outer loop
      vertex 5.839200000000e-02 -5.730000000000e-03 2.200000000000e-01
      vertex 5.784000000000e-03 2.970000000000e-03 2.200000000000e-01
      vertex 2.730000000000e-03 2.532000000000e-03 2.200000000000e-01
    endloop
  endfacet
  facet normal 0.000000000000e+00 0.000000000000e+00 1.000000000000e+00
    outer loop
      vertex 5.839200000000e-02 -5.730000000000e-03 2.200000000000e-01
      vertex 2.730000000000e-03 2.532000000000e-03 2.200000000000e-01
      vertex 2.130000000000e-03 2.354000000000e-03 2.200000000000e-01
    endloop
  endfacet
  facet normal 0.000000000000e+00 0.000000000000e+00 1.000000000000e+00
    outer loop
      vertex 5.839200000000e-02 -5.730000000000e-03 2.200000000000e-01
      vertex 2.130000000000e-03 2.354000000000e-03 2.200000000000e-01
      vertex 1.502000000000e-03 2.114000000000e-03 2.200000000000e-01
    endloop
  endfacet
  facet normal 0.000000000000e+00 0.000000000000e+00 1.000000000000e+00
    outer loop
      vertex 5.839200000000e-02 -5.730000000000e-03 2.200000000000e-01
      vertex 1.502000000000e-03 2.114000000000e-03 2.200000000000e-01
      vertex 1.142000000000e-03 1.938000000000e-03 2.200000000000e-01
    endloop
  endfacet
  facet normal 0.000000000000e+00 0.000000000000e+00 1.000000000000e+00
    outer loop
      vertex 7.032600000000e-02 -7.374000000000e-03 2.200000000000e-01
      vertex 5.839200000000e-02 -5.730000000000e-03 2.200000000000e-01
      vertex 1.142000000000e-03 1.938000000000e-03 2.200000000000e-01
    endloop
  endfacet
  facet normal 0.000000000000e+00 0.000000000000e+00 1.000000000000e+00
    outer loop
      vertex 7.032600000000e-02 -7.374000000000e-03 2.200000000000e-01
      vertex 1.142000000000e-03 1.938000000000e-03 2.200000000000e-01
      vertex 8.300000000000e-04 1.748000000000e-03 2.200000000000e-01
    endloop
  endfacet
  facet normal 0.000000000000e+00 0.000000000000e+00 1.000000000000e+00
    outer loop
      vertex 7.032600000000e-02 -7.374000000000e-03 2.200000000000e-01
      vertex 8.300000000000e-04 1.748000000000e-03 2.200000000000e-01
      vertex 6.960000000000e-04 1.646000000000e-03 2.200000000000e-01
    endloop
  endfacet
  facet normal 0.000000000000e+00 0.000000000000e+00 1.000000000000e+00
    outer loop
      vertex 7.032600000000e-02 -7.374000000000e-03 2.200000000000e-01
      vertex 6.960000000000e-04 1.646000000000e-03 2.200000000000e-01
      vertex 5.760000000000e-04 1.542000000000e-03 2.200000000000e-01
    endloop
  endfacet
  facet normal 0.000000000000e+00 0.000000000000e+00 1.000000000000e+00
    outer loop
      vertex 7.032600000000e-02 -7.374000000000e-03 2.200000000000e-01
      vertex 5.760000000000e-04 1.542000000000e-03 2.200000000000e-01
      vertex 4.740000000000e-04 1.434000000000e-03 2.200000000000e-01
    endloop
  endfacet
  facet normal 0.000000000000e+00 0.000000000000e+00 1.000000000000e+00
    outer loop
      vertex 7.032600000000e-02 -7.374000000000e-03 2.200000000000e-01
      vertex 4.740000000000e-04 1.434000000000e-03 2.200000000000e-01
      vertex 3.880000000000e-04 1.312000000000e-03 2.200000000000e-01
    endloop
  endfacet
  facet normal 0.000000000000e+00 0.000000000000e+00 1.000000000000e+00
    outer loop
      vertex 7.032600000000e-02 -7.374000000000e-03 2.200000000000e-01
      vertex 3.880000000000e-04 1.312000000000e-03 2.200000000000e-01
      vertex 3.140000000000e-04 1.180000000000e-03 2.200000000000e-01
    endloop
  endfacet
  facet normal 0.000000000000e+00 0.000000000000e+00 1.000000000000e+00
    outer loop
      vertex 7.032600000000e-02 -7.374000000000e-03 2.200000000000e-01
      vertex 3.140000000000e-04 1.180000000000e-03 2.200000000000e-01
      vertex 2.500000000000e-04 1.036000000000e-03 2.200000000000e-01
    endloop
  endfacet
  facet normal 0.000000000000e+00 0.000000000000e+00 1.000000000000e+00
    outer loop
      vertex 7.032600000000e-02 -7.374000000000e-03 2.200000000000e-01
      vertex 2.500000000000e-04 1.036000000000e-03 2.200000000000e-01
      vertex 1.420000000000e-04 7.240000000000e-04 2.200000000000e-01
    endloop
  endfacet
  facet normal 0.000000000000e+00 0.000000000000e+00 1.000000000000e+00
    outer loop
      vertex 7.032600000000e-02 -7.374000000000e-03 2.200000000000e-01
      vertex 1.420000000000e-04 7.240000000000e-04 2.200000000000e-01
      vertex 6.600000000000e-05 3.840000000000e-04 2.200000000000e-01
    endloop
  endfacet
  facet normal 0.000000000000e+00 0.000000000000e+00 1.000000000000e+00
    outer loop
      vertex 7.032600000000e-02 -7.374000000000e-03 2.200000000000e-01
      vertex 6.600000000000e-05 3.840000000000e-04 2.200000000000e-01
      vertex 0.000000000000e+00 0.000000000000e+00 2.200000000000e-01
    endloop
  endfacet
  facet normal 0.000000000000e+00 0.000000000000e+00 1.000000000000e+00
    outer loop
      vertex 7.032600000000e-02 -7.374000000000e-03 2.200000000000e-01
      vertex 0.000000000000e+00 0.000000000000e+00 2.200000000000e-01
      vertex 4.000000000000e-06 -1.760000000000e-04 2.200000000000e-01
    endloop
  endfacet
  facet normal 0.000000000000e+00 0.000000000000e+00 1.000000000000e+00
    outer loop
      vertex 7.032600000000e-02 -7.374000000000e-03 2.200000000000e-01
      vertex 4.000000000000e-06 -1.760000000000e-04 2.200000000000e-01
      vertex 1.420000000000e-04 -1.758000000000e-03 2.200000000000e-01
    endloop
  endfacet
  facet normal 0.000000000000e+00 0.000000000000e+00 1.000000000000e+00
    outer loop
      vertex 8.289800000000e-02 -8.566000000000e-03 2.200000000000e-01
      vertex 7.032600000000e-02 -7.374000000000e-03 2.200000000000e-01
      vertex 1.420000000000e-04 -1.758000000000e-03 2.200000000000e-01
    endloop
  endfacet
  facet normal 0.000000000000e+00 0.000000000000e+00 1.000000000000e+00
    outer loop
      vertex 8.289800000000e-02 -8.566000000000e-03 2.200000000000e-01
      vertex 1.420000000000e-04 -1.758000000000e-03 2.200000000000e-01
      vertex 9.620000000000e-04 -4.186000000000e-03 2.200000000000e-01
    endloop
  endfacet
  facet normal 0.000000000000e+00 0.000000000000e+00 1.000000000000e+00
    outer loop
      vertex 8.289800000000e-02 -8.566000000000e-03 2.200000000000e-01
      vertex 9.620000000000e-04 -4.186000000000e-03 2.200000000000e-01
      vertex 2.524000000000e-03 -6.838000000000e-03 2.200000000000e-01
    endloop
  endfacet
  facet normal 0.000000000000e+00 0.000000000000e+00 1.000000000000e+00
    outer loop
      vertex 9.573400000000e-02 -9.252000000000e-03 2.200000000000e-01
      vertex 8.289800000000e-02 -8.566000000000e-03 2.200000000000e-01
      vertex 2.524000000000e-03 -6.838000000000e-03 2.200000000000e-01
    endloop
  endfacet
  facet normal 0.000000000000e+00 0.000000000000e+00 1.000000000000e+00
    outer loop
      vertex 9.573400000000e-02 -9.252000000000e-03 2.200000000000e-01
      vertex 2.524000000000e-03 -6.838000000000e-03 2.200000000000e-01
      vertex 4.842000000000e-03 -9.624000000000e-03 2.200000000000e-01
    endloop
  endfacet
  facet normal 0.000000000000e+00 0.000000000000e+00 1.000000000000e+00
    outer loop
      vertex 1.085500000000e-01 -9.520000000000e-03 2.200000000000e-01
      vertex 9.573400000000e-02 -9.252000000000e-03 2.200000000000e-01
      vertex 4.842000000000e-03 -9.624000000000e-03 2.200000000000e-01
    endloop
  endfacet
  facet normal 0.000000000000e+00 0.000000000000e+00 1.000000000000e+00
    outer loop
      vertex 1.085500000000e-01 -9.520000000000e-03 2.200000000000e-01
      vertex 4.842000000000e-03 -9.624000000000e-03 2.200000000000e-01
      vertex 7.906000000000e-03 -1.246400000000e-02 2.200000000000e-01
    endloop
  endfacet
  facet normal 0.000000000000e+00 0.000000000000e+00 1.000000000000e+00
    outer loop
      vertex 1.211580000000e-01 -9.430000000000e-03 2.200000000000e-01
      vertex 1.085500000000e-01 -9.520000000000e-03 2.200000000000e-01
      vertex 7.906000000000e-03 -1.246400000000e-02 2.200000000000e-01
    endloop
  endfacet
  facet normal 0.000000000000e+00 0.000000000000e+00 1.000000000000e+00
    outer loop
      vertex 1.211580000000e-01 -9.430000000000e-03 2.200000000000e-01
      vertex 7.906000000000e-03 -1.246400000000e-02 2.200000000000e-01
      vertex 1.170400000000e-02 -1.529200000000e-02 2.200000000000e-01
    endloop
  endfacet
  facet normal 0.000000000000e+00 0.000000000000e+00 1.000000000000e+00
    outer loop
      vertex 1.333800000000e-01 -9.002000000000e-03 2.200000000000e-01
      vertex 1.211580000000e-01 -9.430000000000e-03 2.200000000000e-01
      vertex 1.170400000000e-02 -1.529200000000e-02 2.200000000000e-01
    endloop
  endfacet
  facet normal 0.000000000000e+00 0.000000000000e+00 1.000000000000e+00
    outer loop
      vertex 1.333800000000e-01 -9.002000000000e-03 2.200000000000e-01
      vertex 1.170400000000e-02 -1.529200000000e-02 2.200000000000e-01
      vertex 1.621200000000e-02 -1.804600000000e-02 2.200000000000e-01
    endloop
  endfacet
  facet normal 0.000000000000e+00 0.000000000000e+00 1.000000000000e+00
    outer loop
      vertex 1.450060000000e-01 -8.252000000000e-03 2.200000000000e-01
      vertex 1.333800000000e-01 -9.002000000000e-03 2.200000000000e-01
      vertex 1.621200000000e-02 -1.804600000000e-02 2.200000000000e-01
    endloop
  endfacet
  facet normal 0.000000000000e+00 0.000000000000e+00 1.000000000000e+00
    outer loop
      vertex 1.450060000000e-01 -8.252000000000e-03 2.200000000000e-01
      vertex 1.621200000000e-02 -1.804600000000e-02 2.200000000000e-01
      vertex 2.140000000000e-02 -2.067400000000e-02 2.200000000000e-01
    endloop
  endfacet
  facet normal 0.000000000000e+00 0.000000000000e+00 1.000000000000e+00
    outer loop
      vertex 1.558240000000e-01 -7.250000000000e-03 2.200000000000e-01
      vertex 1.450060000000e-01 -8.252000000000e-03 2.200000000000e-01
      vertex 2.140000000000e-02 -2.067400000000e-02 2.200000000000e-01
    endloop
  endfacet
  facet normal 0.000000000000e+00 0.000000000000e+00 1.000000000000e+00
    outer loop
      vertex 1.558240000000e-01 -7.250000000000e-03 2.200000000000e-01
      vertex 2.140000000000e-02 -2.067400000000e-02 2.200000000000e-01
      vertex 2.722200000000e-02 -2.312400000000e-02 2.200000000000e-01
    endloop
  endfacet
  facet normal 0.000000000000e+00 0.000000000000e+00 1.000000000000e+00
    outer loop
      vertex 1.656720000000e-01 -6.100000000000e-03 2.200000000000e-01
      vertex 1.558240000000e-01 -7.250000000000e-03 2.200000000000e-01
      vertex 2.722200000000e-02 -2.312400000000e-02 2.200000000000e-01
    endloop
  endfacet
  facet normal 0.000000000000e+00 0.000000000000e+00 1.000000000000e+00
    outer loop
      vertex 1.656720000000e-01 -6.100000000000e-03 2.200000000000e-01
      vertex 2.722200000000e-02 -2.312400000000e-02 2.200000000000e-01
      vertex 3.363200000000e-02 -2.535200000000e-02 2.200000000000e-01
    endloop
  endfacet
  facet normal 0.000000000000e+00 0.000000000000e+00 1.000000000000e+00
    outer loop
      vertex 1.744380000000e-01 -4.888000000000e-03 2.200000000000e-01
      vertex 1.656720000000e-01 -6.100000000000e-03 2.200000000000e-01
      vertex 3.363200000000e-02 -2.535200000000e-02 2.200000000000e-01
    endloop
  endfacet
  facet normal 0.000000000000e+00 0.000000000000e+00 1.000000000000e+00
    outer loop
      vertex 1.744380000000e-01 -4.888000000000e-03 2.200000000000e-01
      vertex 3.363200000000e-02 -2.535200000000e-02 2.200000000000e-01
      vertex 4.057200000000e-02 -2.731400000000e-02 2.200000000000e-01
    endloop
  endfacet
  facet normal 0.000000000000e+00 0.000000000000e+00 1.000000000000e+00
    outer loop
      vertex 1.820240000000e-01 -3.688000000000e-03 2.200000000000e-01
      vertex 1.744380000000e-01 -4.888000000000e-03 2.200000000000e-01
      vertex 4.057200000000e-02 -2.731400000000e-02 2.200000000000e-01
    endloop
  endfacet
  facet normal 0.000000000000e+00 0.000000000000e+00 1.000000000000e+00
    outer loop
      vertex 1.820240000000e-01 -3.688000000000e-03 2.200000000000e-01
      vertex 4.057200000000e-02 -2.731400000000e-02 2.200000000000e-01
      vertex 4.797400000000e-02 -2.897000000000e-02 2.200000000000e-01
    endloop
  endfacet
  facet normal 0.000000000000e+00 0.000000000000e+00 1.000000000000e+00
    outer loop
      vertex 1.883580000000e-01 -2.572000000000e-03 2.200000000000e-01
      vertex 1.820240000000e-01 -3.688000000000e-03 2.200000000000e-01
      vertex 4.797400000000e-02 -2.897000000000e-02 2.200000000000e-01
    endloop
  endfacet
  facet normal 0.000000000000e+00 0.000000000000e+00 1.000000000000e+00
    outer loop
      vertex 1.883580000000e-01 -2.572000000000e-03 2.200000000000e-01
      vertex 4.797400000000e-02 -2.897000000000e-02 2.200000000000e-01
      vertex 5.000000000000e-02 -2.930939917900e-02 2.200000000000e-01
    endloop
  endfacet
  facet normal 0.000000000000e+00 0.000000000000e+00 1.000000000000e+00
    outer loop
      vertex 1.883580000000e-01 -2.572000000000e-03 2.200000000000e-01
      vertex 5.000000000000e-02 -2.930939917900e-02 2.200000000000e-01
      vertex 5.577000000000e-02 -3.027600000000e-02 2.200000000000e-01
    endloop
  endfacet
  facet normal 0.000000000000e+00 0.000000000000e+00 1.000000000000e+00
    outer loop
      vertex 1.933840000000e-01 -1.588000000000e-03 2.200000000000e-01
      vertex 1.883580000000e-01 -2.572000000000e-03 2.200000000000e-01
      vertex 5.577000000000e-02 -3.027600000000e-02 2.200000000000e-01
    endloop
  endfacet
  facet normal 0.000000000000e+00 0.000000000000e+00 1.000000000000e+00
    outer loop
      vertex 1.933840000000e-01 -1.588000000000e-03 2.200000000000e-01
      vertex 5.577000000000e-02 -3.027600000000e-02 2.200000000000e-01
      vertex 6.389400000000e-02 -3.118000000000e-02 2.200000000000e-01
    endloop
  endfacet
  facet normal 0.000000000000e+00 0.000000000000e+00 1.000000000000e+00
    outer loop
      vertex 1.970380000000e-01 -7.800000000000e-04 2.200000000000e-01
      vertex 1.933840000000e-01 -1.588000000000e-03 2.200000000000e-01
      vertex 6.389400000000e-02 -3.118000000000e-02 2.200000000000e-01
    endloop
  endfacet
  facet normal 0.000000000000e+00 0.000000000000e+00 1.000000000000e+00
    outer loop
      vertex 1.970380000000e-01 -7.800000000000e-04 2.200000000000e-01
      vertex 6.389400000000e-02 -3.118000000000e-02 2.200000000000e-01
      vertex 7.229800000000e-02 -3.164800000000e-02 2.200000000000e-01
    endloop
  endfacet
  facet normal 0.000000000000e+00 0.000000000000e+00 1.000000000000e+00
    outer loop
      vertex 1.970380000000e-01 -7.800000000000e-04 2.200000000000e-01
      vertex 7.229800000000e-02 -3.164800000000e-02 2.200000000000e-01
      vertex 8.092800000000e-02 -3.165600000000e-02 2.200000000000e-01
    endloop
  endfacet
  facet normal 0.000000000000e+00 0.000000000000e+00 1.000000000000e+00
    outer loop
      vertex 1.992580000000e-01 -2.120000000000e-04 2.200000000000e-01
      vertex 1.970380000000e-01 -7.800000000000e-04 2.200000000000e-01
      vertex 8.092800000000e-02 -3.165600000000e-02 2.200000000000e-01
    endloop
  endfacet
  facet normal 0.000000000000e+00 0.000000000000e+00 1.000000000000e+00
    outer loop
      vertex 1.992580000000e-01 -2.120000000000e-04 2.200000000000e-01
      vertex 8.092800000000e-02 -3.165600000000e-02 2.200000000000e-01
      vertex 8.974000000000e-02 -3.118600000000e-02 2.200000000000e-01
    endloop
  endfacet
  facet normal 0.000000000000e+00 0.000000000000e+00 1.000000000000e+00
    outer loop
      vertex 1.992580000000e-01 -2.120000000000e-04 2.200000000000e-01
      vertex 8.974000000000e-02 -3.118600000000e-02 2.200000000000e-01
      vertex 9.869400000000e-02 -3.023200000000e-02 2.200000000000e-01
    endloop
  endfacet
  facet normal 0.000000000000e+00 0.000000000000e+00 1.000000000000e+00
    outer loop
      vertex 2.000000000000e-01 0.000000000000e+00 2.200000000000e-01
      vertex 1.992580000000e-01 -2.120000000000e-04 2.200000000000e-01
      vertex 9.869400000000e-02 -3.023200000000e-02 2.200000000000e-01
    endloop
  endfacet
  facet normal 0.000000000000e+00 0.000000000000e+00 1.000000000000e+00
    outer loop
      vertex 2.000000000000e-01 0.000000000000e+00 2.200000000000e-01
      vertex 9.869400000000e-02 -3.023200000000e-02 2.200000000000e-01
      vertex 1.077860000000e-01 -2.882000000000e-02 2.200000000000e-01
    endloop
  endfacet
  facet normal 0.000000000000e+00 0.000000000000e+00 1.000000000000e+00
    outer loop
      vertex 2.000000000000e-01 0.000000000000e+00 2.200000000000e-01
      vertex 1.077860000000e-01 -2.882000000000e-02 2.200000000000e-01
      vertex 1.169820000000e-01 -2.704800000000e-02 2.200000000000e-01
    endloop
  endfacet
  facet normal 0.000000000000e+00 0.000000000000e+00 1.000000000000e+00
    outer loop
      vertex 2.000000000000e-01 0.000000000000e+00 2.200000000000e-01
      vertex 1.169820000000e-01 -2.704800000000e-02 2.200000000000e-01
      vertex 1.261840000000e-01 -2.501200000000e-02 2.200000000000e-01
    endloop
  endfacet
  facet normal 0.000000000000e+00 0.000000000000e+00 1.000000000000e+00
    outer loop
      vertex 2.000000000000e-01 0.000000000000e+00 2.200000000000e-01
      vertex 1.261840000000e-01 -2.501200000000e-02 2.200000000000e-01
      vertex 1.352880000000e-01 -2.278200000000e-02 2.200000000000e-01
    endloop
  endfacet
  facet normal 0.000000000000e+00 0.000000000000e+00 1.000000000000e+00
    outer loop
      vertex 2.000000000000e-01 0.000000000000e+00 2.200000000000e-01
      vertex 1.352880000000e-01 -2.278200000000e-02 2.200000000000e-01
      vertex 1.441800000000e-01 -2.043000000000e-02 2.200000000000e-01
    endloop
  endfacet
  facet normal 0.000000000000e+00 0.000000000000e+00 1.000000000000e+00
    outer loop
      vertex 2.000000000000e-01 0.000000000000e+00 2.200000000000e-01
      vertex 1.441800000000e-01 -2.043000000000e-02 2.200000000000e-01
      vertex 1.527460000000e-01 -1.802000000000e-02 2.200000000000e-01
    endloop
  endfacet
  facet normal 0.000000000000e+00 0.000000000000e+00 1.000000000000e+00
    outer loop
      vertex 2.000000000000e-01 0.000000000000e+00 2.200000000000e-01
      vertex 1.527460000000e-01 -1.802000000000e-02 2.200000000000e-01
      vertex 1.608720000000e-01 -1.560600000000e-02 2.200000000000e-01
    endloop
  endfacet
  facet normal 0.000000000000e+00 0.000000000000e+00 1.000000000000e+00
    outer loop
      vertex 2.000000000000e-01 0.000000000000e+00 2.200000000000e-01
      vertex 1.608720000000e-01 -1.560600000000e-02 2.200000000000e-01
      vertex 1.684420000000e-01 -1.324000000000e-02 2.200000000000e-01
    endloop
  endfacet
  facet normal 0.000000000000e+00 0.000000000000e+00 1.000000000000e+00
    outer loop
      vertex 2.000000000000e-01 0.000000000000e+00 2.200000000000e-01
      vertex 1.684420000000e-01 -1.324000000000e-02 2.200000000000e-01
      vertex 1.753420000000e-01 -1.096200000000e-02 2.200000000000e-01
    endloop
  endfacet
  facet normal 0.000000000000e+00 0.000000000000e+00 1.000000000000e+00
    outer loop
      vertex 1.753420000000e-01 -1.096200000000e-02 2.200000000000e-01
      vertex 1.814680000000e-01 -8.800000000000e-03 2.200000000000e-01
      vertex 1.867160000000e-01 -6.752000000000e-03 2.200000000000e-01
    endloop
  endfacet
  facet normal 0.000000000000e+00 0.000000000000e+00 1.000000000000e+00
    outer loop
      vertex 1.753420000000e-01 -1.096200000000e-02 2.200000000000e-01
      vertex 1.867160000000e-01 -6.752000000000e-03 2.200000000000e-01
      vertex 1.910600000000e-01 -4.762000000000e-03 2.200000000000e-01
    endloop
  endfacet
  facet normal 0.000000000000e+00 0.000000000000e+00 1.000000000000e+00
    outer loop
      vertex 1.753420000000e-01 -1.096200000000e-02 2.200000000000e-01
      vertex 1.910600000000e-01 -4.762000000000e-03 2.200000000000e-01
      vertex 1.946080000000e-01 -2.868000000000e-03 2.200000000000e-01
    endloop
  endfacet
  facet normal 0.000000000000e+00 0.000000000000e+00 1.000000000000e+00
    outer loop
      vertex 1.753420000000e-01 -1.096200000000e-02 2.200000000000e-01
      vertex 1.946080000000e-01 -2.868000000000e-03 2.200000000000e-01
      vertex 1.974120000000e-01 -1.300000000000e-03 2.200000000000e-01
    endloop
  endfacet
  facet normal 0.000000000000e+00 0.000000000000e+00 1.000000000000e+00
    outer loop
      vertex 1.753420000000e-01 -1.096200000000e-02 2.200000000000e-01
      vertex 1.974120000000e-01 -1.300000000000e-03 2.200000000000e-01
      vertex 1.993100000000e-01 -3.180000000000e-04 2.200000000000e-01
    endloop
  endfacet
  facet normal 0.000000000000e+00 0.000000000000e+00 1.000000000000e+00
    outer loop
      vertex 1.753420000000e-01 -1.096200000000e-02 2.200000000000e-01
      vertex 1.993100000000e-01 -3.180000000000e-04 2.200000000000e-01
      vertex 2.000000000000e-01 0.000000000000e+00 2.200000000000e-01
    endloop
  endfacet
  facet normal -2.478713511283e-01 9.687929568746e-01 0.000000000000e+00
    outer loop
      vertex 1.992580000000e-01 -2.120000000000e-04 -2.000000000000e-02
      vertex 1.970380000000e-01 -7.800000000000e-04 -2.000000000000e-02
      vertex 1.970380000000e-01 -7.800000000000e-04 2.200000000000e-01
    endloop
  endfacet
  facet normal -2.478713511283e-01 9.687929568746e-01 0.000000000000e+00
    outer loop
      vertex 1.992580000000e-01 -2.120000000000e-04 -2.000000000000e-02
      vertex 1.970380000000e-01 -7.800000000000e-04 2.200000000000e-01
      vertex 1.992580000000e-01 -2.120000000000e-04 2.200000000000e-01
    endloop
  endfacet
  facet normal -2.159117693566e-01 9.764128777588e-01 0.000000000000e+00
    outer loop
      vertex 1.970380000000e-01 -7.800000000000e-04 -2.000000000000e-02
      vertex 1.933840000000e-01 -1.588000000000e-03 -2.000000000000e-02
      vertex 1.933840000000e-01 -1.588000000000e-03 2.200000000000e-01
    endloop
  endfacet
  facet normal -2.159117693566e-01 9.764128777588e-01 0.000000000000e+00
    outer loop
      vertex 1.970380000000e-01 -7.800000000000e-04 -2.000000000000e-02
      vertex 1.933840000000e-01 -1.588000000000e-03 2.200000000000e-01
      vertex 1.970380000000e-01 -7.800000000000e-04 2.200000000000e-01
    endloop
  endfacet
  facet normal -1.921342523935e-01 9.813686509448e-01 0.000000000000e+00
    outer loop
      vertex 1.933840000000e-01 -1.588000000000e-03 -2.000000000000e-02
      vertex 1.883580000000e-01 -2.572000000000e-03 -2.000000000000e-02
      vertex 1.883580000000e-01 -2.572000000000e-03 2.200000000000e-01
    endloop
  endfacet
  facet normal -1.921342523935e-01 9.813686509448e-01 0.000000000000e+00
    outer loop
      vertex 1.933840000000e-01 -1.588000000000e-03 -2.000000000000e-02
      vertex 1.883580000000e-01 -2.572000000000e-03 2.200000000000e-01
      vertex 1.933840000000e-01 -1.588000000000e-03 2.200000000000e-01
    endloop
  endfacet
  facet normal -1.735192321846e-01 9.848304808758e-01 0.000000000000e+00
    outer loop
      vertex 1.883580000000e-01 -2.572000000000e-03 -2.000000000000e-02
      vertex 1.820240000000e-01 -3.688000000000e-03 -2.000000000000e-02
      vertex 1.820240000000e-01 -3.688000000000e-03 2.200000000000e-01
    endloop
  endfacet
  facet normal -1.735192321846e-01 9.848304808758e-01 0.000000000000e+00
    outer loop
      vertex 1.883580000000e-01 -2.572000000000e-03 -2.000000000000e-02
      vertex 1.820240000000e-01 -3.688000000000e-03 2.200000000000e-01
      vertex 1.883580000000e-01 -2.572000000000e-03 2.200000000000e-01
    endloop
  endfacet
  facet normal -1.562433829802e-01 9.877185860734e-01 0.000000000000e+00
    outer loop
      vertex 1.820240000000e-01 -3.688000000000e-03 -2.000000000000e-02
      vertex 1.744380000000e-01 -4.888000000000e-03 -2.000000000000e-02
      vertex 1.744380000000e-01 -4.888000000000e-03 2.200000000000e-01
    endloop
  endfacet
  facet normal -1.562433829802e-01 9.877185860734e-01 0.000000000000e+00
    outer loop
      vertex 1.820240000000e-01 -3.688000000000e-03 -2.000000000000e-02
      vertex 1.744380000000e-01 -4.888000000000e-03 2.200000000000e-01
      vertex 1.820240000000e-01 -3.688000000000e-03 2.200000000000e-01
    endloop
  endfacet
  facet normal -1.369585955749e-01 9.905767729450e-01 0.000000000000e+00
    outer loop
      vertex 1.744380000000e-01 -4.888000000000e-03 -2.000000000000e-02
      vertex 1.656720000000e-01 -6.100000000000e-03 -2.000000000000e-02
      vertex 1.656720000000e-01 -6.100000000000e-03 2.200000000000e-01
    endloop
  endfacet
  facet normal -1.369585955749e-01 9.905767729450e-01 0.000000000000e+00
    outer loop
      vertex 1.744380000000e-01 -4.888000000000e-03 -2.000000000000e-02
      vertex 1.656720000000e-01 -6.100000000000e-03 2.200000000000e-01
      vertex 1.744380000000e-01 -4.888000000000e-03 2.200000000000e-01
    endloop
  endfacet
  facet normal -1.159868362444e-01 9.932507507261e-01 0.000000000000e+00
    outer loop
      vertex 1.656720000000e-01 -6.100000000000e-03 -2.000000000000e-02
      vertex 1.558240000000e-01 -7.250000000000e-03 -2.000000000000e-02
      vertex 1.558240000000e-01 -7.250000000000e-03 2.200000000000e-01
    endloop
  endfacet
  facet normal -1.159868362444e-01 9.932507507261e-01 0.000000000000e+00
    outer loop
      vertex 1.656720000000e-01 -6.100000000000e-03 -2.000000000000e-02
      vertex 1.558240000000e-01 -7.250000000000e-03 2.200000000000e-01
      vertex 1.656720000000e-01 -6.100000000000e-03 2.200000000000e-01
    endloop
  endfacet
  facet normal -9.222863122324e-02 9.957378568593e-01 0.000000000000e+00
    outer loop
      vertex 1.558240000000e-01 -7.250000000000e-03 -2.000000000000e-02
      vertex 1.450060000000e-01 -8.252000000000e-03 -2.000000000000e-02
      vertex 1.450060000000e-01 -8.252000000000e-03 2.200000000000e-01
    endloop
  endfacet
  facet normal -9.222863122324e-02 9.957378568593e-01 0.000000000000e+00
    outer loop
      vertex 1.558240000000e-01 -7.250000000000e-03 -2.000000000000e-02
      vertex 1.450060000000e-01 -8.252000000000e-03 2.200000000000e-01
      vertex 1.558240000000e-01 -7.250000000000e-03 2.200000000000e-01
    endloop
  endfacet
  facet normal -6.437676316546e-02 9.979256647488e-01 0.000000000000e+00
    outer loop
      vertex 1.450060000000e-01 -8.252000000000e-03 -2.000000000000e-02
      vertex 1.333800000000e-01 -9.002000000000e-03 -2.000000000000e-02
      vertex 1.333800000000e-01 -9.002000000000e-03 2.200000000000e-01
    endloop
  endfacet
  facet normal -6.437676316546e-02 9.979256647488e-01 0.000000000000e+00
    outer loop
      vertex 1.450060000000e-01 -8.252000000000e-03 -2.000000000000e-02
      vertex 1.333800000000e-01 -9.002000000000e-03 2.200000000000e-01
      vertex 1.450060000000e-01 -8.252000000000e-03 2.200000000000e-01
    endloop
  endfacet
  facet normal -3.499736615489e-02 9.993874045445e-01 0.000000000000e+00
    outer loop
      vertex 1.333800000000e-01 -9.002000000000e-03 -2.000000000000e-02
      vertex 1.211580000000e-01 -9.430000000000e-03 -2.000000000000e-02
      vertex 1.211580000000e-01 -9.430000000000e-03 2.200000000000e-01
    endloop
  endfacet
  facet normal -3.499736615489e-02 9.993874045445e-01 0.000000000000e+00
    outer loop
      vertex 1.333800000000e-01 -9.002000000000e-03 -2.000000000000e-02
      vertex 1.211580000000e-01 -9.430000000000e-03 2.200000000000e-01
      vertex 1.333800000000e-01 -9.002000000000e-03 2.200000000000e-01
    endloop
  endfacet
  facet normal -7.138143010940e-03 9.999745231326e-01 0.000000000000e+00
    outer loop
      vertex 1.211580000000e-01 -9.430000000000e-03 -2.000000000000e-02
      vertex 1.085500000000e-01 -9.520000000000e-03 -2.000000000000e-02
      vertex 1.085500000000e-01 -9.520000000000e-03 2.200000000000e-01
    endloop
  endfacet
  facet normal -7.138143010940e-03 9.999745231326e-01 0.000000000000e+00
    outer loop
      vertex 1.211580000000e-01 -9.430000000000e-03 -2.000000000000e-02
      vertex 1.085500000000e-01 -9.520000000000e-03 2.200000000000e-01
      vertex 1.211580000000e-01 -9.430000000000e-03 2.200000000000e-01
    endloop
  endfacet
  facet normal 2.090679018563e-02 9.997814291755e-01 0.000000000000e+00
    outer loop
      vertex 1.085500000000e-01 -9.520000000000e-03 -2.000000000000e-02
      vertex 9.573400000000e-02 -9.252000000000e-03 -2.000000000000e-02
      vertex 9.573400000000e-02 -9.252000000000e-03 2.200000000000e-01
    endloop
  endfacet
  facet normal 2.090679018563e-02 9.997814291755e-01 -0.000000000000e+00
    outer loop
      vertex 1.085500000000e-01 -9.520000000000e-03 -2.000000000000e-02
      vertex 9.573400000000e-02 -9.252000000000e-03 2.200000000000e-01
      vertex 1.085500000000e-01 -9.520000000000e-03 2.200000000000e-01
    endloop
  endfacet
  facet normal 5.336728081824e-02 9.985749512871e-01 0.000000000000e+00
    outer loop
      vertex 9.573400000000e-02 -9.252000000000e-03 -2.000000000000e-02
      vertex 8.289800000000e-02 -8.566000000000e-03 -2.000000000000e-02
      vertex 8.289800000000e-02 -8.566000000000e-03 2.200000000000e-01
    endloop
  endfacet
  facet normal 5.336728081824e-02 9.985749512871e-01 -0.000000000000e+00
    outer loop
      vertex 9.573400000000e-02 -9.252000000000e-03 -2.000000000000e-02
      vertex 8.289800000000e-02 -8.566000000000e-03 2.200000000000e-01
      vertex 9.573400000000e-02 -9.252000000000e-03 2.200000000000e-01
    endloop
  endfacet
  facet normal 9.439055137643e-02 9.955352448863e-01 0.000000000000e+00
    outer loop
      vertex 8.289800000000e-02 -8.566000000000e-03 -2.000000000000e-02
      vertex 7.032600000000e-02 -7.374000000000e-03 -2.000000000000e-02
      vertex 7.032600000000e-02 -7.374000000000e-03 2.200000000000e-01
    endloop
  endfacet
  facet normal 9.439055137643e-02 9.955352448863e-01 -0.000000000000e+00
    outer loop
      vertex 8.289800000000e-02 -8.566000000000e-03 -2.000000000000e-02
      vertex 7.032600000000e-02 -7.374000000000e-03 2.200000000000e-01
      vertex 8.289800000000e-02 -8.566000000000e-03 2.200000000000e-01
    endloop
  endfacet
  facet normal 1.364688562557e-01 9.906443616517e-01 0.000000000000e+00
    outer loop
      vertex 7.032600000000e-02 -7.374000000000e-03 -2.000000000000e-02
      vertex 5.839200000000e-02 -5.730000000000e-03 -2.000000000000e-02
      vertex 5.839200000000e-02 -5.730000000000e-03 2.200000000000e-01
    endloop
  endfacet
  facet normal 1.364688562557e-01 9.906443616517e-01 -0.000000000000e+00
    outer loop
      vertex 7.032600000000e-02 -7.374000000000e-03 -2.000000000000e-02
      vertex 5.839200000000e-02 -5.730000000000e-03 2.200000000000e-01
      vertex 7.032600000000e-02 -7.374000000000e-03 2.200000000000e-01
    endloop
  endfacet
  facet normal 1.703142852185e-01 9.853897930517e-01 0.000000000000e+00
    outer loop
      vertex 5.839200000000e-02 -5.730000000000e-03 -2.000000000000e-02
      vertex 5.000000000000e-02 -4.279530864200e-03 -2.000000000000e-02
      vertex 5.000000000000e-02 -4.279530864200e-03 2.200000000000e-01
    endloop
  endfacet
  facet normal 1.703142852185e-01 9.853897930517e-01 -0.000000000000e+00
    outer loop
      vertex 5.839200000000e-02 -5.730000000000e-03 -2.000000000000e-02
      vertex 5.000000000000e-02 -4.279530864200e-03 2.200000000000e-01
      vertex 5.839200000000e-02 -5.730000000000e-03 2.200000000000e-01
    endloop
  endfacet
  facet normal 1.703142852197e-01 9.853897930515e-01 0.000000000000e+00
    outer loop
      vertex 5.000000000000e-02 -4.279530864200e-03 -2.000000000000e-02
      vertex 4.737600000000e-02 -3.826000000000e-03 -2.000000000000e-02
      vertex 4.737600000000e-02 -3.826000000000e-03 2.200000000000e-01
    endloop
  endfacet
  facet normal 1.703142852197e-01 9.853897930515e-01 -0.000000000000e+00
    outer loop
      vertex 5.000000000000e-02 -4.279530864200e-03 -2.000000000000e-02
      vertex 4.737600000000e-02 -3.826000000000e-03 2.200000000000e-01
      vertex 5.000000000000e-02 -4.279530864200e-03 2.200000000000e-01
    endloop
  endfacet
  facet normal 1.958880524610e-01 9.806262646406e-01 0.000000000000e+00
    outer loop
      vertex 4.737600000000e-02 -3.826000000000e-03 -2.000000000000e-02
      vertex 3.745400000000e-02 -1.844000000000e-03 -2.000000000000e-02
      vertex 3.745400000000e-02 -1.844000000000e-03 2.200000000000e-01
    endloop
  endfacet
  facet normal 1.958880524610e-01 9.806262646406e-01 -0.000000000000e+00
    outer loop
      vertex 4.737600000000e-02 -3.826000000000e-03 -2.000000000000e-02
      vertex 3.745400000000e-02 -1.844000000000e-03 2.200000000000e-01
      vertex 4.737600000000e-02 -3.826000000000e-03 2.200000000000e-01
    endloop
  endfacet
  facet normal 2.081443266152e-01 9.780981235530e-01 0.000000000000e+00
    outer loop
      vertex 3.745400000000e-02 -1.844000000000e-03 -2.000000000000e-02
      vertex 2.877000000000e-02 4.000000000000e-06 -2.000000000000e-02
      vertex 2.877000000000e-02 4.000000000000e-06 2.200000000000e-01
    endloop
  endfacet
  facet normal 2.081443266152e-01 9.780981235530e-01 -0.000000000000e+00
    outer loop
      vertex 3.745400000000e-02 -1.844000000000e-03 -2.000000000000e-02
      vertex 2.877000000000e-02 4.000000000000e-06 2.200000000000e-01
      vertex 3.745400000000e-02 -1.844000000000e-03 2.200000000000e-01
    endloop
  endfacet
  facet normal 1.948466446568e-01 9.808337193765e-01 0.000000000000e+00
    outer loop
      vertex 2.877000000000e-02 4.000000000000e-06 -2.000000000000e-02
      vertex 2.134000000000e-02 1.480000000000e-03 -2.000000000000e-02
      vertex 2.134000000000e-02 1.480000000000e-03 2.200000000000e-01
    endloop
  endfacet
  facet normal 1.948466446568e-01 9.808337193765e-01 -0.000000000000e+00
    outer loop
      vertex 2.877000000000e-02 4.000000000000e-06 -2.000000000000e-02
      vertex 2.134000000000e-02 1.480000000000e-03 2.200000000000e-01
      vertex 2.877000000000e-02 4.000000000000e-06 2.200000000000e-01
    endloop
  endfacet
  facet normal 1.561727632315e-01 9.877297545506e-01 0.000000000000e+00
    outer loop
      vertex 2.134000000000e-02 1.480000000000e-03 -2.000000000000e-02
      vertex 1.506600000000e-02 2.472000000000e-03 -2.000000000000e-02
      vertex 1.506600000000e-02 2.472000000000e-03 2.200000000000e-01
    endloop
  endfacet
  facet normal 1.561727632315e-01 9.877297545506e-01 -0.000000000000e+00
    outer loop
      vertex 2.134000000000e-02 1.480000000000e-03 -2.000000000000e-02
      vertex 1.506600000000e-02 2.472000000000e-03 2.200000000000e-01
      vertex 2.134000000000e-02 1.480000000000e-03 2.200000000000e-01
    endloop
  endfacet
  facet normal 9.470009222757e-02 9.955058475630e-01 0.000000000000e+00
    outer loop
      vertex 1.506600000000e-02 2.472000000000e-03 -2.000000000000e-02
      vertex 9.894000000000e-03 2.964000000000e-03 -2.000000000000e-02
      vertex 9.894000000000e-03 2.964000000000e-03 2.200000000000e-01
    endloop
  endfacet
  facet normal 9.470009222757e-02 9.955058475630e-01 -0.000000000000e+00
    outer loop
      vertex 1.506600000000e-02 2.472000000000e-03 -2.000000000000e-02
      vertex 9.894000000000e-03 2.964000000000e-03 2.200000000000e-01
      vertex 1.506600000000e-02 2.472000000000e-03 2.200000000000e-01
    endloop
  endfacet
  facet normal 1.459852459000e-03 9.999989344148e-01 0.000000000000e+00
    outer loop
      vertex 9.894000000000e-03 2.964000000000e-03 -2.000000000000e-02
      vertex 5.784000000000e-03 2.970000000000e-03 -2.000000000000e-02
      vertex 5.784000000000e-03 2.970000000000e-03 2.200000000000e-01
    endloop
  endfacet
  facet normal 1.459852459000e-03 9.999989344148e-01 -0.000000000000e+00
    outer loop
      vertex 9.894000000000e-03 2.964000000000e-03 -2.000000000000e-02
      vertex 5.784000000000e-03 2.970000000000e-03 2.200000000000e-01
      vertex 9.894000000000e-03 2.964000000000e-03 2.200000000000e-01
    endloop
  endfacet
  facet normal -1.419658614349e-01 9.898715543883e-01 0.000000000000e+00
    outer loop
      vertex 5.784000000000e-03 2.970000000000e-03 -2.000000000000e-02
      vertex 2.730000000000e-03 2.532000000000e-03 -2.000000000000e-02
      vertex 2.730000000000e-03 2.532000000000e-03 2.200000000000e-01
    endloop
  endfacet
  facet normal -1.419658614349e-01 9.898715543883e-01 0.000000000000e+00
    outer loop
      vertex 5.784000000000e-03 2.970000000000e-03 -2.000000000000e-02
      vertex 2.730000000000e-03 2.532000000000e-03 2.200000000000e-01
      vertex 5.784000000000e-03 2.970000000000e-03 2.200000000000e-01
    endloop
  endfacet
  facet normal -2.844147310868e-01 9.587013407422e-01 0.000000000000e+00
    outer loop
      vertex 2.730000000000e-03 2.532000000000e-03 -2.000000000000e-02
      vertex 2.130000000000e-03 2.354000000000e-03 -2.000000000000e-02
      vertex 2.130000000000e-03 2.354000000000e-03 2.200000000000e-01
    endloop
  endfacet
  facet normal -2.844147310868e-01 9.587013407422e-01 0.000000000000e+00
    outer loop
      vertex 2.730000000000e-03 2.532000000000e-03 -2.000000000000e-02
      vertex 2.130000000000e-03 2.354000000000e-03 2.200000000000e-01
      vertex 2.730000000000e-03 2.532000000000e-03 2.200000000000e-01
    endloop
  endfacet
  facet normal -3.569847887560e-01 9.341101972449e-01 0.000000000000e+00
    outer loop
      vertex 2.130000000000e-03 2.354000000000e-03 -2.000000000000e-02
      vertex 1.502000000000e-03 2.114000000000e-03 -2.000000000000e-02
      vertex 1.502000000000e-03 2.114000000000e-03 2.200000000000e-01
    endloop
  endfacet
  facet normal -3.569847887560e-01 9.341101972449e-01 0.000000000000e+00
    outer loop
      vertex 2.130000000000e-03 2.354000000000e-03 -2.000000000000e-02
      vertex 1.502000000000e-03 2.114000000000e-03 2.200000000000e-01
      vertex 2.130000000000e-03 2.354000000000e-03 2.200000000000e-01
    endloop
  endfacet
  facet normal -4.392101320049e-01 8.983843609192e-01 0.000000000000e+00
    outer loop
      vertex 1.502000000000e-03 2.114000000000e-03 -2.000000000000e-02
      vertex 1.142000000000e-03 1.938000000000e-03 -2.000000000000e-02
      vertex 1.142000000000e-03 1.938000000000e-03 2.200000000000e-01
    endloop
  endfacet
  facet normal -4.392101320049e-01 8.983843609192e-01 0.000000000000e+00
    outer loop
      vertex 1.502000000000e-03 2.114000000000e-03 -2.000000000000e-02
      vertex 1.142000000000e-03 1.938000000000e-03 2.200000000000e-01
      vertex 1.502000000000e-03 2.114000000000e-03 2.200000000000e-01
    endloop
  endfacet
  facet normal -5.201206243411e-01 8.540928147075e-01 0.000000000000e+00
    outer loop
      vertex 1.142000000000e-03 1.938000000000e-03 -2.000000000000e-02
      vertex 8.300000000000e-04 1.748000000000e-03 -2.000000000000e-02
      vertex 8.300000000000e-04 1.748000000000e-03 2.200000000000e-01
    endloop
  endfacet
  facet normal -5.201206243411e-01 8.540928147075e-01 0.000000000000e+00
    outer loop
      vertex 1.142000000000e-03 1.938000000000e-03 -2.000000000000e-02
      vertex 8.300000000000e-04 1.748000000000e-03 2.200000000000e-01
      vertex 1.142000000000e-03 1.938000000000e-03 2.200000000000e-01
    endloop
  endfacet
  facet normal -6.056853349428e-01 7.957042635523e-01 0.000000000000e+00
    outer loop
      vertex 8.300000000000e-04 1.748000000000e-03 -2.000000000000e-02
      vertex 6.960000000000e-04 1.646000000000e-03 -2.000000000000e-02
      vertex 6.960000000000e-04 1.646000000000e-03 2.200000000000e-01
    endloop
  endfacet
  facet normal -6.056853349428e-01 7.957042635523e-01 0.000000000000e+00
    outer loop
      vertex 8.300000000000e-04 1.748000000000e-03 -2.000000000000e-02
      vertex 6.960000000000e-04 1.646000000000e-03 2.200000000000e-01
      vertex 8.300000000000e-04 1.748000000000e-03 2.200000000000e-01
    endloop
  endfacet
  facet normal -6.549305384178e-01 7.556890827898e-01 0.000000000000e+00
    outer loop
      vertex 6.960000000000e-04 1.646000000000e-03 -2.000000000000e-02
      vertex 5.760000000000e-04 1.542000000000e-03 -2.000000000000e-02
      vertex 5.760000000000e-04 1.542000000000e-03 2.200000000000e-01
    endloop
  endfacet
  facet normal -6.549305384178e-01 7.556890827898e-01 0.000000000000e+00
    outer loop
      vertex 6.960000000000e-04 1.646000000000e-03 -2.000000000000e-02
      vertex 5.760000000000e-04 1.542000000000e-03 2.200000000000e-01
      vertex 6.960000000000e-04 1.646000000000e-03 2.200000000000e-01
    endloop
  endfacet
  facet normal -7.270131525498e-01 6.866235329637e-01 0.000000000000e+00
    outer loop
      vertex 5.760000000000e-04 1.542000000000e-03 -2.000000000000e-02
      vertex 4.740000000000e-04 1.434000000000e-03 -2.000000000000e-02
      vertex 4.740000000000e-04 1.434000000000e-03 2.200000000000e-01
    endloop
  endfacet
  facet normal -7.270131525498e-01 6.866235329637e-01 0.000000000000e+00
    outer loop
      vertex 5.760000000000e-04 1.542000000000e-03 -2.000000000000e-02
      vertex 4.740000000000e-04 1.434000000000e-03 2.200000000000e-01
      vertex 5.760000000000e-04 1.542000000000e-03 2.200000000000e-01
    endloop
  endfacet
  facet normal -8.173390287826e-01 5.761570202894e-01 0.000000000000e+00
    outer loop
      vertex 4.740000000000e-04 1.434000000000e-03 -2.000000000000e-02
      vertex 3.880000000000e-04 1.312000000000e-03 -2.000000000000e-02
      vertex 3.880000000000e-04 1.312000000000e-03 2.200000000000e-01
    endloop
  endfacet
  facet normal -8.173390287826e-01 5.761570202894e-01 0.000000000000e+00
    outer loop
      vertex 4.740000000000e-04 1.434000000000e-03 -2.000000000000e-02
      vertex 3.880000000000e-04 1.312000000000e-03 2.200000000000e-01
      vertex 4.740000000000e-04 1.434000000000e-03 2.200000000000e-01
    endloop
  endfacet
  facet normal -8.722805526007e-01 4.890057643368e-01 0.000000000000e+00
    outer loop
      vertex 3.880000000000e-04 1.312000000000e-03 -2.000000000000e-02
      vertex 3.140000000000e-04 1.180000000000e-03 -2.000000000000e-02
      vertex 3.140000000000e-04 1.180000000000e-03 2.200000000000e-01
    endloop
  endfacet
  facet normal -8.722805526007e-01 4.890057643368e-01 0.000000000000e+00
    outer loop
      vertex 3.880000000000e-04 1.312000000000e-03 -2.000000000000e-02
      vertex 3.140000000000e-04 1.180000000000e-03 2.200000000000e-01
      vertex 3.880000000000e-04 1.312000000000e-03 2.200000000000e-01
    endloop
  endfacet
  facet normal -9.138115486203e-01 4.061384660534e-01 0.000000000000e+00
    outer loop
      vertex 3.140000000000e-04 1.180000000000e-03 -2.000000000000e-02
      vertex 2.500000000000e-04 1.036000000000e-03 -2.000000000000e-02
      vertex 2.500000000000e-04 1.036000000000e-03 2.200000000000e-01
    endloop
  endfacet
  facet normal -9.138115486203e-01 4.061384660534e-01 0.000000000000e+00
    outer loop
      vertex 3.140000000000e-04 1.180000000000e-03 -2.000000000000e-02
      vertex 2.500000000000e-04 1.036000000000e-03 2.200000000000e-01
      vertex 3.140000000000e-04 1.180000000000e-03 2.200000000000e-01
    endloop
  endfacet
  facet normal -9.449860734403e-01 3.271105638832e-01 0.000000000000e+00
    outer loop
      vertex 2.500000000000e-04 1.036000000000e-03 -2.000000000000e-02
      vertex 1.420000000000e-04 7.240000000000e-04 -2.000000000000e-02
      vertex 1.420000000000e-04 7.240000000000e-04 2.200000000000e-01
    endloop
  endfacet
  facet normal -9.449860734403e-01 3.271105638832e-01 0.000000000000e+00
    outer loop
      vertex 2.500000000000e-04 1.036000000000e-03 -2.000000000000e-02
      vertex 1.420000000000e-04 7.240000000000e-04 2.200000000000e-01
      vertex 2.500000000000e-04 1.036000000000e-03 2.200000000000e-01
    endloop
  endfacet
  facet normal -9.759161534263e-01 2.181459637070e-01 0.000000000000e+00
    outer loop
      vertex 1.420000000000e-04 7.240000000000e-04 -2.000000000000e-02
      vertex 6.600000000000e-05 3.840000000000e-04 -2.000000000000e-02
      vertex 6.600000000000e-05 3.840000000000e-04 2.200000000000e-01
    endloop
  endfacet
  facet normal -9.759161534263e-01 2.181459637070e-01 0.000000000000e+00
    outer loop
      vertex 1.420000000000e-04 7.240000000000e-04 -2.000000000000e-02
      vertex 6.600000000000e-05 3.840000000000e-04 2.200000000000e-01
      vertex 1.420000000000e-04 7.240000000000e-04 2.200000000000e-01
    endloop
  endfacet
  facet normal -9.855488907598e-01 1.693912155993e-01 0.000000000000e+00
    outer loop
      vertex 6.600000000000e-05 3.840000000000e-04 -2.000000000000e-02
      vertex 0.000000000000e+00 0.000000000000e+00 -2.000000000000e-02
      vertex 0.000000000000e+00 0.000000000000e+00 2.200000000000e-01
    endloop
  endfacet
  facet normal -9.855488907598e-01 1.693912155993e-01 0.000000000000e+00
    outer loop
      vertex 6.600000000000e-05 3.840000000000e-04 -2.000000000000e-02
      vertex 0.000000000000e+00 0.000000000000e+00 2.200000000000e-01
      vertex 6.600000000000e-05 3.840000000000e-04 2.200000000000e-01
    endloop
  endfacet
  facet normal -9.997418355449e-01 -2.272140535329e-02 0.000000000000e+00
    outer loop
      vertex 0.000000000000e+00 0.000000000000e+00 -2.000000000000e-02
      vertex 4.000000000000e-06 -1.760000000000e-04 -2.000000000000e-02
      vertex 4.000000000000e-06 -1.760000000000e-04 2.200000000000e-01
    endloop
  endfacet
  facet normal -9.997418355449e-01 -2.272140535329e-02 0.000000000000e+00
    outer loop
      vertex 0.000000000000e+00 0.000000000000e+00 -2.000000000000e-02
      vertex 4.000000000000e-06 -1.760000000000e-04 2.200000000000e-01
      vertex 0.000000000000e+00 0.000000000000e+00 2.200000000000e-01
    endloop
  endfacet
  facet normal -9.962169218705e-01 -8.690134969540e-02 0.000000000000e+00
    outer loop
      vertex 4.000000000000e-06 -1.760000000000e-04 -2.000000000000e-02
      vertex 1.420000000000e-04 -1.758000000000e-03 -2.000000000000e-02
      vertex 1.420000000000e-04 -1.758000000000e-03 2.200000000000e-01
    endloop
  endfacet
  facet normal -9.962169218705e-01 -8.690134969540e-02 0.000000000000e+00
    outer loop
      vertex 4.000000000000e-06 -1.760000000000e-04 -2.000000000000e-02
      vertex 1.420000000000e-04 -1.758000000000e-03 2.200000000000e-01
      vertex 4.000000000000e-06 -1.760000000000e-04 2.200000000000e-01
    endloop
  endfacet
  facet normal -9.474272337022e-01 -3.199713062750e-01 0.000000000000e+00
    outer loop
      vertex 1.420000000000e-04 -1.758000000000e-03 -2.000000000000e-02
      vertex 9.620000000000e-04 -4.186000000000e-03 -2.000000000000e-02
      vertex 9.620000000000e-04 -4.186000000000e-03 2.200000000000e-01
    endloop
  endfacet
  facet normal -9.474272337022e-01 -3.199713062750e-01 0.000000000000e+00
    outer loop
      vertex 1.420000000000e-04 -1.758000000000e-03 -2.000000000000e-02
      vertex 9.620000000000e-04 -4.186000000000e-03 2.200000000000e-01
      vertex 1.420000000000e-04 -1.758000000000e-03 2.200000000000e-01
    endloop
  endfacet
  facet normal -8.616501006249e-01 -5.075028119065e-01 0.000000000000e+00
    outer loop
      vertex 9.620000000000e-04 -4.186000000000e-03 -2.000000000000e-02
      vertex 2.524000000000e-03 -6.838000000000e-03 -2.000000000000e-02
      vertex 2.524000000000e-03 -6.838000000000e-03 2.200000000000e-01
    endloop
  endfacet
  facet normal -8.616501006249e-01 -5.075028119065e-01 0.000000000000e+00
    outer loop
      vertex 9.620000000000e-04 -4.186000000000e-03 -2.000000000000e-02
      vertex 2.524000000000e-03 -6.838000000000e-03 2.200000000000e-01
      vertex 9.620000000000e-04 -4.186000000000e-03 2.200000000000e-01
    endloop
  endfacet
  facet normal -7.687186117776e-01 -6.395871292535e-01 0.000000000000e+00
    outer loop
      vertex 2.524000000000e-03 -6.838000000000e-03 -2.000000000000e-02
      vertex 4.842000000000e-03 -9.624000000000e-03 -2.000000000000e-02
      vertex 4.842000000000e-03 -9.624000000000e-03 2.200000000000e-01
    endloop
  endfacet
  facet normal -7.687186117776e-01 -6.395871292535e-01 0.000000000000e+00
    outer loop
      vertex 2.524000000000e-03 -6.838000000000e-03 -2.000000000000e-02
      vertex 4.842000000000e-03 -9.624000000000e-03 2.200000000000e-01
      vertex 2.524000000000e-03 -6.838000000000e-03 2.200000000000e-01
    endloop
  endfacet
  facet normal -6.797897882598e-01 -7.334070109958e-01 0.000000000000e+00
    outer loop
      vertex 4.842000000000e-03 -9.624000000000e-03 -2.000000000000e-02
      vertex 7.906000000000e-03 -1.246400000000e-02 -2.000000000000e-02
      vertex 7.906000000000e-03 -1.246400000000e-02 2.200000000000e-01
    endloop
  endfacet
  facet normal -6.797897882598e-01 -7.334070109958e-01 0.000000000000e+00
    outer loop
      vertex 4.842000000000e-03 -9.624000000000e-03 -2.000000000000e-02
      vertex 7.906000000000e-03 -1.246400000000e-02 2.200000000000e-01
      vertex 4.842000000000e-03 -9.624000000000e-03 2.200000000000e-01
    endloop
  endfacet
  facet normal -5.972256797603e-01 -8.020732431859e-01 0.000000000000e+00
    outer loop
      vertex 7.906000000000e-03 -1.246400000000e-02 -2.000000000000e-02
      vertex 1.170400000000e-02 -1.529200000000e-02 -2.000000000000e-02
      vertex 1.170400000000e-02 -1.529200000000e-02 2.200000000000e-01
    endloop
  endfacet
  facet normal -5.972256797603e-01 -8.020732431859e-01 0.000000000000e+00
    outer loop
      vertex 7.906000000000e-03 -1.246400000000e-02 -2.000000000000e-02
      vertex 1.170400000000e-02 -1.529200000000e-02 2.200000000000e-01
      vertex 7.906000000000e-03 -1.246400000000e-02 2.200000000000e-01
    endloop
  endfacet
  facet normal -5.213274919272e-01 -8.533566933943e-01 0.000000000000e+00
    outer loop
      vertex 1.170400000000e-02 -1.529200000000e-02 -2.000000000000e-02
      vertex 1.621200000000e-02 -1.804600000000e-02 -2.000000000000e-02
      vertex 1.621200000000e-02 -1.804600000000e-02 2.200000000000e-01
    endloop
  endfacet
  facet normal -5.213274919272e-01 -8.533566933943e-01 0.000000000000e+00
    outer loop
      vertex 1.170400000000e-02 -1.529200000000e-02 -2.000000000000e-02
      vertex 1.621200000000e-02 -1.804600000000e-02 2.200000000000e-01
      vertex 1.170400000000e-02 -1.529200000000e-02 2.200000000000e-01
    endloop
  endfacet
  facet normal -4.518845204718e-01 -8.920764430014e-01 0.000000000000e+00
    outer loop
      vertex 1.621200000000e-02 -1.804600000000e-02 -2.000000000000e-02
      vertex 2.140000000000e-02 -2.067400000000e-02 -2.000000000000e-02
      vertex 2.140000000000e-02 -2.067400000000e-02 2.200000000000e-01
    endloop
  endfacet
  facet normal -4.518845204718e-01 -8.920764430014e-01 0.000000000000e+00
    outer loop
      vertex 1.621200000000e-02 -1.804600000000e-02 -2.000000000000e-02
      vertex 2.140000000000e-02 -2.067400000000e-02 2.200000000000e-01
      vertex 1.621200000000e-02 -1.804600000000e-02 2.200000000000e-01
    endloop
  endfacet
  facet normal -3.878729738365e-01 -9.217128382350e-01 0.000000000000e+00
    outer loop
      vertex 2.140000000000e-02 -2.067400000000e-02 -2.000000000000e-02
      vertex 2.722200000000e-02 -2.312400000000e-02 -2.000000000000e-02
      vertex 2.722200000000e-02 -2.312400000000e-02 2.200000000000e-01
    endloop
  endfacet
  facet normal -3.878729738365e-01 -9.217128382350e-01 0.000000000000e+00
    outer loop
      vertex 2.140000000000e-02 -2.067400000000e-02 -2.000000000000e-02
      vertex 2.722200000000e-02 -2.312400000000e-02 2.200000000000e-01
      vertex 2.140000000000e-02 -2.067400000000e-02 2.200000000000e-01
    endloop
  endfacet
  facet normal -3.283148618609e-01 -9.445683413503e-01 0.000000000000e+00
    outer loop
      vertex 2.722200000000e-02 -2.312400000000e-02 -2.000000000000e-02
      vertex 3.363200000000e-02 -2.535200000000e-02 -2.000000000000e-02
      vertex 3.363200000000e-02 -2.535200000000e-02 2.200000000000e-01
    endloop
  endfacet
  facet normal -3.283148618609e-01 -9.445683413503e-01 0.000000000000e+00
    outer loop
      vertex 2.722200000000e-02 -2.312400000000e-02 -2.000000000000e-02
      vertex 3.363200000000e-02 -2.535200000000e-02 2.200000000000e-01
      vertex 2.722200000000e-02 -2.312400000000e-02 2.200000000000e-01
    endloop
  endfacet
  facet normal -2.720463275005e-01 -9.622841553790e-01 0.000000000000e+00
    outer loop
      vertex 3.363200000000e-02 -2.535200000000e-02 -2.000000000000e-02
      vertex 4.057200000000e-02 -2.731400000000e-02 -2.000000000000e-02
      vertex 4.057200000000e-02 -2.731400000000e-02 2.200000000000e-01
    endloop
  endfacet
  facet normal -2.720463275005e-01 -9.622841553790e-01 0.000000000000e+00
    outer loop
      vertex 3.363200000000e-02 -2.535200000000e-02 -2.000000000000e-02
      vertex 4.057200000000e-02 -2.731400000000e-02 2.200000000000e-01
      vertex 3.363200000000e-02 -2.535200000000e-02 2.200000000000e-01
    endloop
  endfacet
  facet normal -2.183261834827e-01 -9.758758515333e-01 0.000000000000e+00
    outer loop
      vertex 4.057200000000e-02 -2.731400000000e-02 -2.000000000000e-02
      vertex 4.797400000000e-02 -2.897000000000e-02 -2.000000000000e-02
      vertex 4.797400000000e-02 -2.897000000000e-02 2.200000000000e-01
    endloop
  endfacet
  facet normal -2.183261834827e-01 -9.758758515333e-01 0.000000000000e+00
    outer loop
      vertex 4.057200000000e-02 -2.731400000000e-02 -2.000000000000e-02
      vertex 4.797400000000e-02 -2.897000000000e-02 2.200000000000e-01
      vertex 4.057200000000e-02 -2.731400000000e-02 2.200000000000e-01
    endloop
  endfacet
  facet normal -1.652195231916e-01 -9.862568170392e-01 0.000000000000e+00
    outer loop
      vertex 4.797400000000e-02 -2.897000000000e-02 -2.000000000000e-02
      vertex 5.000000000000e-02 -2.930939917900e-02 -2.000000000000e-02
      vertex 5.000000000000e-02 -2.930939917900e-02 2.200000000000e-01
    endloop
  endfacet
  facet normal -1.652195231916e-01 -9.862568170392e-01 0.000000000000e+00
    outer loop
      vertex 4.797400000000e-02 -2.897000000000e-02 -2.000000000000e-02
      vertex 5.000000000000e-02 -2.930939917900e-02 2.200000000000e-01
      vertex 4.797400000000e-02 -2.897000000000e-02 2.200000000000e-01
    endloop
  endfacet
  facet normal -1.652195232340e-01 -9.862568170321e-01 0.000000000000e+00
    outer loop
      vertex 5.000000000000e-02 -2.930939917900e-02 -2.000000000000e-02
      vertex 5.577000000000e-02 -3.027600000000e-02 -2.000000000000e-02
      vertex 5.577000000000e-02 -3.027600000000e-02 2.200000000000e-01
    endloop
  endfacet
  facet normal -1.652195232340e-01 -9.862568170321e-01 0.000000000000e+00
    outer loop
      vertex 5.000000000000e-02 -2.930939917900e-02 -2.000000000000e-02
      vertex 5.577000000000e-02 -3.027600000000e-02 2.200000000000e-01
      vertex 5.000000000000e-02 -2.930939917900e-02 2.200000000000e-01
    endloop
  endfacet
  facet normal -1.105926514091e-01 -9.938658186367e-01 0.000000000000e+00
    outer loop
      vertex 5.577000000000e-02 -3.027600000000e-02 -2.000000000000e-02
      vertex 6.389400000000e-02 -3.118000000000e-02 -2.000000000000e-02
      vertex 6.389400000000e-02 -3.118000000000e-02 2.200000000000e-01
    endloop
  endfacet
  facet normal -1.105926514091e-01 -9.938658186367e-01 0.000000000000e+00
    outer loop
      vertex 5.577000000000e-02 -3.027600000000e-02 -2.000000000000e-02
      vertex 6.389400000000e-02 -3.118000000000e-02 2.200000000000e-01
      vertex 5.577000000000e-02 -3.027600000000e-02 2.200000000000e-01
    endloop
  endfacet
  facet normal -5.560162060960e-02 -9.984530333399e-01 0.000000000000e+00
    outer loop
      vertex 6.389400000000e-02 -3.118000000000e-02 -2.000000000000e-02
      vertex 7.229800000000e-02 -3.164800000000e-02 -2.000000000000e-02
      vertex 7.229800000000e-02 -3.164800000000e-02 2.200000000000e-01
    endloop
  endfacet
  facet normal -5.560162060960e-02 -9.984530333399e-01 0.000000000000e+00
    outer loop
      vertex 6.389400000000e-02 -3.118000000000e-02 -2.000000000000e-02
      vertex 7.229800000000e-02 -3.164800000000e-02 2.200000000000e-01
      vertex 6.389400000000e-02 -3.118000000000e-02 2.200000000000e-01
    endloop
  endfacet
  facet normal -9.269984429543e-04 -9.999995703369e-01 0.000000000000e+00
    outer loop
      vertex 7.229800000000e-02 -3.164800000000e-02 -2.000000000000e-02
      vertex 8.092800000000e-02 -3.165600000000e-02 -2.000000000000e-02
      vertex 8.092800000000e-02 -3.165600000000e-02 2.200000000000e-01
    endloop
  endfacet
  facet normal -9.269984429543e-04 -9.999995703369e-01 0.000000000000e+00
    outer loop
      vertex 7.229800000000e-02 -3.164800000000e-02 -2.000000000000e-02
      vertex 8.092800000000e-02 -3.165600000000e-02 2.200000000000e-01
      vertex 7.229800000000e-02 -3.164800000000e-02 2.200000000000e-01
    endloop
  endfacet
  facet normal 5.326065622592e-02 -9.985806439634e-01 0.000000000000e+00
    outer loop
      vertex 8.092800000000e-02 -3.165600000000e-02 -2.000000000000e-02
      vertex 8.974000000000e-02 -3.118600000000e-02 -2.000000000000e-02
      vertex 8.974000000000e-02 -3.118600000000e-02 2.200000000000e-01
    endloop
  endfacet
  facet normal 5.326065622592e-02 -9.985806439634e-01 0.000000000000e+00
    outer loop
      vertex 8.092800000000e-02 -3.165600000000e-02 -2.000000000000e-02
      vertex 8.974000000000e-02 -3.118600000000e-02 2.200000000000e-01
      vertex 8.092800000000e-02 -3.165600000000e-02 2.200000000000e-01
    endloop
  endfacet
  facet normal 1.059449281828e-01 -9.943719988980e-01 0.000000000000e+00
    outer loop
      vertex 8.974000000000e-02 -3.118600000000e-02 -2.000000000000e-02
      vertex 9.869400000000e-02 -3.023200000000e-02 -2.000000000000e-02
      vertex 9.869400000000e-02 -3.023200000000e-02 2.200000000000e-01
    endloop
  endfacet
  facet normal 1.059449281828e-01 -9.943719988980e-01 0.000000000000e+00
    outer loop
      vertex 8.974000000000e-02 -3.118600000000e-02 -2.000000000000e-02
      vertex 9.869400000000e-02 -3.023200000000e-02 2.200000000000e-01
      vertex 8.974000000000e-02 -3.118600000000e-02 2.200000000000e-01
    endloop
  endfacet
  facet normal 1.534617551903e-01 -9.881545879537e-01 0.000000000000e+00
    outer loop
      vertex 9.869400000000e-02 -3.023200000000e-02 -2.000000000000e-02
      vertex 1.077860000000e-01 -2.882000000000e-02 -2.000000000000e-02
      vertex 1.077860000000e-01 -2.882000000000e-02 2.200000000000e-01
    endloop
  endfacet
  facet normal 1.534617551903e-01 -9.881545879537e-01 0.000000000000e+00
    outer loop
      vertex 9.869400000000e-02 -3.023200000000e-02 -2.000000000000e-02
      vertex 1.077860000000e-01 -2.882000000000e-02 2.200000000000e-01
      vertex 9.869400000000e-02 -3.023200000000e-02 2.200000000000e-01
    endloop
  endfacet
  facet normal 1.892117379844e-01 -9.819363106683e-01 0.000000000000e+00
    outer loop
      vertex 1.077860000000e-01 -2.882000000000e-02 -2.000000000000e-02
      vertex 1.169820000000e-01 -2.704800000000e-02 -2.000000000000e-02
      vertex 1.169820000000e-01 -2.704800000000e-02 2.200000000000e-01
    endloop
  endfacet
  facet normal 1.892117379844e-01 -9.819363106683e-01 0.000000000000e+00
    outer loop
      vertex 1.077860000000e-01 -2.882000000000e-02 -2.000000000000e-02
      vertex 1.169820000000e-01 -2.704800000000e-02 2.200000000000e-01
      vertex 1.077860000000e-01 -2.882000000000e-02 2.200000000000e-01
    endloop
  endfacet
  facet normal 2.160315865923e-01 -9.763863751581e-01 0.000000000000e+00
    outer loop
      vertex 1.169820000000e-01 -2.704800000000e-02 -2.000000000000e-02
      vertex 1.261840000000e-01 -2.501200000000e-02 -2.000000000000e-02
      vertex 1.261840000000e-01 -2.501200000000e-02 2.200000000000e-01
    endloop
  endfacet
  facet normal 2.160315865923e-01 -9.763863751581e-01 0.000000000000e+00
    outer loop
      vertex 1.169820000000e-01 -2.704800000000e-02 -2.000000000000e-02
      vertex 1.261840000000e-01 -2.501200000000e-02 2.200000000000e-01
      vertex 1.169820000000e-01 -2.704800000000e-02 2.200000000000e-01
    endloop
  endfacet
  facet normal 2.379139194987e-01 -9.712862435496e-01 0.000000000000e+00
    outer loop
      vertex 1.261840000000e-01 -2.501200000000e-02 -2.000000000000e-02
      vertex 1.352880000000e-01 -2.278200000000e-02 -2.000000000000e-02
      vertex 1.352880000000e-01 -2.278200000000e-02 2.200000000000e-01
    endloop
  endfacet
  facet normal 2.379139194987e-01 -9.712862435496e-01 0.000000000000e+00
    outer loop
      vertex 1.261840000000e-01 -2.501200000000e-02 -2.000000000000e-02
      vertex 1.352880000000e-01 -2.278200000000e-02 2.200000000000e-01
      vertex 1.261840000000e-01 -2.501200000000e-02 2.200000000000e-01
    endloop
  endfacet
  facet normal 2.557132575227e-01 -9.667526725730e-01 0.000000000000e+00
    outer loop
      vertex 1.352880000000e-01 -2.278200000000e-02 -2.000000000000e-02
      vertex 1.441800000000e-01 -2.043000000000e-02 -2.000000000000e-02
      vertex 1.441800000000e-01 -2.043000000000e-02 2.200000000000e-01
    endloop
  endfacet
  facet normal 2.557132575227e-01 -9.667526725730e-01 0.000000000000e+00
    outer loop
      vertex 1.352880000000e-01 -2.278200000000e-02 -2.000000000000e-02
      vertex 1.441800000000e-01 -2.043000000000e-02 2.200000000000e-01
      vertex 1.352880000000e-01 -2.278200000000e-02 2.200000000000e-01
    endloop
  endfacet
  facet normal 2.708301896490e-01 -9.626271388106e-01 0.000000000000e+00
    outer loop
      vertex 1.441800000000e-01 -2.043000000000e-02 -2.000000000000e-02
      vertex 1.527460000000e-01 -1.802000000000e-02 -2.000000000000e-02
      vertex 1.527460000000e-01 -1.802000000000e-02 2.200000000000e-01
    endloop
  endfacet
  facet normal 2.708301896490e-01 -9.626271388106e-01 0.000000000000e+00
    outer loop
      vertex 1.441800000000e-01 -2.043000000000e-02 -2.000000000000e-02
      vertex 1.527460000000e-01 -1.802000000000e-02 2.200000000000e-01
      vertex 1.441800000000e-01 -2.043000000000e-02 2.200000000000e-01
    endloop
  endfacet
  facet normal 2.847710648523e-01 -9.585955563338e-01 0.000000000000e+00
    outer loop
      vertex 1.527460000000e-01 -1.802000000000e-02 -2.000000000000e-02
      vertex 1.608720000000e-01 -1.560600000000e-02 -2.000000000000e-02
      vertex 1.608720000000e-01 -1.560600000000e-02 2.200000000000e-01
    endloop
  endfacet
  facet normal 2.847710648523e-01 -9.585955563338e-01 0.000000000000e+00
    outer loop
      vertex 1.527460000000e-01 -1.802000000000e-02 -2.000000000000e-02
      vertex 1.608720000000e-01 -1.560600000000e-02 2.200000000000e-01
      vertex 1.527460000000e-01 -1.802000000000e-02 2.200000000000e-01
    endloop
  endfacet
  facet normal 2.983180682731e-01 -9.544665159878e-01 0.000000000000e+00
    outer loop
      vertex 1.608720000000e-01 -1.560600000000e-02 -2.000000000000e-02
      vertex 1.684420000000e-01 -1.324000000000e-02 -2.000000000000e-02
      vertex 1.684420000000e-01 -1.324000000000e-02 2.200000000000e-01
    endloop
  endfacet
  facet normal 2.983180682731e-01 -9.544665159878e-01 0.000000000000e+00
    outer loop
      vertex 1.608720000000e-01 -1.560600000000e-02 -2.000000000000e-02
      vertex 1.684420000000e-01 -1.324000000000e-02 2.200000000000e-01
      vertex 1.608720000000e-01 -1.560600000000e-02 2.200000000000e-01
    endloop
  endfacet
  facet normal 3.135015577625e-01 -9.495876859356e-01 0.000000000000e+00
    outer loop
      vertex 1.684420000000e-01 -1.324000000000e-02 -2.000000000000e-02
      vertex 1.753420000000e-01 -1.096200000000e-02 -2.000000000000e-02
      vertex 1.753420000000e-01 -1.096200000000e-02 2.200000000000e-01
    endloop
  endfacet
  facet normal 3.135015577625e-01 -9.495876859356e-01 0.000000000000e+00
    outer loop
      vertex 1.684420000000e-01 -1.324000000000e-02 -2.000000000000e-02
      vertex 1.753420000000e-01 -1.096200000000e-02 2.200000000000e-01
      vertex 1.684420000000e-01 -1.324000000000e-02 2.200000000000e-01
    endloop
  endfacet
  facet normal 3.328040138846e-01 -9.429960171402e-01 0.000000000000e+00
    outer loop
      vertex 1.753420000000e-01 -1.096200000000e-02 -2.000000000000e-02
      vertex 1.814680000000e-01 -8.800000000000e-03 -2.000000000000e-02
      vertex 1.814680000000e-01 -8.800000000000e-03 2.200000000000e-01
    endloop
  endfacet
  facet normal 3.328040138846e-01 -9.429960171402e-01 0.000000000000e+00
    outer loop
      vertex 1.753420000000e-01 -1.096200000000e-02 -2.000000000000e-02
      vertex 1.814680000000e-01 -8.800000000000e-03 2.200000000000e-01
      vertex 1.753420000000e-01 -1.096200000000e-02 2.200000000000e-01
    endloop
  endfacet
  facet normal 3.635424856527e-01 -9.315776194851e-01 0.000000000000e+00
    outer loop
      vertex 1.814680000000e-01 -8.800000000000e-03 -2.000000000000e-02
      vertex 1.867160000000e-01 -6.752000000000e-03 -2.000000000000e-02
      vertex 1.867160000000e-01 -6.752000000000e-03 2.200000000000e-01
    endloop
  endfacet
  facet normal 3.635424856527e-01 -9.315776194851e-01 0.000000000000e+00
    outer loop
      vertex 1.814680000000e-01 -8.800000000000e-03 -2.000000000000e-02
      vertex 1.867160000000e-01 -6.752000000000e-03 2.200000000000e-01
      vertex 1.814680000000e-01 -8.800000000000e-03 2.200000000000e-01
    endloop
  endfacet
  facet normal 4.164817481590e-01 -9.091440773884e-01 0.000000000000e+00
    outer loop
      vertex 1.867160000000e-01 -6.752000000000e-03 -2.000000000000e-02
      vertex 1.910600000000e-01 -4.762000000000e-03 -2.000000000000e-02
      vertex 1.910600000000e-01 -4.762000000000e-03 2.200000000000e-01
    endloop
  endfacet
  facet normal 4.164817481590e-01 -9.091440773884e-01 0.000000000000e+00
    outer loop
      vertex 1.867160000000e-01 -6.752000000000e-03 -2.000000000000e-02
      vertex 1.910600000000e-01 -4.762000000000e-03 2.200000000000e-01
      vertex 1.867160000000e-01 -6.752000000000e-03 2.200000000000e-01
    endloop
  endfacet
  facet normal 4.709237359148e-01 -8.821739255680e-01 0.000000000000e+00
    outer loop
      vertex 1.910600000000e-01 -4.762000000000e-03 -2.000000000000e-02
      vertex 1.946080000000e-01 -2.868000000000e-03 -2.000000000000e-02
      vertex 1.946080000000e-01 -2.868000000000e-03 2.200000000000e-01
    endloop
  endfacet
  facet normal 4.709237359148e-01 -8.821739255680e-01 0.000000000000e+00
    outer loop
      vertex 1.910600000000e-01 -4.762000000000e-03 -2.000000000000e-02
      vertex 1.946080000000e-01 -2.868000000000e-03 2.200000000000e-01
      vertex 1.910600000000e-01 -4.762000000000e-03 2.200000000000e-01
    endloop
  endfacet
  facet normal 4.880724880097e-01 -8.728030971806e-01 0.000000000000e+00
    outer loop
      vertex 1.946080000000e-01 -2.868000000000e-03 -2.000000000000e-02
      vertex 1.974120000000e-01 -1.300000000000e-03 -2.000000000000e-02
      vertex 1.974120000000e-01 -1.300000000000e-03 2.200000000000e-01
    endloop
  endfacet
  facet normal 4.880724880097e-01 -8.728030971806e-01 0.000000000000e+00
    outer loop
      vertex 1.946080000000e-01 -2.868000000000e-03 -2.000000000000e-02
      vertex 1.974120000000e-01 -1.300000000000e-03 2.200000000000e-01
      vertex 1.946080000000e-01 -2.868000000000e-03 2.200000000000e-01
    endloop
  endfacet
  facet normal 4.595247581559e-01 -8.881649602646e-01 0.000000000000e+00
    outer loop
      vertex 1.974120000000e-01 -1.300000000000e-03 -2.000000000000e-02
      vertex 1.993100000000e-01 -3.180000000000e-04 -2.000000000000e-02
      vertex 1.993100000000e-01 -3.180000000000e-04 2.200000000000e-01
    endloop
  endfacet
  facet normal 4.595247581559e-01 -8.881649602646e-01 0.000000000000e+00
    outer loop
      vertex 1.974120000000e-01 -1.300000000000e-03 -2.000000000000e-02
      vertex 1.993100000000e-01 -3.180000000000e-04 2.200000000000e-01
      vertex 1.974120000000e-01 -1.300000000000e-03 2.200000000000e-01
    endloop
  endfacet
  facet normal 4.185573088370e-01 -9.081903870991e-01 0.000000000000e+00
    outer loop
      vertex 1.993100000000e-01 -3.180000000000e-04 -2.000000000000e-02
      vertex 2.000000000000e-01 0.000000000000e+00 -2.000000000000e-02
      vertex 2.000000000000e-01 0.000000000000e+00 2.200000000000e-01
    endloop
  endfacet
  facet normal 4.185573088370e-01 -9.081903870991e-01 0.000000000000e+00
    outer loop
      vertex 1.993100000000e-01 -3.180000000000e-04 -2.000000000000e-02
      vertex 2.000000000000e-01 0.000000000000e+00 2.200000000000e-01
      vertex 1.993100000000e-01 -3.180000000000e-04 2.200000000000e-01
    endloop
  endfacet
  facet normal -2.747211278974e-01 9.615239476408e-01 0.000000000000e+00
    outer loop
      vertex 2.000000000000e-01 0.000000000000e+00 -2.000000000000e-02
      vertex 1.992580000000e-01 -2.120000000000e-04 -2.000000000000e-02
      vertex 1.992580000000e-01 -2.120000000000e-04 2.200000000000e-01
    endloop
  endfacet
  facet normal -2.747211278974e-01 9.615239476408e-01 0.000000000000e+00
    outer loop
      vertex 2.000000000000e-01 0.000000000000e+00 -2.000000000000e-02
      vertex 1.992580000000e-01 -2.120000000000e-04 2.200000000000e-01
      vertex 2.000000000000e-01 0.000000000000e+00 2.200000000000e-01
    endloop
  endfacet
endsolid mainWing
